<?xml version="1.0" standalone="no"?>
<!DOCTYPE svg PUBLIC "-//W3C//DTD SVG 20010904//EN"
 "http://www.w3.org/TR/2001/REC-SVG-20010904/DTD/svg10.dtd">
<svg version="1.0" xmlns="http://www.w3.org/2000/svg"
 width="674.000000pt" height="1280.000000pt" viewBox="0 0 674.000000 1280.000000"
 preserveAspectRatio="xMidYMid meet">
<metadata>
Created by potrace 1.15, written by Peter Selinger 2001-2017
</metadata>
<g transform="translate(0.000000,1280.000000) scale(0.100000,-0.100000)"
fill="#486923" stroke="none">
<path d="M3414 11716 c-3 -8 -4 -22 -2 -31 2 -13 -10 -23 -40 -36 l-43 -18
-10 26 c-13 36 -29 54 -40 47 -5 -3 0 -23 11 -44 26 -51 25 -58 -7 -71 -21 -8
-28 -7 -35 6 -5 8 -15 15 -23 15 -9 0 -15 15 -17 45 -5 73 -23 52 -22 -25 0
-39 -3 -70 -8 -70 -4 0 -8 4 -8 9 0 5 -13 12 -29 16 -22 5 -28 11 -24 25 6 21
-13 60 -28 60 -7 0 -8 -14 -4 -38 5 -34 3 -41 -20 -56 -18 -12 -36 -15 -57
-11 -26 6 -34 2 -60 -29 -19 -24 -36 -35 -47 -32 -9 3 -23 1 -31 -4 -11 -7
-21 -2 -41 22 -15 18 -29 27 -32 21 -4 -6 2 -21 12 -34 l19 -23 -44 -34 c-28
-22 -45 -45 -50 -65 -8 -37 -19 -47 -56 -47 -17 0 -31 7 -38 20 -12 23 -40 27
-40 6 0 -8 8 -22 17 -31 16 -16 16 -18 0 -27 -10 -5 -17 -21 -17 -37 0 -20 -8
-34 -25 -45 -20 -13 -25 -25 -25 -59 0 -39 3 -45 33 -59 22 -10 41 -12 62 -7
23 7 37 4 65 -15 19 -13 41 -26 49 -28 8 -2 -3 -14 -27 -31 -25 -16 -45 -39
-53 -62 -8 -20 -20 -35 -29 -35 -8 0 -25 -7 -36 -15 -24 -16 -34 -11 -34 16 0
24 -27 49 -53 49 -12 0 -27 8 -33 18 -17 27 -27 82 -15 82 6 0 15 9 21 21 9
16 8 26 -5 45 -14 21 -22 24 -74 23 -31 -1 -68 4 -80 10 -13 8 -39 10 -66 5
-33 -5 -51 -2 -70 10 -13 9 -38 16 -55 16 -26 0 -30 -3 -30 -29 0 -25 -4 -29
-32 -34 -38 -5 -55 5 -60 36 -4 31 -32 28 -36 -4 -2 -15 -23 -49 -48 -75 -24
-27 -44 -54 -44 -60 0 -19 -23 -22 -46 -7 -43 28 -164 -30 -164 -79 0 -11 -7
-18 -20 -18 -91 0 -150 -108 -61 -111 26 -1 25 -1 -6 -15 -36 -15 -71 -60 -57
-73 14 -13 102 -22 109 -11 11 18 25 10 25 -14 0 -13 -7 -29 -15 -36 -34 -28
3 -70 63 -70 34 0 34 0 18 -25 -19 -29 -21 -88 -3 -102 18 -15 76 -14 129 3
45 15 48 15 76 -6 l30 -23 -29 -24 c-33 -28 -36 -52 -13 -89 14 -21 22 -24 53
-18 20 4 45 15 57 26 20 18 25 18 95 5 41 -8 89 -14 107 -15 18 -1 59 -13 90
-27 52 -23 62 -33 92 -88 59 -110 90 -147 269 -326 235 -236 412 -434 541
-606 25 -33 51 -66 58 -73 25 -28 10 -60 -26 -55 -24 4 -20 -2 36 -56 34 -34
62 -63 62 -65 0 -2 -24 -2 -52 0 -41 2 -57 8 -71 26 -58 75 -85 85 -98 35 -6
-21 -3 -30 14 -42 16 -12 18 -15 5 -15 -20 0 -35 18 -43 52 -8 32 -27 40 -72
32 -41 -8 -53 -29 -27 -49 18 -14 18 -14 -4 -15 -16 0 -27 10 -39 35 -12 26
-23 35 -41 35 -21 0 -23 -3 -18 -27 6 -27 6 -27 -9 -8 -9 11 -14 30 -12 42 2
13 -1 31 -8 40 -12 17 -14 17 -34 -1 -12 -11 -21 -25 -21 -33 0 -11 -5 -10
-25 3 -14 9 -25 26 -25 38 0 31 -11 41 -47 43 -38 3 -38 2 -16 -40 9 -18 19
-48 22 -67 6 -35 15 -41 84 -55 15 -3 25 -9 23 -14 -3 -5 -17 -6 -31 -3 -14 2
-25 0 -25 -5 0 -21 38 -43 76 -43 34 -1 37 -2 19 -12 -49 -28 -40 -46 28 -53
58 -5 67 -10 67 -36 0 -23 9 -24 57 -4 44 18 41 19 39 -2 -1 -14 6 -18 34 -16
19 1 50 3 69 3 40 1 64 13 114 56 20 19 44 34 51 34 33 0 74 -24 114 -66 39
-43 42 -50 44 -107 3 -122 -2 -454 -9 -532 -3 -44 -7 -102 -8 -130 -1 -27 -6
-61 -10 -74 -7 -20 -5 -23 7 -19 12 5 15 -9 17 -84 1 -50 4 -94 6 -98 2 -4 7
-60 10 -125 3 -66 11 -125 17 -132 6 -8 7 -13 0 -13 -5 0 -15 -13 -22 -30 -17
-40 -27 -38 -28 8 -1 20 -3 46 -6 57 -2 11 -5 23 -5 28 -2 17 -31 5 -31 -13 0
-11 -5 -20 -11 -20 -6 0 -9 10 -7 23 2 12 -6 31 -17 42 -11 11 -26 33 -33 48
-22 51 -61 44 -62 -11 0 -13 -4 -20 -10 -17 -5 3 -7 25 -3 51 5 38 2 48 -17
69 -30 32 -36 31 -60 -7 l-20 -33 0 30 c0 17 4 36 9 44 9 13 -16 71 -31 71
-18 0 -38 -35 -38 -68 -1 -30 -2 -34 -11 -19 -6 9 -7 27 -4 38 9 26 -23 99
-42 99 -8 0 -13 -12 -13 -36 0 -22 -4 -33 -10 -29 -6 4 -10 26 -9 49 2 23 -1
48 -5 54 -12 19 -44 14 -60 -10 l-16 -22 0 26 c0 28 -39 85 -40 58 0 -10 -6
-8 -19 9 -26 34 -35 11 -17 -42 43 -128 174 -290 299 -372 59 -38 72 -60 65
-111 -4 -27 -5 -26 -12 11 -14 64 -56 101 -56 48 l0 -26 -22 20 c-22 20 -78
39 -78 27 0 -3 8 -19 17 -35 15 -25 16 -31 4 -38 -21 -13 -6 -40 26 -46 15 -4
37 -10 48 -15 16 -7 11 -9 -22 -9 -58 -1 -68 -25 -18 -44 6 -3 7 -8 3 -12 -4
-4 -14 -2 -22 4 -8 7 -20 10 -25 7 -6 -4 -15 10 -21 31 -5 21 -14 44 -19 52
-14 22 -33 2 -27 -28 6 -24 4 -23 -25 12 l-31 37 -24 -22 c-13 -13 -24 -30
-24 -39 0 -22 67 -79 102 -86 25 -5 41 -23 21 -23 -5 0 -14 -4 -22 -9 -12 -8
-13 -12 -1 -25 7 -9 10 -19 7 -22 -3 -3 -20 13 -38 35 -30 39 -59 53 -59 31 0
-5 -13 -10 -29 -10 -26 0 -30 -3 -28 -27 2 -24 8 -29 47 -39 l45 -11 -27 -13
c-23 -11 -29 -10 -44 5 -17 17 -19 16 -35 -4 -13 -16 -20 -19 -26 -9 -7 12
-74 41 -79 35 -1 -1 1 -19 5 -40 5 -34 13 -42 66 -73 l60 -34 -52 0 c-58 0
-67 -10 -27 -29 50 -22 15 -24 -37 -1 -43 18 -56 20 -78 10 l-25 -12 24 -19
25 -19 -43 0 c-40 0 -42 -1 -36 -25 5 -20 1 -27 -17 -34 l-24 -9 28 -11 c20
-8 27 -17 27 -36 0 -26 -4 -29 -52 -39 -19 -4 -28 -13 -28 -26 0 -28 -11 -25
-42 12 -25 31 -27 32 -55 18 -15 -8 -30 -16 -32 -17 -8 -5 32 -43 46 -43 12 0
17 -21 15 -59 0 -8 7 -20 16 -27 14 -10 14 -14 3 -28 -21 -25 -35 -14 -41 30
l-6 39 -21 -33 -21 -34 -7 71 c-7 71 -16 85 -33 54 -8 -14 -11 -11 -16 15 -6
26 -12 31 -37 30 -21 -1 -29 -6 -29 -20 0 -10 -7 -21 -15 -24 -25 -10 -17 -29
30 -72 25 -22 45 -47 45 -54 -1 -9 -5 -7 -14 5 -19 24 -36 21 -36 -7 0 -14 -4
-27 -10 -31 -11 -7 -40 46 -40 75 0 12 -5 31 -11 42 -11 20 -13 20 -24 4 -11
-14 -17 -15 -39 -5 -33 15 -43 6 -28 -26 10 -21 9 -25 -3 -25 -18 0 -20 -24
-2 -38 6 -5 27 -13 44 -17 44 -9 52 -25 14 -25 -34 0 -36 -2 -21 -31 7 -13 21
-19 42 -19 37 0 27 -16 -12 -22 -21 -3 -29 5 -53 52 -36 71 -46 81 -53 52 -8
-29 -18 -28 -32 2 -16 35 -61 64 -72 46 -4 -7 -15 -10 -24 -7 -20 8 -22 -17
-3 -35 8 -7 12 -20 9 -30 -3 -12 4 -19 24 -23 56 -13 59 -14 38 -29 -23 -17
-17 -24 31 -40 31 -11 34 -15 21 -25 -24 -20 -53 -4 -85 49 -32 52 -61 66 -61
29 0 -16 -4 -19 -17 -14 -36 15 -53 17 -78 11 -39 -10 -30 -31 23 -54 33 -15
41 -21 25 -21 -46 -2 -21 -19 37 -26 59 -7 75 -17 44 -29 -31 -12 -77 -6 -115
16 l-38 21 -41 -28 c-60 -42 -51 -57 31 -48 28 3 49 1 53 -5 6 -11 -1 -14 -71
-28 -13 -2 -23 -11 -23 -19 0 -8 -7 -15 -16 -15 -11 0 -14 -6 -9 -21 4 -13 1
-27 -10 -39 -41 -45 63 -33 113 13 39 37 42 27 6 -17 -23 -27 -25 -31 -10 -34
9 -2 23 1 30 7 7 6 28 10 48 9 21 -1 50 8 70 20 20 12 46 22 60 22 49 0 129
61 181 138 41 60 52 70 64 60 13 -10 12 -13 -6 -20 -27 -10 -47 -58 -29 -70 9
-5 7 -8 -8 -8 -27 0 -36 -10 -24 -25 7 -9 6 -16 -5 -25 -36 -30 -4 -40 45 -15
28 15 30 14 30 -5 0 -23 4 -24 29 -10 14 7 23 5 36 -10 17 -19 16 -20 -10 -32
-25 -11 -25 -13 -9 -25 17 -12 16 -14 -4 -36 -12 -13 -22 -35 -22 -49 0 -15
-5 -28 -12 -30 -6 -2 -9 -11 -5 -20 7 -21 62 -10 105 21 32 22 52 27 52 12 0
-13 -81 -51 -108 -51 -26 0 -39 -19 -21 -31 11 -6 8 -13 -11 -34 -22 -23 -23
-27 -8 -41 15 -15 18 -15 39 -1 21 15 23 15 36 -1 15 -20 18 -17 101 98 l47
65 3 -38 c2 -25 -2 -45 -12 -56 -8 -9 -12 -21 -8 -27 10 -15 37 -23 48 -16 14
10 34 83 34 122 0 27 2 31 15 20 11 -9 12 -17 5 -30 -7 -13 -7 -21 0 -25 5 -3
10 -15 10 -26 0 -69 84 78 101 177 6 38 15 62 20 57 5 -5 5 -23 0 -41 -12 -41
5 -43 41 -4 19 20 26 39 27 71 1 51 32 91 55 72 8 -6 38 -10 68 -9 39 2 65 -4
96 -20 24 -12 50 -22 59 -22 26 0 105 -42 145 -77 21 -18 49 -35 63 -38 14 -3
36 -7 49 -10 13 -3 43 -23 66 -45 26 -25 51 -40 68 -41 15 0 36 -4 47 -9 18
-8 17 -9 -7 -9 -42 -1 -34 -15 27 -47 67 -35 72 -48 87 -215 10 -113 9 -130
-7 -173 -13 -32 -21 -43 -26 -34 -12 18 -11 71 1 104 6 15 8 35 4 43 -4 9 -8
22 -8 30 -2 29 -26 23 -32 -8 -12 -58 -27 -48 -21 14 4 42 2 66 -9 87 -19 36
-42 23 -39 -22 3 -49 -12 -34 -19 20 -5 34 -13 54 -28 64 -26 18 -38 13 -31
-14 10 -36 -8 -21 -28 25 -18 40 -49 62 -49 35 0 -7 -6 -7 -19 0 -28 15 -71
13 -71 -4 0 -7 14 -19 30 -26 31 -13 38 -26 18 -32 -23 -8 4 -28 38 -28 19 0
34 -4 34 -10 0 -5 -11 -10 -25 -10 -34 0 -32 -16 5 -39 16 -10 27 -21 23 -25
-4 -3 3 -13 15 -22 12 -8 22 -25 22 -37 0 -31 11 -43 45 -51 33 -8 55 -23 55
-38 0 -5 -9 -4 -19 2 -24 12 -71 13 -71 2 0 -5 16 -17 35 -28 19 -10 35 -24
35 -30 0 -7 20 -24 45 -38 25 -15 45 -32 45 -38 0 -7 -4 -7 -12 0 -13 10 -78
5 -78 -7 1 -11 46 -39 87 -53 34 -11 39 -16 29 -28 -6 -9 -23 -21 -38 -27 -20
-9 -26 -17 -21 -29 12 -32 -16 -4 -43 42 -29 49 -47 53 -52 10 -2 -19 -8 -26
-18 -22 -24 9 -16 -31 11 -52 13 -10 44 -25 69 -32 25 -7 51 -19 58 -28 11
-13 9 -13 -18 1 -30 15 -33 15 -49 -3 -15 -16 -15 -22 -5 -35 11 -13 8 -14
-21 -9 -19 4 -46 13 -61 20 -34 18 -38 17 -38 -2 0 -11 -5 -14 -16 -10 -9 4
-22 2 -29 -4 -9 -8 -15 -8 -20 0 -11 17 -25 1 -25 -29 0 -15 -9 -36 -20 -46
-19 -17 -20 -17 -30 9 -5 15 -10 33 -10 39 -1 7 -14 27 -30 46 -29 34 -56 35
-45 0 4 -13 2 -19 -9 -19 -9 0 -16 -6 -16 -12 0 -7 -8 3 -18 22 -22 40 -42 50
-42 21 0 -32 -20 -35 -30 -4 -9 23 -17 28 -45 30 -20 1 -35 -3 -35 -9 0 -25
90 -96 156 -123 78 -33 161 -82 216 -129 37 -32 138 -153 138 -165 0 -4 8 -16
18 -27 9 -11 23 -31 31 -45 57 -96 62 -110 56 -139 -4 -16 -10 -30 -14 -30
-12 0 -31 48 -31 75 0 18 -5 25 -20 25 -16 0 -20 7 -20 31 0 24 -4 30 -16 25
-10 -4 -24 5 -41 24 -30 36 -48 39 -38 8 4 -13 7 -34 7 -48 0 -14 9 -35 21
-48 11 -12 16 -22 10 -22 -6 0 -18 -3 -27 -6 -11 -4 -15 3 -18 33 -3 33 -6 38
-25 35 -14 -2 -26 4 -33 17 -20 38 -31 24 -24 -30 7 -49 6 -51 -15 -44 -15 4
-21 2 -21 -9 0 -21 -17 -29 -39 -16 -25 13 -36 -2 -21 -31 11 -19 10 -20 -10
-9 -28 15 -36 6 -22 -25 16 -35 6 -31 -13 5 -22 42 -38 28 -30 -26 3 -24 3
-44 0 -44 -3 0 -17 25 -30 55 -29 64 -45 70 -45 18 l0 -36 -23 21 c-28 26 -31
27 -63 6 -19 -13 -22 -20 -13 -30 6 -7 8 -17 5 -23 -4 -5 29 -17 73 -26 88
-19 107 -28 97 -44 -11 -17 -34 -13 -57 10 -16 16 -23 18 -34 9 -9 -8 -20 -8
-32 -2 -13 8 -24 5 -42 -9 -13 -10 -30 -19 -39 -19 -12 0 -13 -3 -4 -12 21
-21 13 -30 -22 -24 -25 5 -35 3 -40 -9 -3 -8 -15 -15 -26 -15 -27 0 -25 -14 5
-30 13 -7 22 -17 19 -22 -3 -4 -17 1 -31 12 -32 25 -46 26 -38 1 5 -17 0 -21
-29 -27 -44 -8 -45 -16 -3 -37 32 -16 32 -16 5 -16 -14 -1 -28 -7 -30 -13 -3
-8 -18 -12 -40 -10 -33 3 -37 1 -44 -30 -5 -18 -9 -38 -9 -45 0 -6 -4 -15 -8
-19 -10 -11 -9 20 3 51 13 34 4 50 -18 33 -14 -12 -15 -9 -9 24 4 26 2 40 -8
45 -7 5 -14 17 -17 28 -6 36 -33 23 -36 -18 -3 -29 -7 -37 -20 -35 -13 2 -18
-6 -20 -39 -2 -24 -7 -43 -13 -43 -13 0 -11 57 3 97 10 28 9 39 -8 74 l-20 42
-18 -37 c-14 -30 -20 -35 -32 -25 -21 18 -18 -14 7 -62 11 -23 18 -43 15 -46
-8 -8 -37 18 -45 40 -6 17 -11 13 -33 -24 -22 -37 -28 -41 -34 -26 -4 10 1 34
11 56 23 51 17 87 -13 84 -12 -2 -22 3 -22 10 0 6 -12 23 -25 36 -23 21 -31
18 -26 -13 1 -5 -6 -17 -15 -27 -16 -17 -15 -22 11 -74 31 -60 29 -79 -4 -46
l-21 21 -15 -30 c-9 -17 -17 -30 -19 -30 -1 0 -2 28 -2 61 1 43 -3 63 -12 67
-8 2 -16 -6 -20 -19 -6 -21 -7 -18 -12 15 -4 33 -10 42 -38 53 -27 11 -33 11
-29 1 2 -7 -2 -21 -11 -30 -12 -15 -12 -20 -2 -33 7 -9 10 -18 7 -22 -9 -8 20
-60 38 -66 22 -9 19 -26 -4 -20 -15 4 -19 0 -17 -22 1 -18 8 -28 24 -32 34 -8
26 -25 -10 -21 -32 3 -33 4 -38 58 -3 31 -10 55 -16 55 -7 0 -21 11 -32 25
-24 30 -30 26 -36 -25 -2 -22 -5 -42 -6 -45 0 -3 -7 13 -15 35 -16 44 -47 75
-76 75 -25 0 -24 -25 1 -60 l20 -29 -27 -3 c-22 -2 -27 -8 -25 -23 2 -11 8
-21 13 -23 11 -4 12 -42 1 -42 -17 0 -32 26 -32 56 0 42 -9 64 -26 64 -9 0
-14 -11 -14 -30 0 -43 -18 -37 -25 8 -10 57 -14 65 -31 58 -10 -4 -23 3 -36
19 -25 31 -53 34 -45 4 3 -12 0 -30 -6 -41 -9 -15 -9 -22 -1 -25 6 -2 20 -10
30 -18 18 -14 17 -14 -11 -15 -22 0 -26 -3 -17 -12 7 -7 12 -20 12 -30 0 -14
8 -18 43 -18 33 -1 38 -3 25 -11 -30 -17 -20 -29 25 -30 37 0 39 -2 20 -11
-47 -23 -125 15 -135 67 -2 11 -10 19 -18 18 -8 -2 -23 11 -32 27 -21 37 -51
41 -42 6 4 -18 1 -25 -13 -28 -15 -3 -13 -9 17 -38 21 -19 26 -28 14 -22 -25
13 -59 53 -94 111 -14 25 -30 39 -37 36 -8 -2 -18 6 -25 20 -15 34 -38 40 -38
10 0 -18 -4 -23 -15 -19 -24 9 -18 -27 10 -69 14 -20 23 -42 20 -47 -9 -14 28
-43 103 -80 l70 -34 -6 -39 -5 -39 34 7 c19 4 40 12 46 17 7 6 24 7 38 4 20
-5 25 -3 25 14 0 16 6 20 33 19 23 -1 26 -3 10 -6 -29 -6 -29 -21 -1 -32 21
-8 21 -8 -5 -15 -30 -7 -32 -13 -13 -39 12 -15 22 -17 60 -12 37 6 46 12 54
35 9 23 14 27 38 22 28 -5 28 -7 8 42 -4 10 6 15 38 18 53 6 59 2 24 -13 -31
-14 -28 -36 10 -74 30 -30 32 -30 65 -1 32 28 39 46 28 68 -12 22 9 33 71 42
39 5 41 4 14 -4 -34 -11 -59 -41 -70 -85 -7 -28 -7 -28 32 -20 71 15 89 12 92
-13 3 -21 7 -22 35 -16 18 5 45 7 60 6 23 -1 31 4 39 26 9 23 17 28 44 29 19
1 34 -1 34 -2 0 -2 -9 -20 -21 -40 -17 -28 -27 -35 -47 -33 -35 4 -38 -16 -5
-31 25 -11 26 -14 10 -22 -25 -14 -12 -29 26 -30 43 -1 74 -13 59 -23 -18 -11
-15 -22 11 -34 19 -9 19 -11 3 -11 -10 -1 -32 11 -49 25 -18 15 -33 22 -35 15
-6 -17 -27 -13 -47 9 -10 11 -21 17 -26 14 -5 -3 -27 1 -49 7 -44 13 -60 8
-41 -15 8 -10 9 -16 1 -21 -17 -10 -11 -35 8 -35 10 0 22 -3 26 -7 4 -4 25 -6
46 -4 22 1 40 -1 40 -6 0 -15 -41 -44 -52 -36 -17 10 -117 12 -123 3 -3 -5
-23 -11 -45 -15 -33 -6 -40 -10 -35 -25 3 -11 0 -20 -10 -24 -8 -3 -15 -11
-15 -17 0 -8 16 -10 53 -6 28 3 46 4 40 1 -7 -3 -13 -10 -13 -15 0 -16 38 -10
72 11 35 21 68 26 68 10 0 -21 -76 -49 -131 -48 -59 2 -102 -9 -94 -22 3 -5
-3 -13 -12 -19 -16 -9 -16 -12 -3 -21 8 -5 31 -7 50 -5 l35 5 -35 -15 c-51
-22 -63 -30 -68 -43 -2 -7 6 -12 18 -12 17 0 19 -3 10 -19 -18 -34 -12 -49 15
-43 14 2 31 -1 39 -7 16 -14 27 -2 48 49 l15 35 0 -32 c0 -47 9 -51 43 -18 22
21 30 38 30 62 0 40 52 103 58 70 4 -20 -55 -127 -70 -127 -6 0 -6 -6 2 -15
10 -13 9 -19 -5 -35 -25 -27 -13 -35 23 -16 52 27 79 69 100 162 19 77 47 133
60 119 3 -3 -3 -14 -13 -25 -10 -11 -20 -37 -22 -57 -2 -21 -8 -54 -13 -73 -6
-19 -10 -48 -10 -64 0 -26 2 -28 28 -21 35 9 59 30 67 62 3 15 24 46 46 71 21
25 44 62 50 83 8 25 16 36 25 32 9 -3 11 -10 5 -21 -5 -10 -5 -23 2 -34 9 -13
9 -23 1 -36 -12 -18 0 -72 16 -72 13 0 39 29 57 63 8 18 17 33 18 35 7 8 45
-20 45 -33 0 -9 10 -15 24 -15 23 0 36 -16 36 -47 0 -12 -7 -14 -34 -9 -43 8
-53 -6 -31 -40 13 -20 23 -25 46 -22 26 4 28 3 14 -12 -34 -38 -8 -40 61 -5
83 42 194 28 194 -25 0 -24 -16 -21 -65 13 -64 44 -101 31 -53 -20 25 -27 8
-31 -32 -8 -34 19 -51 19 -43 -1 5 -14 2 -16 -19 -11 -15 4 -33 10 -42 13 -9
4 -16 1 -16 -6 0 -7 -8 -18 -17 -25 -16 -12 -16 -15 7 -34 24 -20 39 -21 95
-4 17 5 18 4 7 -10 -7 -8 -11 -21 -10 -28 2 -9 -9 -15 -30 -17 -27 -3 -31 -6
-22 -17 7 -8 27 -17 46 -21 27 -5 33 -10 31 -28 -1 -16 3 -20 18 -18 129 20
177 8 189 -49 8 -39 2 -47 -21 -27 -27 23 -63 29 -63 11 0 -11 -7 -10 -30 7
-23 17 -34 19 -44 11 -10 -8 -22 -8 -40 -1 -37 14 -56 13 -56 -4 0 -8 18 -21
41 -30 33 -13 39 -20 34 -36 -6 -19 -2 -20 64 -18 39 1 73 -1 76 -4 11 -11 -7
-37 -22 -31 -13 5 -15 1 -10 -17 5 -20 3 -20 -25 9 -31 32 -48 39 -48 21 0 -5
-9 -10 -20 -10 -21 0 -29 -33 -10 -45 6 -4 8 -10 5 -15 -11 -17 25 -30 82 -28
32 1 65 -2 71 -6 15 -9 45 -66 39 -73 -3 -2 -11 8 -19 24 -14 29 -56 41 -69
20 -4 -6 -15 -4 -30 7 -30 21 -68 21 -76 -1 -8 -21 19 -40 101 -71 67 -25 106
-56 106 -84 0 -24 -3 -23 -43 17 -38 38 -57 44 -57 18 0 -14 -3 -13 -23 5 -24
23 -67 30 -67 11 0 -6 12 -26 26 -44 18 -25 40 -38 79 -49 29 -9 57 -22 63
-29 16 -19 -21 -185 -57 -261 -75 -154 -72 -273 9 -451 62 -138 62 -140 -10
-149 -25 -2 -60 -9 -79 -15 -19 -6 -37 -9 -39 -6 -2 2 -28 -10 -58 -26 -30
-16 -68 -29 -85 -29 -60 0 -220 -23 -212 -31 5 -5 59 -4 121 1 87 7 132 16
192 40 137 52 194 31 78 -29 -60 -30 -79 -41 -157 -85 -25 -14 -50 -19 -91
-17 -64 3 -86 -12 -54 -36 17 -13 17 -14 -6 -31 -27 -18 -139 -51 -181 -51
-14 -1 -40 -8 -58 -17 -34 -17 -127 -39 -225 -54 -32 -5 -64 -14 -69 -19 -18
-18 -84 -12 -140 13 -58 25 -101 71 -162 171 l-37 60 5 125 c3 70 14 167 26
220 20 92 51 194 64 206 12 13 20 -51 10 -88 -6 -21 -7 -41 -3 -43 10 -6 70
14 90 30 8 7 23 15 34 19 11 4 16 12 12 22 -4 10 6 22 30 36 l35 20 -29 27
c-20 17 -27 31 -22 41 4 8 12 25 18 37 13 25 -2 43 -21 24 -6 -6 -27 -11 -46
-11 -27 0 -32 3 -23 12 17 17 15 38 -4 38 -18 0 -19 -2 21 68 26 47 33 53 58
49 15 -2 27 0 27 5 0 4 11 8 25 8 14 0 25 4 25 8 0 17 -25 32 -53 32 l-28 0
18 31 c10 17 28 38 40 46 20 13 25 13 45 -1 28 -20 49 -21 42 -1 -5 12 0 14
27 8 31 -6 33 -5 20 10 -7 9 -20 17 -28 17 -12 0 -13 3 -3 15 16 19 3 37 -21
30 -25 -8 -24 7 1 30 16 15 30 17 80 12 62 -7 78 3 39 23 -27 15 -22 54 8 58
12 2 35 -6 50 -17 36 -27 143 -41 143 -19 0 14 -39 38 -61 38 -5 0 -26 7 -47
16 l-37 16 50 13 c99 26 134 28 160 11 14 -9 25 -25 25 -35 0 -19 36 -71 49
-71 5 0 11 15 15 33 5 25 9 29 16 17 5 -8 10 -25 10 -37 0 -14 6 -23 15 -23 8
0 15 -9 15 -20 0 -11 5 -20 10 -20 6 0 10 14 10 31 0 27 3 29 22 24 17 -6 20
-4 15 9 -4 9 -10 23 -13 31 -5 11 -2 13 10 9 9 -3 24 -3 33 1 16 6 15 8 -7 26
-17 14 -21 22 -12 26 28 11 8 18 -50 16 -54 -2 -59 -1 -35 8 33 13 35 26 5 31
-17 2 -22 9 -20 26 4 26 0 27 -39 6 -30 -15 -31 -15 -24 5 11 34 -42 20 -65
-17 -14 -22 -27 -32 -44 -32 -41 0 -39 18 4 45 41 26 49 40 28 49 -9 3 -6 11
10 24 39 35 26 56 -16 26 -12 -8 -22 -10 -22 -5 0 21 -20 10 -35 -19 -9 -17
-21 -27 -29 -24 -9 4 -16 -8 -21 -38 l-8 -43 -6 39 c-3 22 -12 41 -20 44 -10
3 -12 -9 -10 -59 4 -56 2 -64 -15 -67 -26 -6 -46 24 -46 68 0 43 -20 90 -38
90 -10 0 -12 -8 -7 -30 5 -25 4 -29 -9 -24 -18 7 -21 -8 -6 -36 7 -13 6 -19
-5 -24 -8 -3 -12 -12 -9 -21 3 -8 1 -15 -5 -15 -6 0 -11 -4 -11 -10 0 -5 9
-10 21 -10 15 0 19 -4 15 -16 -3 -9 -6 -20 -6 -25 0 -5 -8 -9 -17 -9 -9 0 -25
-7 -35 -17 -17 -15 -18 -14 -18 18 0 35 -23 79 -41 79 -6 0 -7 -9 -4 -20 6
-18 3 -20 -20 -14 -25 6 -26 5 -16 -14 9 -17 7 -21 -15 -26 -32 -8 -23 -22 20
-30 19 -4 40 -14 47 -22 12 -14 9 -20 -16 -40 l-30 -23 -11 21 -12 22 -4 -24
-4 -25 -12 27 c-12 28 -39 48 -68 48 -16 0 -15 -2 3 -22 33 -37 35 -47 11 -42
l-23 5 22 -17 c29 -21 30 -38 2 -24 -11 7 -28 9 -36 5 -14 -5 -14 -7 3 -20 18
-14 18 -16 2 -26 -24 -14 -23 -33 2 -26 11 3 20 1 20 -5 0 -6 7 -8 15 -4 21 8
18 -14 -5 -43 l-20 -23 -21 27 c-12 15 -25 22 -28 17 -3 -6 -24 -12 -46 -14
-49 -4 -51 -21 -4 -29 71 -11 75 -33 6 -44 -79 -12 -81 -14 -51 -37 22 -18 30
-19 46 -9 27 17 54 -10 38 -39 -9 -16 -15 -18 -30 -10 -23 12 -60 13 -60 1 0
-5 8 -12 17 -16 16 -6 15 -8 -7 -17 l-25 -10 23 -9 c36 -14 25 -19 -33 -14
-43 3 -55 1 -55 -11 0 -8 -10 -14 -25 -14 -16 0 -25 -6 -25 -16 0 -11 -6 -15
-20 -11 -19 5 -20 2 -14 -29 6 -32 4 -35 -25 -45 -36 -13 -39 -24 -9 -40 18
-10 19 -13 6 -20 -11 -6 -15 -22 -14 -54 1 -25 -2 -45 -6 -45 -9 0 -4 -72 6
-89 4 -6 4 -16 0 -22 -3 -6 -2 -21 4 -32 6 -12 18 -53 27 -92 14 -59 38 -114
127 -297 5 -11 4 -18 -2 -18 -15 0 -173 323 -201 408 -22 69 -22 74 -6 83 23
14 21 27 -5 31 -27 4 -36 28 -11 28 15 0 19 7 19 34 0 30 -2 33 -18 25 -19
-10 -38 -5 -38 12 0 5 7 9 15 9 11 0 14 7 9 25 -4 15 -2 25 5 25 6 0 11 7 11
15 0 11 -7 14 -25 9 -20 -5 -25 -2 -31 20 -9 37 1 42 41 23 27 -13 35 -14 35
-4 0 7 -5 18 -12 25 -9 9 -8 12 5 12 23 0 21 17 -3 25 -11 3 -20 13 -20 22 0
11 -6 14 -24 9 -27 -7 -45 19 -26 38 10 10 14 9 85 -20 18 -7 19 -6 5 10 -13
16 -12 20 3 31 17 12 16 14 -9 34 -32 25 -43 26 -71 6 -19 -13 -21 -13 -27 8
-9 35 -7 40 15 34 15 -4 19 -2 15 9 -7 19 8 18 24 -1 15 -18 37 -20 42 -3 4
10 13 10 43 0 46 -14 67 -1 35 21 -21 14 -21 16 -3 25 28 16 7 26 -32 15 -39
-12 -43 -8 -18 19 25 27 10 32 -31 8 -35 -19 -36 -19 -26 -1 21 40 5 42 -39 5
-30 -25 -31 -25 -31 -5 0 23 27 41 64 41 14 0 26 5 26 10 0 6 9 10 21 10 15 0
19 4 15 16 -4 11 -2 15 7 11 7 -2 26 1 42 8 28 12 28 13 10 21 -11 4 -23 13
-28 20 -5 9 -16 10 -37 4 -20 -6 -30 -5 -33 3 -3 7 -19 -2 -41 -22 -28 -27
-36 -31 -36 -17 0 9 11 28 25 41 27 24 21 39 -12 29 -14 -4 -13 -1 6 15 30 27
67 27 121 -2 42 -22 45 -22 62 -5 15 15 16 22 6 41 -19 33 -29 37 -73 31 -39
-5 -40 -5 -15 10 l25 15 -28 1 c-16 0 -26 4 -22 9 3 6 -3 14 -12 20 -28 16 3
31 57 28 32 -1 44 2 42 11 -1 8 11 12 35 12 36 1 37 2 19 15 -11 8 -28 15 -39
15 -13 0 -17 5 -13 15 9 24 -26 18 -68 -10 -39 -27 -58 -33 -38 -13 19 19 15
40 -7 33 -10 -3 -23 1 -30 9 -20 24 42 57 91 49 32 -5 38 -3 38 12 0 9 -9 19
-20 22 l-21 6 21 14 c50 35 4 45 -50 11 -19 -12 -37 -22 -40 -23 -26 -5 -57
-21 -67 -34 -11 -14 -12 -11 -13 15 0 36 40 70 78 65 26 -3 30 14 4 25 -14 6
-11 8 13 13 20 4 30 12 30 24 0 10 6 22 14 26 10 6 6 11 -15 18 l-29 10 33 32
c17 18 32 37 32 42 0 22 -31 6 -68 -36 -29 -33 -42 -41 -50 -33 -9 9 -12 5
-12 -16 0 -33 -25 -56 -52 -48 -27 7 -22 19 22 64 22 23 40 47 40 54 0 7 13
15 30 19 16 4 33 11 36 17 10 16 -18 28 -35 15 -15 -12 -15 -10 6 41 3 6 -2
12 -11 12 -8 0 -27 -21 -42 -46 -18 -30 -29 -41 -34 -33 -6 8 -12 6 -21 -10
-17 -27 -29 -27 -29 -1 0 25 27 80 39 80 4 0 15 18 24 40 16 42 11 48 -26 29
-39 -20 -67 -52 -67 -76 0 -15 -4 -22 -11 -17 -15 9 -3 86 23 146 11 25 18 57
15 70 l-4 23 -8 -23 c-4 -13 -14 -21 -23 -20 -10 2 -18 -5 -20 -17 -8 -39 -25
-42 -19 -2 6 39 -7 49 -27 22 -9 -12 -10 -6 -8 30 5 52 -13 61 -24 13 l-8 -33
-11 40 c-10 33 -13 37 -22 22 -9 -16 -11 -17 -22 -3 -18 21 -30 20 -30 -1 -1
-10 -3 -37 -5 -61 -3 -37 -1 -43 19 -48 23 -6 23 -6 4 -25 -10 -10 -25 -19
-33 -19 -21 0 -46 -11 -46 -21 0 -4 15 -11 34 -14 23 -5 33 -12 32 -23 -1 -13
6 -16 33 -14 43 3 67 -14 46 -34 -7 -8 -25 -14 -38 -14 -32 0 -57 -9 -57 -21
0 -5 10 -9 21 -9 17 0 19 -3 10 -14 -17 -20 1 -28 46 -20 35 7 37 6 24 -10
-19 -22 -7 -32 24 -18 30 14 51 7 58 -18 7 -26 1 -29 -41 -19 -48 11 -115 1
-108 -16 3 -8 -6 -16 -20 -19 -31 -8 -31 -26 0 -26 13 0 26 -5 28 -11 3 -8 14
-7 35 5 39 20 54 20 47 1 -5 -11 1 -13 32 -8 39 6 64 -12 64 -47 0 -19 -41
-20 -64 -1 -9 8 -26 11 -40 7 -14 -3 -28 -2 -31 4 -8 13 -45 13 -45 1 0 -5 -9
-13 -20 -16 -26 -8 -17 -22 23 -34 30 -9 31 -10 10 -16 -30 -10 -29 -25 1 -25
13 0 26 -6 29 -12 3 -10 9 -10 26 0 12 7 41 15 65 18 36 5 46 3 65 -17 11 -12
21 -29 21 -36 0 -18 -25 -16 -40 2 -13 15 -40 21 -40 8 0 -3 7 -14 16 -24 15
-16 13 -17 -23 -7 -56 14 -132 18 -139 7 -3 -6 3 -20 15 -33 20 -21 20 -23 3
-40 -16 -18 -16 -18 11 -14 27 5 27 5 11 -13 -16 -18 -16 -19 -1 -19 10 0 17
-4 17 -9 0 -4 19 -13 42 -18 l43 -10 -30 -14 c-30 -14 -30 -14 31 -17 71 -3
92 -19 101 -76 4 -29 2 -36 -11 -36 -9 0 -16 6 -16 14 0 8 -14 29 -32 47 -26
28 -33 31 -36 17 -2 -9 2 -26 8 -37 7 -14 7 -21 0 -21 -5 0 -10 4 -10 10 0 13
-49 44 -57 36 -3 -3 1 -14 10 -24 22 -24 22 -35 0 -24 -10 5 -34 12 -54 16
-31 5 -37 3 -42 -14 -4 -15 0 -20 15 -20 15 0 18 -5 13 -20 -7 -24 5 -25 67
-9 33 8 50 8 73 -1 l30 -12 -27 -10 c-41 -14 -35 -32 7 -24 27 5 37 3 41 -9 9
-22 -3 -30 -22 -15 -13 11 -17 11 -24 1 -5 -9 -10 -10 -14 -2 -11 17 -27 13
-24 -6 2 -11 -2 -17 -11 -15 -8 2 -29 6 -45 8 -29 5 -30 5 -12 -10 10 -8 24
-17 30 -19 8 -3 7 -8 -2 -18 -21 -22 -13 -32 22 -26 30 5 33 3 28 -15 -4 -18
-2 -20 19 -14 43 13 53 11 57 -9 3 -16 1 -18 -9 -7 -18 17 -32 15 -25 -4 5
-13 2 -15 -14 -11 -21 5 -28 -7 -10 -18 17 -10 11 -32 -10 -38 -11 -3 -27 -20
-34 -39 -14 -31 -13 -34 7 -50 12 -10 16 -18 10 -18 -7 0 -13 -4 -13 -10 0 -5
19 -10 43 -10 47 -1 77 -18 77 -45 0 -14 -3 -15 -15 -5 -12 10 -15 10 -15 -3
0 -11 -6 -13 -21 -10 -19 5 -21 3 -15 -20 8 -32 -6 -42 -34 -25 -13 9 -18 19
-14 32 5 16 3 18 -17 12 -54 -17 -63 -13 -64 27 -1 22 -8 42 -14 47 -10 6 -10
9 -1 15 8 5 7 12 -5 25 -9 10 -14 24 -10 29 10 17 -11 13 -25 -4 -7 -8 -16
-15 -21 -15 -13 0 -11 48 2 56 8 4 7 9 -2 15 -11 6 -11 11 -1 21 16 16 15 28
-2 28 -8 0 -26 -15 -40 -32 -25 -32 -26 -32 -40 -13 -21 28 -20 35 9 35 35 0
31 19 -5 27 -34 6 -35 10 -15 37 21 27 19 35 -6 29 -19 -5 -20 -4 -10 16 14
24 6 26 -29 6 -37 -21 -50 -18 -50 13 0 45 -13 56 -37 30 -11 -13 -24 -32 -28
-43 -7 -19 -8 -19 -15 5 -4 15 -1 36 7 53 17 35 7 50 -13 22 -8 -11 -21 -19
-29 -17 -7 1 -16 -5 -18 -15 -3 -10 -5 -3 -6 16 -1 25 -5 32 -16 27 -9 -3 -18
1 -21 9 -10 25 -27 17 -20 -10 4 -14 3 -25 -1 -25 -14 1 -39 24 -52 48 -12 22
-41 31 -41 12 0 -5 -11 -10 -25 -10 -14 0 -25 -5 -25 -10 0 -7 -7 -7 -21 1
-14 7 -24 7 -28 1 -3 -5 -19 -16 -36 -25 -27 -15 -28 -16 -7 -17 13 0 22 -6
22 -16 0 -13 6 -15 28 -10 35 8 123 17 99 10 -13 -4 -16 -11 -11 -27 9 -31 11
-32 39 -19 31 14 75 15 95 2 12 -8 10 -10 -10 -10 -14 0 -32 -5 -40 -10 -13
-9 -11 -13 10 -29 17 -14 29 -17 42 -10 22 12 68 12 68 -1 0 -5 -11 -10 -24
-10 -31 0 -54 -26 -37 -43 9 -9 16 -8 33 2 17 10 22 11 29 0 6 -11 12 -10 26
3 12 11 23 14 32 9 11 -7 9 -12 -9 -21 -17 -9 -19 -14 -10 -20 7 -4 9 -13 5
-20 -6 -10 -2 -12 13 -8 25 7 29 -4 7 -22 -8 -7 -15 -19 -15 -28 0 -13 4 -12
23 5 12 11 30 23 39 26 10 4 18 11 18 17 0 15 17 12 40 -7 28 -24 25 -33 -11
-33 -25 0 -30 -3 -25 -16 4 -10 -1 -25 -10 -36 -21 -22 -13 -33 14 -19 30 16
41 13 35 -9 -3 -11 -2 -28 1 -37 6 -15 8 -15 16 -3 6 8 10 26 10 39 0 23 1 23
19 7 13 -12 20 -13 23 -6 3 9 8 7 16 -3 11 -13 9 -17 -14 -29 -27 -13 -32 -36
-6 -30 10 2 8 -4 -4 -24 -18 -26 -18 -27 4 -20 18 6 22 3 22 -13 0 -29 17 -26
27 4 7 23 10 24 28 12 18 -14 17 -15 -13 -31 -42 -22 -41 -36 3 -29 l34 6 -9
-34 c-13 -43 -7 -46 19 -13 21 26 22 26 41 9 l20 -18 -20 -22 c-24 -25 -27
-50 -5 -41 8 3 22 9 30 12 11 4 15 0 15 -16 0 -12 8 -34 19 -48 10 -15 28 -48
39 -74 l20 -47 -71 33 c-40 19 -97 44 -127 57 -30 13 -86 43 -123 67 -72 47
-104 50 -92 10 13 -41 155 -168 188 -168 9 0 33 -11 53 -25 20 -14 45 -25 55
-25 10 0 20 -4 23 -9 3 -5 20 -11 38 -14 93 -15 101 -20 136 -82 75 -134 170
-227 317 -312 92 -53 97 -54 190 -63 73 -7 94 -4 240 31 88 22 166 39 174 39
37 0 111 -83 111 -125 0 -12 -4 -14 -19 -5 -30 16 -73 12 -116 -10 -23 -12
-59 -20 -87 -20 -50 0 -67 -12 -48 -35 18 -22 69 -18 125 10 61 30 59 30 111
5 37 -18 43 -26 48 -64 7 -45 36 -82 113 -143 28 -22 44 -29 54 -22 11 7 7 15
-19 37 -74 60 -112 103 -112 127 0 14 2 25 5 25 5 0 90 -44 169 -86 11 -7 47
-14 78 -17 39 -3 76 -15 113 -36 50 -29 62 -31 149 -31 52 0 97 -4 101 -9 7
-12 -39 -56 -77 -77 -16 -8 -28 -19 -28 -24 0 -17 53 -11 86 9 17 10 57 49 90
87 85 97 125 134 148 134 11 0 39 20 63 45 l43 45 0 -50 c0 -53 -12 -79 -62
-138 -17 -19 -28 -44 -27 -60 1 -26 2 -25 18 11 10 21 33 51 51 66 30 25 34
35 40 94 5 42 18 87 35 122 29 55 38 64 51 44 3 -6 34 -24 68 -39 33 -16 68
-35 77 -42 17 -14 91 -168 88 -184 -4 -20 2 -35 11 -29 21 13 8 73 -33 155
-40 82 -44 86 -103 115 -109 54 -114 58 -114 118 0 54 -25 138 -54 178 -21 31
-21 50 2 42 56 -19 121 -57 130 -77 19 -43 95 -121 130 -133 58 -21 74 6 20
33 -33 16 -108 82 -108 95 0 15 267 -95 299 -124 35 -30 135 -97 146 -97 3 0
5 6 5 14 0 7 -19 26 -42 42 -24 15 -54 39 -68 52 -29 28 -137 92 -154 92 -33
0 -213 86 -203 97 3 2 44 -5 92 -17 47 -11 105 -20 128 -19 56 2 235 -46 261
-70 18 -16 153 -101 161 -101 2 0 1 9 -2 20 -3 11 -26 33 -52 48 -25 14 -57
37 -71 49 -14 13 -38 29 -55 37 -57 27 -190 57 -275 63 -134 8 -249 52 -250
97 0 5 18 6 40 2 29 -4 56 0 97 16 47 17 82 22 180 23 121 1 140 5 129 23 -8
13 -211 22 -249 11 -20 -6 -33 -5 -37 1 -4 7 -17 2 -34 -11 -22 -17 -34 -20
-64 -14 -20 4 -58 10 -84 14 -26 4 -56 15 -66 24 -46 42 -129 58 -191 36 -54
-19 -61 3 -18 51 21 22 37 44 37 49 0 4 27 20 59 34 65 28 91 52 44 41 -15 -4
-37 -11 -48 -17 -26 -13 -99 -69 -104 -80 -1 -4 -12 -17 -23 -27 -21 -19 -21
-19 -39 5 -26 32 -25 37 21 65 62 38 51 55 -15 23 -25 -12 -38 -14 -46 -6 -20
20 0 52 42 64 22 7 38 17 36 23 -6 20 -49 18 -77 -3 -22 -16 -30 -18 -39 -8
-18 23 -32 69 -23 81 23 29 21 47 -4 56 -25 10 -26 12 -19 73 4 34 19 94 34
132 23 61 30 70 51 70 19 0 26 6 30 25 4 19 15 28 50 39 55 17 53 15 45 40 -7
23 -37 27 -79 11 -20 -7 -26 -6 -26 4 0 17 22 26 62 26 25 0 28 2 18 14 -9 12
-4 19 31 37 36 18 40 23 26 31 -10 5 -26 7 -36 3 -16 -5 -17 -1 -12 27 9 48
16 56 131 149 118 95 162 124 203 134 26 7 27 5 27 -28 0 -27 7 -41 30 -60 24
-21 30 -33 30 -67 0 -41 46 -160 62 -160 4 0 8 11 8 25 0 19 4 23 17 18 13 -5
15 -1 10 23 -3 16 -9 37 -13 48 -6 15 -4 17 14 11 33 -10 28 23 -8 65 -33 40
-40 66 -12 55 37 -16 53 -17 66 -6 21 18 28 -2 24 -67 -2 -42 0 -56 10 -54 8
1 12 -12 12 -43 0 -39 3 -45 20 -45 11 0 23 -7 26 -15 8 -19 24 -19 24 0 0 8
5 24 12 34 9 15 9 25 0 46 -11 24 -10 25 7 15 21 -11 40 3 21 15 -6 4 -8 15
-5 24 4 13 -6 26 -33 45 -25 17 -43 39 -49 61 -6 19 -8 35 -5 35 3 0 25 -19
49 -42 48 -47 63 -46 39 3 -10 20 -13 36 -7 42 21 21 32 -6 30 -75 -2 -56 1
-72 15 -80 9 -5 16 -17 16 -28 0 -10 4 -30 10 -45 9 -23 12 -24 31 -13 17 11
20 20 16 55 l-4 42 23 -16 c20 -13 25 -13 29 -1 8 21 -11 65 -35 80 -28 18
-25 29 6 18 34 -13 34 -13 34 13 0 51 15 35 27 -29 14 -76 17 -81 36 -65 12 9
16 6 20 -17 7 -34 54 -62 69 -40 5 7 7 23 5 35 -2 12 -1 20 4 17 4 -2 12 4 18
13 5 10 13 17 18 16 4 -1 7 16 5 37 -1 22 2 40 8 40 5 0 10 -6 10 -12 0 -28
17 -41 38 -29 25 13 40 -2 23 -23 -14 -16 -4 -46 15 -46 8 0 14 -4 14 -9 0 -5
5 -22 11 -38 l11 -28 14 27 c9 18 20 25 30 21 12 -4 14 0 10 21 -18 83 -18 81
-5 68 18 -17 39 -15 39 3 0 8 9 15 20 15 23 0 25 -15 5 -50 -20 -34 -18 -50 3
-50 11 0 19 -7 19 -17 -1 -48 4 -73 13 -73 6 0 10 9 10 20 0 11 7 20 15 20 18
0 37 34 26 46 -5 5 -11 24 -15 43 l-6 34 25 -27 c14 -15 25 -34 25 -42 0 -10
6 -13 18 -10 17 6 18 0 16 -51 -1 -32 0 -62 3 -66 3 -5 18 4 34 19 24 23 29
36 29 78 l1 51 19 -24 c11 -13 20 -29 20 -37 0 -8 6 -11 15 -8 21 8 19 -2 -7
-36 -17 -23 -19 -33 -10 -42 7 -7 12 -20 12 -30 0 -31 28 -20 73 27 51 53 70
49 26 -5 -23 -29 -29 -43 -23 -64 9 -36 24 -43 43 -19 17 22 61 40 61 26 0 -5
-7 -19 -16 -31 -22 -31 -12 -37 27 -18 18 9 34 14 37 12 2 -3 -9 -21 -24 -42
-20 -25 -25 -39 -16 -42 6 -2 12 -14 12 -26 0 -13 3 -25 6 -29 10 -10 74 43
74 62 1 13 3 13 16 -4 24 -32 36 -1 29 75 -4 50 -2 59 5 41 l11 -25 21 22 c21
20 21 25 10 80 -14 68 -15 82 -4 82 11 0 44 -65 45 -87 1 -33 -16 -78 -40
-106 -27 -33 -30 -57 -6 -57 15 0 15 -1 -1 -13 -16 -12 -18 -23 -13 -91 4 -42
9 -82 13 -87 10 -18 42 20 49 59 6 30 8 33 16 19 6 -10 14 -15 20 -12 18 12
31 -6 17 -23 -8 -10 -20 -30 -26 -46 -12 -28 -12 -28 13 -22 25 6 26 6 10 -18
-12 -18 -14 -32 -7 -58 9 -37 29 -43 46 -13 6 11 12 22 13 24 2 2 9 -2 17 -8
23 -19 29 3 21 75 -5 45 -3 64 5 64 6 0 10 -10 8 -23 -2 -17 2 -22 19 -21 19
0 20 -2 11 -14 -7 -8 -13 -47 -14 -88 -1 -59 2 -77 16 -89 17 -15 20 -15 39 6
20 21 26 45 21 78 -1 12 1 12 13 3 17 -14 27 -6 27 23 0 11 5 26 11 32 7 7 6
21 -5 48 -19 46 -19 45 -1 45 8 0 15 5 15 11 0 5 4 7 10 4 5 -3 9 -42 8 -85
-2 -85 3 -100 27 -80 13 11 15 4 15 -54 0 -55 3 -66 16 -64 10 2 20 -10 29
-36 8 -21 21 -46 29 -55 15 -14 18 -14 33 2 15 15 16 20 4 39 -10 16 -10 23
-2 26 20 7 12 45 -16 74 -15 15 -21 28 -15 28 23 0 13 67 -14 100 -36 42 -20
54 17 12 23 -25 29 -42 29 -77 0 -24 5 -47 10 -50 6 -3 10 -22 10 -41 0 -22 6
-37 16 -41 8 -3 20 -17 25 -30 5 -13 24 -30 41 -38 l33 -14 9 37 c8 32 6 38
-19 58 -17 13 -23 24 -16 28 17 11 13 23 -19 59 -16 19 -30 38 -30 43 0 16 58
-48 76 -84 28 -55 74 -112 90 -112 24 0 16 52 -13 84 -27 28 -27 28 -3 13 26
-18 95 -23 104 -8 8 12 -50 61 -72 62 -11 0 -12 3 -5 6 7 2 29 -1 49 -7 43
-15 57 -5 27 20 -13 10 -23 25 -23 34 0 13 -12 16 -57 17 -32 1 -63 1 -69 0
-6 -1 -26 5 -44 12 l-32 14 36 6 c20 3 49 1 65 -4 22 -8 38 -6 66 5 20 9 34
20 31 25 -7 11 -86 31 -123 31 -16 0 -34 5 -41 12 -9 9 -19 9 -46 0 -32 -12
-42 -11 -83 5 -30 11 55 22 120 16 47 -5 57 -3 57 9 0 10 16 20 45 27 51 13
57 26 19 43 -24 11 -64 6 -117 -17 -13 -6 -16 -4 -11 9 4 9 -1 25 -9 34 -15
17 -13 18 38 18 67 0 88 15 58 44 -12 10 -33 22 -47 26 -14 3 -26 10 -26 15 0
16 -29 10 -80 -16 -47 -24 -92 -36 -61 -16 8 6 12 18 8 31 -6 22 -4 22 44 17
43 -5 49 -4 49 12 0 11 7 21 15 25 23 8 18 19 -16 39 -38 21 -53 21 -69 2 -18
-22 -32 -18 -18 5 21 33 1 34 -56 1 -66 -37 -66 -37 -59 -11 7 26 -1 25 -55
-6 -40 -24 -46 -25 -54 -10 -10 18 -43 22 -53 6 -7 -11 -45 30 -45 48 0 13 13
11 83 -16 32 -12 60 -22 62 -22 14 0 2 32 -15 42 -37 24 -20 29 70 22 66 -5
90 -4 90 5 0 6 -7 14 -15 16 -51 16 -50 16 -35 25 8 6 40 10 71 10 38 0 61 5
69 15 15 18 6 45 -14 45 -8 0 -16 6 -18 12 -4 10 -11 10 -33 0 -23 -11 -30
-11 -37 0 -6 10 -21 6 -68 -19 -59 -32 -70 -30 -50 8 17 31 -22 24 -55 -11
-28 -29 -55 -39 -55 -21 0 5 8 12 18 16 15 6 14 8 -8 20 -25 14 -24 14 17 15
23 0 45 5 48 10 3 6 15 10 26 10 29 0 23 18 -13 35 l-33 15 47 -4 c44 -3 49
-1 83 37 37 41 35 56 -7 57 -10 0 -18 5 -18 10 0 14 -33 12 -50 -2 -8 -8 -7
-2 3 15 l17 27 -38 0 c-22 0 -59 -11 -86 -25 -49 -26 -57 -20 -30 21 21 31 14
39 -23 27 -19 -6 -36 -25 -53 -57 -34 -64 -102 -100 -85 -45 5 14 0 21 -17 28
-21 8 -19 10 32 36 49 25 52 28 36 41 -18 12 -17 15 13 39 25 22 31 34 31 67
0 32 -3 39 -16 34 -9 -3 -24 -6 -34 -6 -13 0 -23 -14 -35 -50 -18 -53 -31 -67
-23 -25 12 62 -28 28 -56 -47 -9 -25 -24 -52 -32 -58 -17 -15 -17 -11 1 69 9
35 14 66 11 68 -9 10 -56 -66 -56 -90 0 -15 -4 -27 -10 -27 -5 0 -10 5 -10 10
0 6 -4 10 -10 10 -5 0 -10 -10 -10 -22 -1 -77 -29 -85 -125 -39 -49 24 -55 30
-35 32 60 4 72 7 83 18 8 8 2 12 -21 17 -18 4 -35 11 -38 15 -6 10 -9 10 78
12 71 2 106 19 78 37 -8 6 -27 7 -42 4 -30 -6 -39 10 -12 20 9 3 38 6 66 6 39
0 49 3 45 14 -3 8 1 20 9 26 21 18 18 25 -21 39 -32 11 -39 10 -71 -10 l-36
-22 7 24 c4 13 10 30 12 37 10 25 -17 11 -44 -24 -15 -20 -38 -48 -50 -63
l-23 -26 16 53 c10 34 12 58 6 69 -9 14 -10 14 -16 -4 -4 -11 -15 -28 -26 -38
-11 -10 -20 -28 -20 -40 0 -13 -7 -38 -15 -56 l-14 -34 -1 38 c0 21 7 52 16
68 19 38 15 73 -11 78 -13 2 -32 -11 -61 -44 l-41 -48 3 56 c1 31 5 61 9 67
12 19 -4 30 -30 20 -19 -7 -27 -6 -34 8 -9 15 -17 10 -60 -37 -55 -58 -57 -58
-39 0 6 22 8 42 5 45 -9 10 -77 -45 -77 -62 0 -7 -4 -14 -9 -14 -13 0 -23 18
-12 22 13 5 61 79 61 94 0 23 -25 16 -55 -16 -28 -29 -49 -32 -38 -5 6 16 -5
19 -23 7 -6 -4 -21 -26 -33 -49 -11 -23 -25 -44 -31 -48 -13 -8 -13 -5 4 43
13 35 13 42 0 53 -8 6 -14 17 -14 23 0 7 -6 20 -13 30 -11 14 -18 16 -33 8
-10 -6 -26 -13 -35 -15 -9 -3 -28 -30 -42 -59 -15 -30 -36 -63 -48 -74 l-21
-19 3 83 c4 84 -4 100 -31 67 -7 -9 -20 -13 -29 -10 -9 4 -22 -3 -33 -17 -10
-13 -18 -17 -18 -10 0 22 -29 13 -45 -15 -15 -26 -14 -16 1 22 10 24 -28 18
-70 -10 -20 -13 -36 -20 -36 -15 0 18 -25 10 -41 -13 -8 -12 -21 -38 -29 -57
-14 -38 -38 -70 -26 -35 4 11 10 34 13 50 l6 30 -23 -20 c-27 -23 -50 -74 -50
-109 0 -14 -5 -28 -11 -32 -9 -5 -10 9 -5 50 4 31 4 56 1 56 -15 0 -55 -46
-55 -63 0 -14 -5 -17 -20 -12 -15 5 -18 3 -14 -8 8 -22 -12 -30 -36 -15 -14 9
-20 20 -17 35 6 33 -11 28 -31 -8 -30 -54 -46 -71 -64 -64 -29 11 -28 32 7
139 19 58 39 134 46 168 6 35 13 69 15 76 7 23 37 9 62 -28 29 -44 38 -47 46
-15 5 21 10 24 33 19 34 -9 27 16 -10 34 -18 9 -27 21 -27 38 0 32 15 30 41
-6 15 -20 26 -27 34 -20 6 5 28 7 48 3 40 -6 47 2 20 22 -15 11 -15 15 -4 29
7 9 20 16 28 16 7 0 16 7 19 15 4 9 13 13 24 10 9 -3 23 2 30 10 11 14 10 17
-8 22 -13 3 -22 13 -22 24 0 22 -6 23 -48 8 -17 -6 -39 -9 -49 -7 -13 3 -8 9
20 21 20 9 37 21 37 26 0 6 21 11 48 11 41 1 45 2 29 14 -10 8 -15 20 -11 30
5 12 -1 18 -25 22 -30 6 -31 7 -15 25 23 25 13 33 -20 17 -23 -10 -29 -9 -36
3 -8 11 -1 15 35 17 47 3 57 14 28 31 -17 9 -17 10 0 17 10 4 28 1 40 -5 23
-12 104 -10 127 4 18 11 -7 25 -47 25 -18 0 -33 5 -33 10 0 13 12 13 100 -6
78 -16 120 -13 120 10 0 18 -43 36 -88 37 l-37 1 33 9 c28 8 42 6 87 -17 58
-28 98 -27 75 1 -18 22 -5 30 28 16 29 -12 77 -6 88 11 3 5 -2 20 -11 34 -14
22 -23 25 -55 22 -32 -3 -37 -1 -30 12 4 8 18 24 29 34 36 33 27 45 -25 33
-32 -8 -48 -17 -54 -32 -12 -32 -39 -55 -63 -55 -12 0 -17 4 -11 8 9 6 64 99
64 108 0 11 -40 1 -77 -20 -39 -23 -41 -23 -46 -5 -3 12 -14 19 -30 19 -31 0
-44 15 -21 24 12 5 15 14 10 36 -7 40 13 40 43 -1 18 -24 25 -28 36 -19 10 8
19 8 35 0 11 -6 33 -10 48 -8 27 3 27 3 7 20 -11 10 -29 25 -40 33 -14 12 -16
18 -7 21 6 3 12 10 12 16 0 7 -18 9 -50 5 -54 -7 -59 -3 -33 25 15 17 14 18
-21 18 -20 0 -50 -7 -66 -15 -41 -21 -38 -4 7 46 70 78 121 88 173 34 19 -20
40 -33 46 -31 7 3 20 -4 29 -14 13 -15 21 -17 35 -8 12 8 26 8 46 1 62 -21 73
7 14 37 -46 23 -49 32 -17 53 21 15 21 16 2 16 -11 1 -37 -4 -58 -10 -24 -6
-43 -7 -54 0 -14 8 -11 12 21 27 43 21 50 37 20 43 -10 2 -22 8 -26 14 -4 6
-16 2 -32 -11 -33 -25 -84 -38 -98 -24 -16 16 17 61 57 77 29 13 38 12 86 -8
30 -12 60 -28 67 -35 18 -17 52 -15 52 3 0 11 7 13 28 9 19 -4 38 2 62 18 45
30 46 53 3 52 -29 -2 -31 0 -20 17 19 30 1 32 -55 6 -59 -28 -134 -45 -123
-28 3 6 14 11 24 11 11 0 29 9 42 20 24 19 24 19 2 20 -12 0 -28 7 -37 15 -19
20 -23 19 -58 -10 -17 -14 -33 -23 -36 -20 -9 8 32 58 59 73 35 19 140 9 182
-17 42 -26 72 -28 63 -5 -6 15 0 16 40 10 40 -5 47 -3 51 14 3 11 14 20 24 20
10 0 21 5 25 11 11 19 -19 29 -64 23 -38 -6 -42 -4 -35 11 5 15 2 17 -18 13
-13 -3 -33 -9 -44 -14 -18 -7 -19 -6 -6 10 13 15 12 18 -7 23 -12 3 -22 9 -22
14 0 15 -24 10 -50 -11 -30 -24 -40 -25 -40 -5 0 35 45 66 104 72 l57 6 -7
-27 c-5 -23 -2 -28 22 -36 41 -15 48 -13 49 13 0 20 4 22 43 19 31 -2 44 2 48
13 4 8 13 15 21 15 18 0 13 34 -5 36 -6 1 -19 2 -27 3 -8 0 -15 8 -15 16 0 19
-37 19 -70 0 -29 -17 -70 -20 -70 -5 0 6 -6 10 -14 10 -7 0 -16 11 -18 25 -6
30 34 69 82 80 35 8 55 -5 64 -38 8 -32 72 -35 80 -5 3 15 11 19 25 15 13 -3
31 5 52 24 l32 28 -27 11 c-15 5 -34 10 -41 10 -9 0 -12 6 -8 16 5 14 0 15
-35 9 -35 -6 -42 -4 -42 9 0 20 -30 21 -56 1 -22 -17 -34 -19 -34 -5 0 21 49
33 154 35 80 1 120 6 143 18 41 22 50 37 22 37 -12 0 -27 7 -33 15 -10 13 -15
12 -44 -2 -32 -15 -50 -13 -39 5 4 4 24 14 46 22 33 11 43 11 56 0 20 -17 29
-7 17 17 -9 16 1 57 10 43 2 -3 12 -23 23 -45 16 -32 27 -41 55 -46 19 -3 46
-11 59 -18 21 -12 26 -11 36 3 17 22 48 20 70 -4 25 -28 37 -25 56 12 21 44
36 45 53 4 14 -33 46 -50 46 -25 0 7 10 5 25 -5 36 -24 43 -20 47 22 l3 37 17
-37 c16 -35 20 -38 59 -38 40 0 41 1 37 29 -4 26 -2 29 21 28 19 -2 27 3 29
18 2 17 9 20 40 17 20 -1 44 2 51 7 13 8 12 15 -4 46 -19 34 -21 35 -62 29
-27 -4 -43 -2 -43 4 0 13 25 22 61 22 23 0 32 6 40 26 5 15 8 27 7 28 -33 19
-62 25 -79 16 -34 -19 -43 1 -10 21 32 20 42 49 16 49 -8 0 -24 5 -35 12 -16
10 -23 9 -45 -12 l-25 -23 0 21 c0 34 -28 26 -44 -13 -16 -37 -42 -50 -31 -15
5 15 0 23 -20 32 -25 11 -25 13 -9 25 10 7 28 13 41 13 26 0 33 11 36 55 2 28
1 28 -46 28 -35 -1 -55 -7 -72 -23 -17 -16 -24 -18 -28 -8 -8 22 -38 -3 -51
-42 -8 -26 -23 -40 -59 -59 -33 -17 -51 -21 -58 -14 -15 15 27 43 63 43 17 0
31 7 38 19 14 27 13 31 -9 31 -23 0 -36 16 -21 25 6 4 32 10 57 13 54 8 79 35
51 56 -17 12 -17 14 2 31 11 10 20 24 20 32 0 16 0 16 -41 -1 -30 -13 -36 -13
-51 1 -15 13 -19 12 -38 -7 -16 -16 -21 -31 -18 -51 3 -16 0 -33 -6 -39 -8 -6
-12 13 -12 66 0 41 -3 77 -7 80 -3 3 -17 -2 -32 -12 -25 -16 -26 -16 -40 2 -8
10 -15 17 -15 14 0 -3 -9 -30 -19 -60 -16 -50 -18 -52 -25 -27 -9 37 -23 34
-43 -8 -16 -34 -33 -41 -41 -17 -2 6 18 34 44 62 35 37 44 54 36 62 -8 8 -8
17 -1 31 16 28 -1 37 -43 24 -30 -9 -38 -17 -38 -36 l0 -24 -27 28 c-26 25
-27 28 -10 40 10 7 49 16 88 20 72 7 94 27 44 39 -38 10 -21 25 36 32 38 5 59
15 85 39 39 37 42 45 14 45 -11 0 -23 7 -26 15 -9 22 -17 19 -64 -20 -48 -40
-48 -40 -46 -19 2 26 -21 28 -41 3 -10 -13 -31 -37 -48 -53 l-30 -31 -3 38
c-2 22 4 53 15 75 17 35 21 37 73 42 44 4 54 8 52 22 -2 11 5 18 19 20 32 4
35 26 4 34 l-26 6 30 19 c17 10 31 27 31 37 0 10 5 23 12 30 16 16 -17 28 -35
13 -10 -8 -17 -7 -25 1 -9 9 -15 7 -27 -8 -8 -10 -15 -25 -15 -31 0 -18 -11
-16 -25 4 -11 15 -16 11 -41 -38 -26 -50 -29 -52 -32 -27 -2 15 6 48 17 74 12
26 21 52 21 59 0 6 13 32 29 56 16 24 27 48 23 54 -4 5 -5 18 -4 28 3 13 -4
17 -26 17 -34 0 -46 -12 -61 -60 -11 -35 -11 -35 -6 10 3 25 8 63 11 85 6 35
5 38 -9 27 -13 -11 -16 -10 -19 10 -2 13 -7 21 -11 20 -5 -2 -22 9 -38 24
l-29 28 0 -32 c0 -25 -4 -32 -20 -32 -26 0 -25 -14 6 -67 30 -52 27 -62 -12
-37 l-27 18 7 -27 c4 -16 2 -27 -4 -27 -21 0 -9 -18 21 -30 36 -15 62 -51 57
-77 -3 -14 -9 -10 -27 20 -16 26 -30 37 -46 37 -13 0 -27 5 -30 10 -9 15 -35
12 -35 -3 0 -8 9 -22 20 -32 12 -10 19 -24 16 -31 -3 -7 2 -18 10 -24 19 -17
18 -30 -3 -30 -16 -1 -16 -2 1 -15 11 -8 34 -17 52 -21 33 -6 44 -29 44 -90 0
-37 -14 -28 -30 19 -15 41 -38 53 -32 15 5 -31 -12 -20 -41 27 -28 44 -57 60
-57 31 0 -12 -5 -12 -30 -3 -23 9 -33 8 -42 -2 -11 -10 -6 -19 26 -47 31 -27
35 -34 20 -34 -19 -1 -19 -1 0 -15 11 -8 30 -15 43 -15 29 0 30 -18 1 -22 -12
-2 -23 -9 -26 -15 -3 -10 14 -13 62 -13 35 0 67 -4 70 -9 4 -5 -12 -7 -36 -3
-39 5 -42 4 -29 -11 7 -10 25 -23 39 -30 14 -6 30 -19 35 -28 10 -17 2 -69
-11 -69 -16 0 -69 57 -88 95 -12 26 -25 39 -35 37 -10 -1 -19 7 -23 21 -6 26
-82 92 -90 78 -11 -17 3 -74 23 -95 25 -27 26 -36 5 -36 -24 0 -9 -15 49 -49
60 -35 92 -59 86 -65 -2 -2 -21 -6 -41 -10 -34 -6 -38 -5 -38 13 0 29 -47 80
-58 63 -6 -9 -16 -2 -36 28 -22 34 -31 40 -49 34 -32 -9 -43 -22 -30 -35 6 -6
9 -17 7 -24 -3 -6 5 -17 18 -23 l23 -11 -22 0 c-37 -1 -26 -19 20 -32 23 -6
52 -14 65 -18 28 -8 32 -25 7 -30 -11 -2 -25 -11 -32 -20 -11 -15 -14 -15 -42
2 -28 16 -31 16 -31 2 0 -12 -6 -15 -20 -10 -25 8 -26 -2 -3 -27 14 -16 15
-21 3 -28 -10 -6 -11 -12 -2 -22 16 -20 -2 -46 -21 -29 -22 18 -30 -2 -22 -51
5 -29 4 -39 -4 -34 -6 4 -9 12 -5 17 3 6 -3 13 -15 16 -22 6 -27 18 -11 28 6
3 10 13 10 21 0 11 -6 13 -20 9 -18 -6 -20 -3 -14 19 8 33 -8 34 -33 3 -10
-13 -24 -22 -31 -19 -6 2 -12 -5 -13 -15 0 -16 -1 -16 -8 2 -7 18 -9 18 -33
-6 -19 -19 -30 -24 -42 -17 -12 6 -16 5 -16 -6 0 -17 -34 -31 -50 -21 -6 4
-18 -11 -27 -34 -13 -33 -20 -40 -35 -35 -13 4 -18 0 -19 -13 0 -10 -2 -39 -3
-65 -1 -26 -5 -50 -9 -55 -12 -12 -28 19 -22 45 5 22 -8 31 -20 12 -3 -6 -11
-10 -16 -10 -6 0 1 14 15 31 29 34 32 45 15 51 -9 3 -9 10 0 27 17 30 7 58
-14 41 -11 -9 -18 -10 -29 -1 -11 9 -16 0 -25 -49 l-12 -61 -20 23 c-14 16
-22 19 -25 10 -3 -6 -9 -10 -14 -7 -15 9 8 76 35 96 14 12 25 28 23 37 -2 9
13 31 32 50 32 30 33 33 10 26 -21 -6 -17 1 21 38 64 61 80 116 28 87 l-23
-12 19 29 c10 16 29 46 43 66 26 39 42 118 24 118 -6 0 -12 -6 -15 -12 -2 -7
-4 15 -3 49 1 35 -4 67 -11 74 -17 17 -49 -54 -52 -116 -3 -59 -8 -68 -16 -29
-4 16 -11 40 -17 54 -9 23 -10 23 -20 6 -5 -10 -8 -31 -6 -47 3 -20 0 -29 -9
-29 -15 0 -9 -36 8 -55 14 -14 10 -107 -5 -134 -13 -23 -13 -21 -20 27 -8 63
-51 146 -62 118 -4 -10 -2 -33 4 -52 9 -31 8 -33 -12 -31 -18 2 -21 -2 -18
-28 2 -16 14 -41 27 -55 13 -14 25 -32 27 -40 3 -14 -38 -90 -48 -90 -2 0 -2
29 1 65 3 36 1 65 -3 65 -5 0 -14 12 -21 28 l-13 27 -11 -28 c-7 -16 -16 -29
-22 -30 -13 -3 -7 -52 11 -96 16 -39 18 -71 4 -71 -5 0 -10 12 -10 26 0 29
-16 64 -30 64 -6 0 -10 -7 -10 -15 0 -8 -4 -15 -10 -15 -12 0 -13 -37 -1 -44
14 -9 21 -64 11 -88 -8 -21 -9 -19 -10 12 0 33 -15 70 -22 60 -18 -26 -37 -86
-33 -104 l6 -21 -19 22 c-17 19 -20 45 -26 213 -8 216 -6 226 52 215 28 -5 34
-3 39 13 2 11 23 29 46 42 52 28 87 59 87 77 0 20 -27 16 -49 -9 -17 -18 -23
-19 -36 -8 -22 18 -10 46 36 90 27 26 39 45 39 65 l0 28 -25 -23 -25 -23 0 21
c0 26 -12 28 -30 7 -17 -20 -27 -19 -35 5 -9 28 -16 25 -43 -17 -17 -26 -22
-45 -18 -67 3 -17 1 -38 -4 -46 -8 -12 -10 -9 -10 13 0 33 -13 35 -28 5 -9
-20 -11 -18 -11 23 -1 36 4 50 24 69 13 12 22 27 19 32 -3 5 2 18 11 28 25 27
10 45 -21 25 -42 -28 -26 2 25 45 47 39 70 74 57 87 -3 4 -14 -1 -24 -10 -21
-19 -37 -23 -27 -7 4 6 23 19 44 30 21 10 46 31 55 45 19 28 14 47 -6 27 -18
-18 -33 -15 -18 3 7 9 32 20 57 26 24 7 60 25 80 41 34 27 41 28 102 24 36 -3
82 -8 101 -12 27 -4 43 0 69 18 52 35 52 50 -1 42 -41 -7 -42 -6 -28 11 14 17
13 18 -10 11 -57 -17 -65 -14 -62 27 4 47 -8 47 -47 0 l-31 -38 6 33 c8 40
-17 45 -34 7 -14 -30 -32 -34 -25 -5 9 33 -21 24 -34 -10 -16 -42 -48 -40 -74
5 -12 19 -25 35 -30 35 -5 0 -9 -25 -9 -56 0 -67 -24 -72 -26 -6 -2 55 -10 73
-29 66 -9 -4 -15 -1 -15 9 0 8 -7 20 -15 27 -42 35 -23 -89 25 -156 27 -38 29
-54 8 -54 -4 0 -15 17 -23 38 -23 54 -67 114 -77 104 -13 -13 9 -110 32 -142
23 -32 25 -40 9 -40 -5 0 -15 14 -21 30 -5 17 -18 35 -28 40 -26 14 -30 13
-23 -6 4 -12 2 -15 -8 -12 -15 5 -22 43 -39 208 -5 58 -13 122 -16 142 -5 32
-1 42 32 82 27 33 43 44 56 40 11 -3 18 0 18 7 0 7 8 21 17 31 15 16 15 21 3
28 -12 7 -11 13 7 32 15 17 19 31 16 56 -3 17 -11 32 -18 32 -23 0 -79 -28
-104 -51 l-24 -23 7 30 c4 16 14 36 22 45 8 8 14 19 14 23 0 11 49 76 94 124
70 74 186 152 228 152 18 0 58 28 58 41 0 7 -12 8 -31 4 -17 -4 -34 -3 -38 2
-3 6 -18 13 -32 16 -23 6 -27 3 -33 -23 -6 -34 -36 -42 -36 -10 0 23 -15 27
-24 5 -3 -8 -12 -15 -21 -15 -9 0 -15 -9 -15 -22 0 -16 -3 -19 -11 -11 -9 9
-19 6 -39 -9 -24 -17 -28 -26 -24 -57 l4 -36 -11 38 c-6 21 -18 41 -27 44 -22
9 -52 -33 -52 -73 0 -23 -4 -32 -13 -29 -7 3 -22 -16 -36 -47 l-24 -53 -14 32
c-7 18 -18 115 -24 220 -10 165 -9 193 4 226 15 35 18 36 43 27 38 -15 58 -6
45 19 -8 14 -7 22 4 31 11 9 12 16 3 30 -15 24 2 46 42 55 16 4 39 14 52 24
29 23 138 36 138 16 0 -7 -7 -16 -16 -19 -24 -9 -5 -28 24 -23 15 2 21 2 15 0
-14 -5 -18 -23 -5 -23 5 0 19 -10 31 -21 18 -17 20 -23 9 -31 -8 -6 -9 -11 -3
-14 35 -15 80 -44 78 -51 -1 -4 -4 -15 -8 -24 -5 -12 2 -18 25 -23 25 -4 38 0
66 22 19 15 37 35 40 45 3 9 10 17 15 17 12 0 12 -27 -1 -35 -6 -4 -8 -15 -5
-25 3 -10 1 -21 -5 -25 -16 -10 -12 -22 12 -28 20 -6 20 -7 5 -31 -16 -23 -16
-25 3 -31 11 -4 20 -15 20 -27 0 -27 21 -18 45 20 25 40 59 41 98 5 l29 -28
22 28 c23 29 23 29 57 12 25 -14 37 -15 51 -6 10 6 27 11 38 11 14 0 19 4 13
12 -4 7 -7 22 -8 33 0 17 -7 20 -52 20 -29 -1 -53 3 -53 7 0 4 13 8 30 8 27 0
100 50 100 69 0 3 -14 12 -31 20 -28 12 -32 12 -58 -13 -32 -31 -45 -33 -38
-6 4 16 0 20 -18 20 -12 0 -34 -9 -48 -20 -31 -24 -37 -25 -82 -3 -49 23 -44
37 11 29 55 -7 92 8 73 30 -9 11 -5 17 25 29 31 13 36 20 36 49 0 32 -2 34
-35 34 -25 0 -40 -6 -50 -21 l-15 -21 0 23 c0 12 9 34 20 48 29 37 26 63 -6
63 -35 0 -61 -16 -78 -48 -12 -21 -15 -23 -16 -9 0 11 9 32 20 48 18 24 19 31
8 49 -8 12 -23 20 -40 20 -22 0 -31 -7 -42 -35 -19 -46 -38 -47 -24 -1 12 39
4 86 -16 86 -7 0 -25 -22 -40 -50 -27 -49 -42 -66 -29 -34 3 9 0 20 -7 24 -11
7 -11 14 -3 32 8 18 7 28 -2 42 -19 25 -48 16 -59 -19 -5 -17 -11 -37 -14 -45
-3 -8 -10 8 -17 36 -7 28 -16 57 -20 63 -11 19 -33 -6 -50 -58 l-14 -46 1 40
c2 45 -6 65 -26 65 -12 0 -27 -42 -32 -93 -2 -27 -14 -33 -14 -7 0 19 -2 21
-15 10 -13 -11 -14 -10 -9 4 3 9 3 23 0 32 -9 24 -76 -45 -76 -79 0 -16 -12
-37 -32 -56 -18 -17 -34 -28 -36 -27 -4 5 71 155 116 231 107 181 158 260 229
357 215 294 329 466 421 631 33 60 63 111 66 115 4 3 22 -13 41 -35 21 -25 43
-41 57 -41 26 0 75 -7 128 -17 20 -3 48 -1 65 5 l30 11 -31 28 c-16 15 -28 33
-26 39 2 7 -7 12 -23 12 -22 0 -25 3 -20 21 6 19 4 20 -32 13 -31 -5 -36 -4
-25 7 6 7 12 22 12 32 0 14 -4 17 -17 12 -14 -6 -113 -15 -113 -10 0 0 12 25
28 55 21 42 38 61 81 85 29 17 65 45 80 61 14 17 42 35 61 40 27 8 34 15 33
32 -2 16 4 21 25 24 18 2 27 9 26 19 -1 14 6 16 37 12 30 -4 40 -2 45 11 4 10
18 16 41 16 26 0 34 4 30 14 -3 8 3 22 14 32 31 28 23 37 -27 31 -45 -5 -45
-4 -39 20 5 23 4 25 -17 19 -13 -3 -29 -6 -36 -6 -7 0 -22 -20 -34 -45 -27
-56 -40 -58 -32 -5 6 37 5 40 -16 38 -45 -6 -29 18 34 49 36 18 73 39 83 47
10 8 62 51 116 95 54 45 111 88 125 95 15 8 38 26 51 40 14 14 30 26 36 26 23
0 63 57 75 107 13 58 5 136 -16 154 -11 9 -18 8 -32 -5 -25 -22 -59 -20 -67 4
-8 24 -14 25 -43 4 -13 -9 -26 -14 -28 -11 -9 9 15 46 36 57 14 7 20 21 20 44
0 39 -20 62 -39 43 -9 -9 -13 -7 -17 11 -8 29 -28 28 -49 -4 -13 -21 -19 -23
-31 -13 -25 20 -28 1 -10 -56 9 -30 14 -60 11 -65 -11 -17 -25 -11 -25 11 0
29 -18 59 -35 59 -18 0 -20 51 -5 81 10 17 6 21 -22 33 -40 17 -45 15 -53 -27
-7 -38 -25 -77 -36 -77 -4 0 -16 16 -28 35 -14 25 -27 35 -45 35 -27 0 -31 -9
-41 -80 -6 -43 -9 -46 -38 -48 -17 -2 -33 -5 -36 -7 -2 -3 -6 -30 -9 -61 -4
-49 0 -65 27 -119 29 -56 32 -70 32 -152 l0 -91 -63 -64 -63 -65 -17 33 c-10
20 -13 36 -8 39 17 10 11 44 -9 55 -11 5 -31 10 -46 10 -24 0 -25 2 -20 34 7
32 5 34 -27 41 -18 4 -41 13 -50 20 -17 11 -16 13 7 35 14 13 35 49 46 81 l21
57 27 -16 c26 -15 30 -14 59 7 42 29 57 58 42 76 -7 8 -9 19 -6 24 4 6 -6 18
-21 28 -15 9 -30 18 -32 20 -3 2 5 17 17 33 12 16 22 37 22 47 0 13 3 14 12 5
7 -7 25 -12 40 -12 15 0 28 -4 28 -10 0 -14 36 -12 47 3 6 6 13 29 16 49 6 39
-10 68 -38 68 -9 0 -12 6 -8 16 10 27 -53 81 -110 95 -51 12 -51 12 -77 -20
l-27 -31 -19 21 c-34 38 -93 80 -124 89 -25 7 -35 4 -58 -15 -20 -16 -33 -21
-43 -14 -24 15 -65 10 -83 -10 -10 -11 -15 -24 -12 -29 3 -6 -1 -12 -9 -16 -8
-3 -15 -13 -15 -22 0 -10 -6 -14 -14 -11 -20 8 -95 -21 -130 -50 -16 -14 -40
-29 -53 -34 -29 -11 -30 -35 -2 -49 16 -9 18 -14 8 -26 -14 -17 -39 -1 -39 26
0 10 -7 20 -15 24 -21 8 -19 18 12 65 20 31 33 41 53 41 14 0 34 6 44 13 25
18 8 49 -34 67 -27 11 -29 15 -18 27 8 7 32 14 54 14 21 1 47 3 56 5 25 7 33
60 13 90 -15 23 -22 25 -72 23 -56 -3 -57 -3 -68 31 -17 52 -90 77 -126 44
-16 -14 -17 -13 -16 21 1 41 -18 62 -65 72 -21 4 -28 11 -28 30 0 13 -8 27
-17 31 -11 4 -18 18 -18 32 0 31 -25 33 -36 3 -6 -16 -5 -23 4 -24 7 0 1 -5
-12 -10 -20 -8 -31 -6 -53 11 -32 24 -61 26 -78 5 -18 -22 -4 -61 30 -87 18
-13 30 -31 30 -45 0 -20 -4 -23 -40 -21 -60 2 -90 -35 -57 -72 6 -8 -2 -2 -20
14 -24 22 -38 27 -57 22 -36 -9 -40 7 -16 71 14 37 19 66 14 86 -6 28 -5 29
22 23 33 -7 46 0 63 32 14 26 7 42 -17 42 -13 0 -17 9 -17 33 0 26 -4 33 -23
35 -13 2 -34 -4 -47 -12 -34 -22 -37 -21 -29 19 5 28 3 35 -10 35 -9 0 -19 -6
-22 -14z m-75 -228 c-13 -49 -11 -111 6 -152 15 -35 15 -37 -2 -27 -43 23 -68
80 -43 96 6 3 10 22 10 41 0 37 15 74 30 74 5 0 5 -14 -1 -32z m-159 -74 c0
-22 -2 -24 -14 -14 -8 6 -12 18 -9 26 9 23 23 16 23 -12z m-105 -28 c22 -20
23 -25 10 -36 -21 -18 -19 -57 5 -70 29 -16 24 -30 -10 -30 -32 0 -33 3 -44
87 -3 23 -9 48 -12 57 -9 24 21 20 51 -8z m-206 -218 l29 -33 -29 -12 c-16 -7
-29 -18 -29 -25 0 -29 32 -58 70 -64 21 -4 41 -12 44 -20 6 -17 -14 -31 -23
-16 -4 6 -23 18 -43 27 -42 17 -58 40 -58 84 0 16 -4 41 -9 54 -10 25 -6 37
11 37 4 0 21 -15 37 -32z m-389 -188 c0 -5 -8 -10 -17 -10 -10 0 -28 -3 -39
-6 -14 -4 -23 0 -27 10 -5 13 2 16 38 16 25 0 45 -4 45 -10z m2077 -30 c12 0
13 -3 4 -14 -8 -10 -6 -19 10 -40 23 -30 15 -34 -21 -9 -31 21 -40 33 -40 57
0 12 5 16 16 12 9 -3 23 -6 31 -6z m-1972 -145 c0 -24 -24 -30 -49 -12 -25 18
-12 39 22 35 19 -2 27 -9 27 -23z m49 -60 l23 -15 -20 -41 c-17 -36 -23 -40
-46 -34 -41 10 -49 25 -14 25 44 0 59 22 38 54 -20 30 -14 33 19 11z m2381
-81 c-7 -17 -19 -43 -27 -58 l-15 -29 -10 42 c-10 39 -9 44 21 80 29 35 31 36
37 17 3 -12 0 -35 -6 -52z m115 1 c0 -41 -5 -50 -46 -91 -26 -24 -55 -49 -66
-55 -18 -10 -19 -8 -13 13 15 48 38 89 77 133 22 25 42 45 44 45 2 0 4 -20 4
-45z m-214 22 c3 -8 0 -26 -6 -42 -14 -38 -35 -19 -25 24 7 32 22 41 31 18z
m310 -61 c8 -21 -35 -135 -64 -171 -29 -35 -127 -106 -196 -142 -43 -22 -48
-23 -41 -6 4 10 13 37 21 60 20 66 31 80 87 117 29 18 79 61 112 95 63 64 72
70 81 47z m64 -3 c0 -5 -8 -17 -17 -28 -14 -18 -15 -18 -9 -2 3 10 6 23 6 28
0 5 5 9 10 9 6 0 10 -3 10 -7z m-2865 -23 c3 -6 -5 -10 -19 -10 -14 0 -28 5
-31 10 -3 6 5 10 19 10 14 0 28 -4 31 -10z m154 -13 c8 -11 6 -18 -9 -32 -22
-20 -27 -73 -10 -106 11 -19 44 -26 54 -11 6 11 122 -6 164 -24 18 -8 43 -14
55 -14 12 0 28 -4 35 -8 14 -9 1 -23 -50 -55 -26 -16 -27 -21 -22 -65 5 -33
15 -56 35 -77 l28 -29 25 23 25 24 31 -27 c17 -14 35 -26 39 -26 26 0 74 37
89 68 22 47 39 50 93 15 40 -25 52 -44 132 -203 88 -178 149 -310 162 -352 4
-13 22 -62 41 -109 26 -69 35 -108 42 -200 12 -157 2 -353 -18 -357 -24 -4
-65 65 -61 103 3 36 -16 56 -30 34 -8 -11 -13 -9 -29 10 -11 13 -20 29 -20 37
0 15 -43 64 -56 64 -5 0 -32 35 -61 78 -29 42 -78 106 -109 142 -31 36 -66 76
-78 90 -83 95 -230 255 -284 309 -72 73 -133 158 -167 234 -121 272 -126 285
-119 334 6 51 41 143 54 143 4 0 13 -6 19 -13z m931 -89 c0 -26 -3 -48 -7 -48
-5 0 -18 18 -30 39 -17 29 -21 48 -17 71 l7 31 23 -22 c19 -18 24 -33 24 -71z
m155 51 c18 -33 15 -41 -34 -95 l-35 -38 -14 33 c-7 18 -12 54 -10 80 3 42 5
46 33 52 37 7 42 5 60 -32z m825 22 c17 -33 12 -42 -17 -35 -42 10 -46 14 -27
35 22 24 31 24 44 0z m445 -61 c-5 -102 -26 -127 -23 -30 2 85 6 112 19 104 5
-2 7 -36 4 -74z m-2642 -18 c17 -48 15 -50 -19 -23 -15 11 -20 22 -14 26 5 3
10 16 10 27 0 28 6 21 23 -30z m167 27 c0 -11 -4 -18 -10 -14 -5 3 -7 12 -3
20 7 21 13 19 13 -6z m856 -3 c3 -13 4 -34 2 -47 -3 -21 -6 -19 -30 18 -19 29
-24 43 -15 46 25 11 37 6 43 -17z m61 -92 c3 -63 2 -67 -12 -50 -19 25 -21
130 -2 124 8 -3 13 -29 14 -74z m-1147 36 c0 -5 29 -26 65 -47 35 -20 63 -39
60 -41 -7 -7 -73 19 -99 39 -31 24 -52 59 -36 59 5 0 10 -4 10 -10z m1243 -57
c23 -46 38 -93 46 -147 6 -43 9 -81 7 -83 -2 -2 -27 24 -56 59 -48 60 -51 65
-46 107 3 24 6 63 6 87 0 24 2 44 4 44 2 0 20 -30 39 -67z m-155 -49 c29 -44
52 -91 52 -105 l0 -24 -20 25 c-38 49 -124 229 -93 195 5 -5 33 -46 61 -91z
m463 62 c24 -30 70 -42 101 -25 13 7 28 14 33 15 6 1 17 5 26 9 10 3 20 2 23
-3 3 -5 -9 -13 -28 -16 -44 -8 -106 -77 -106 -117 0 -26 4 -29 40 -35 30 -5
40 -11 40 -25 0 -11 17 -26 46 -41 67 -33 85 -63 90 -157 5 -70 3 -85 -19
-128 -14 -27 -55 -86 -92 -131 -117 -145 -170 -228 -265 -410 -23 -45 -28 -49
-32 -30 -6 35 -13 291 -13 513 l0 200 42 105 c52 131 83 233 83 271 0 35 6 36
31 5z m-71 11 c0 -11 -93 -264 -100 -270 -4 -5 -11 23 -15 61 -6 66 -5 75 23
129 16 32 40 64 53 70 23 12 39 16 39 10z m-1280 -17 c0 -5 -5 -10 -11 -10 -5
0 -7 5 -4 10 3 6 8 10 11 10 2 0 4 -4 4 -10z m1140 -27 c0 -7 -4 -13 -10 -13
-5 0 -10 12 -10 28 0 21 2 24 10 12 5 -8 10 -21 10 -27z m-319 -49 c20 -32 35
-61 34 -62 -11 -12 -80 53 -96 88 -24 52 -24 51 4 41 12 -4 38 -35 58 -67z
m-81 4 c0 -5 -9 -4 -20 2 -21 11 -25 22 -13 34 8 7 33 -21 33 -36z m1685 -33
c-8 -71 -94 -220 -107 -186 -4 12 -14 21 -23 21 -8 0 -15 3 -15 7 0 12 33 43
47 43 19 0 16 17 -4 29 -16 8 -14 11 10 22 21 9 24 15 16 26 -9 10 -5 14 20
19 31 7 41 27 19 40 -7 5 -5 11 7 21 32 23 38 15 30 -42z m-2331 -66 c21 -41
48 -96 58 -124 19 -50 19 -50 -1 -30 -34 34 -121 187 -121 212 0 42 23 21 64
-58z m2187 9 c-14 -24 -18 -25 -32 -12 -8 8 -21 14 -27 14 -7 0 -12 6 -12 13
0 8 15 12 43 12 l43 0 -15 -27z m-1238 -92 c26 -35 52 -78 57 -95 10 -36 25
-198 17 -191 -2 3 -17 37 -32 75 -15 39 -45 105 -66 148 -36 72 -50 127 -31
127 4 0 29 -29 55 -64z m1199 18 c3 -3 -1 -18 -8 -34 -8 -15 -17 -66 -20 -112
-5 -82 -39 -202 -54 -193 -4 3 -19 -4 -33 -15 l-26 -20 -6 20 c-4 12 -2 26 3
33 6 7 8 24 5 39 -5 24 -9 26 -41 24 -29 -1 -42 -9 -60 -36 -13 -19 -26 -35
-30 -35 -11 0 -11 69 0 89 10 18 7 19 -28 13 -29 -5 -48 -17 -76 -49 -37 -43
-37 -43 -38 -15 0 35 -12 34 -42 -1 -15 -18 -38 -31 -61 -35 -20 -3 -37 -4
-37 -2 0 9 249 170 297 192 30 14 74 40 98 59 35 27 51 32 74 28 25 -5 32 -2
45 25 16 30 27 37 38 25z m204 -29 c8 -31 -2 -58 -19 -53 -14 5 -21 42 -13 64
8 22 25 17 32 -11z m-1457 -137 c56 -119 118 -296 126 -359 6 -52 10 -58 -81
151 -36 85 -84 190 -105 233 l-39 77 26 0 c23 0 31 -11 73 -102z m733 3 c18
-31 18 -34 2 -52 -26 -29 -42 -23 -54 20 -19 73 17 96 52 32z m598 -51 c0 -5
-7 -10 -16 -10 -8 0 -12 5 -9 10 3 6 10 10 16 10 5 0 9 -4 9 -10z m-445 -188
c30 -36 55 -42 55 -12 0 29 16 24 39 -12 43 -68 39 -65 53 -45 11 15 17 16 39
5 l25 -12 -71 -125 c-72 -127 -221 -356 -359 -551 -130 -184 -313 -454 -330
-488 -10 -19 -20 -32 -22 -29 -3 3 0 14 7 25 12 18 10 24 -13 45 -31 29 -48
19 -48 -29 0 -28 -3 -32 -26 -30 l-26 1 6 175 c3 96 9 200 11 230 3 30 7 100
9 155 3 95 6 104 45 180 22 44 41 83 41 86 0 12 95 165 154 249 117 166 204
223 328 217 49 -3 59 -7 83 -35z m-1065 -786 c0 -3 -4 -8 -10 -11 -5 -3 -10
-1 -10 4 0 6 5 11 10 11 6 0 10 -2 10 -4z m-80 -31 c-33 -19 -49 -19 -24 0 10
8 26 14 34 14 9 0 4 -6 -10 -14z m487 -562 c-5 -52 -12 -72 -21 -62 -2 2 -1
37 1 78 5 55 8 69 16 56 5 -10 7 -42 4 -72z m378 -63 c4 -6 -5 -10 -19 -10
-14 0 -26 5 -26 10 0 6 9 10 19 10 11 0 23 -4 26 -10z m65 -35 c14 -16 10 -18
-14 -9 -9 3 -16 10 -16 15 0 14 16 11 30 -6z m133 8 c-7 -2 -19 -2 -25 0 -7 3
-2 5 12 5 14 0 19 -2 13 -5z m-75 -65 c-3 -7 -13 -15 -24 -17 -16 -3 -17 -1
-5 13 16 19 34 21 29 4z m157 2 c-3 -5 -12 -10 -20 -10 -8 0 -17 5 -20 10 -4
6 5 10 20 10 15 0 24 -4 20 -10z m-124 -71 c-35 -28 -46 -23 -19 10 15 19 27
25 33 19 7 -6 2 -16 -14 -29z m199 -147 c-1 -13 -6 -11 -25 11 -14 15 -25 36
-25 45 1 13 6 11 25 -11 14 -15 25 -36 25 -45z m-1224 -218 c-4 -9 -9 -15 -11
-12 -3 3 -3 13 1 22 4 9 9 15 11 12 3 -3 3 -13 -1 -22z m221 -252 c9 -11 9
-19 0 -34 -10 -16 -9 -22 8 -37 11 -9 25 -26 31 -36 7 -13 22 -20 40 -20 32 0
57 -12 49 -24 -2 -5 -27 -4 -55 2 -35 7 -54 16 -62 31 -6 12 -23 33 -39 48
-41 38 -41 127 0 96 9 -7 21 -18 28 -26z m-142 -112 c-3 -5 -1 -10 4 -10 20 0
11 -15 -18 -32 -29 -16 -30 -16 -40 12 -8 24 -7 30 7 33 32 9 53 7 47 -3z m34
-82 c9 -25 3 -45 -9 -31 -14 15 -22 53 -10 53 6 0 14 -10 19 -22z m458 -6
c-16 -15 -19 -15 -27 -2 -7 11 -4 16 13 21 30 8 34 2 14 -19z m-344 1 c-7 -2
-21 -2 -30 0 -10 3 -4 5 12 5 17 0 24 -2 18 -5z m-198 -23 c24 -16 26 -20 12
-26 -21 -8 -99 17 -105 34 -6 20 59 14 93 -8z m343 -26 c42 -29 49 -52 87
-299 7 -49 21 -165 31 -257 17 -162 17 -169 -1 -188 -30 -33 -37 -24 -30 39 4
36 3 67 -4 78 -9 16 -11 14 -17 -15 -9 -45 -24 -51 -24 -9 0 43 -19 99 -31 91
-5 -3 -9 -18 -9 -34 0 -15 -5 -30 -10 -32 -7 -2 -7 -15 0 -38 8 -27 7 -36 -4
-42 -9 -5 -12 -16 -8 -30 5 -21 4 -22 -12 -9 -13 11 -15 23 -10 60 3 25 13 61
20 80 12 28 12 38 0 65 -7 17 -18 42 -23 56 l-10 25 -11 -22 c-15 -28 -18 -77
-8 -127 6 -34 5 -38 -10 -32 -13 5 -15 2 -11 -13 3 -14 1 -18 -10 -14 -12 5
-14 16 -7 57 14 84 11 153 -7 171 -15 15 -17 11 -23 -50 -4 -36 -4 -70 -1 -76
4 -5 0 -16 -8 -23 -27 -28 -36 1 -30 97 5 75 3 95 -12 123 -10 19 -22 34 -26
34 -15 0 -20 -45 -9 -75 8 -21 8 -30 -1 -35 -7 -5 -9 -21 -5 -41 5 -32 5 -32
-15 10 -21 43 -21 46 -4 101 9 31 16 65 14 75 -7 31 -28 28 -44 -7 l-15 -33 4
37 c5 41 -1 53 -19 38 -25 -21 -25 65 0 125 29 72 31 73 45 31 6 -19 17 -40
25 -46 12 -10 17 -7 25 15 l11 28 23 -22 c23 -22 25 -22 34 -4 5 10 7 24 5 31
-3 7 1 10 9 7 7 -3 22 1 33 10 20 15 20 15 1 30 -15 11 -16 17 -7 28 6 8 9 22
5 31 -5 13 1 16 38 16 24 0 54 -7 66 -16z m-491 -52 c0 -10 -7 -24 -14 -31
-10 -9 -13 -7 -13 13 0 13 6 27 13 29 6 3 13 6 14 6 1 1 1 -7 0 -17z m-77 -28
c0 -16 -16 -19 -25 -4 -8 13 4 32 16 25 5 -4 9 -13 9 -21z m123 9 c-7 -2 -19
-2 -25 0 -7 3 -2 5 12 5 14 0 19 -2 13 -5z m-98 -92 c-8 -13 -35 -15 -35 -2 0
5 8 11 18 13 21 5 26 2 17 -11z m165 -5 c0 -3 -4 -16 -10 -31 -7 -19 -6 -27 3
-30 17 -7 17 -105 0 -105 -28 0 -10 -53 36 -105 20 -23 21 -25 3 -11 -12 11
-25 16 -28 13 -15 -14 23 -72 68 -104 50 -36 62 -50 28 -33 -11 5 -29 15 -40
20 -24 12 -40 6 -40 -16 0 -12 -4 -12 -20 -4 -13 7 -20 21 -20 41 0 24 -4 29
-17 25 -27 -8 -52 34 -64 111 -16 98 -16 115 0 121 10 3 12 -1 8 -19 -3 -12
-2 -28 3 -33 4 -6 10 -24 12 -41 1 -16 7 -30 13 -30 15 0 39 56 38 90 0 17 -4
56 -8 88 -7 54 -7 57 14 57 11 0 21 -2 21 -4z m-100 -60 c0 -3 -4 -8 -10 -11
-5 -3 -10 -1 -10 4 0 6 5 11 10 11 6 0 10 -2 10 -4z m-278 -18 c-22 -22 -14
-41 13 -34 15 4 25 2 25 -4 0 -6 -24 -10 -60 -9 -33 1 -60 5 -60 9 0 7 71 49
85 50 5 0 4 -5 -3 -12z m146 0 c-5 -15 -58 -24 -58 -9 0 9 20 17 48 20 8 0 12
-5 10 -11z m58 -113 c-4 -25 -12 -43 -17 -39 -9 5 -3 68 8 87 11 19 15 -5 9
-48z m-236 -15 c-8 -5 -17 -7 -19 -4 -3 3 1 9 9 14 8 5 17 7 19 4 3 -3 -1 -9
-9 -14z m96 5 c6 -14 -11 -45 -25 -45 -3 0 -13 4 -21 10 -12 7 -12 12 4 29 23
25 35 26 42 6z m90 -57 c-8 -40 -23 -57 -31 -36 -8 19 11 68 26 68 8 0 9 -11
5 -32z m-273 -13 c-4 -15 -36 -12 -41 3 -3 9 3 13 19 10 13 -1 23 -7 22 -13z
m1152 -45 l29 -30 -32 0 c-26 0 -35 5 -42 26 -13 32 -13 34 3 34 7 0 26 -13
42 -30z m-565 -11 c0 -6 -4 -7 -10 -4 -5 3 -10 11 -10 16 0 6 5 7 10 4 6 -3
10 -11 10 -16z m-204 -7 c-4 -12 1 -26 14 -37 11 -10 20 -27 20 -38 0 -11 7
-29 17 -39 9 -10 13 -21 8 -26 -4 -4 -17 6 -29 23 -23 32 -51 60 -84 87 -22
18 -29 38 -13 38 5 0 12 -10 15 -22 l7 -23 21 28 c26 32 32 34 24 9z m774 -49
c3 -3 -3 -10 -13 -17 -10 -8 -17 -26 -17 -46 0 -47 -6 -34 -13 28 -6 51 -5 53
16 46 12 -3 24 -9 27 -11z m-1368 -37 c9 -13 -10 -26 -41 -26 -17 0 -22 4 -17
16 3 9 6 19 6 24 0 11 43 0 52 -14z m558 -36 c0 -13 -13 -13 -45 2 -25 11 -30
19 -19 31 9 8 64 -21 64 -33z m199 -32 c12 -15 11 -18 -2 -18 -22 0 -57 39
-57 63 0 18 2 18 23 -4 12 -13 28 -32 36 -41z m58 40 c15 -21 35 -89 29 -96
-12 -11 -35 23 -44 66 -10 41 -3 54 15 30z m-467 -103 c0 -24 -4 -47 -10 -50
-6 -4 -10 15 -10 50 0 35 4 54 10 50 6 -3 10 -26 10 -50z m-532 24 c-10 -6
-15 -16 -11 -25 5 -13 1 -15 -15 -10 -11 4 -23 2 -27 -4 -3 -5 -18 -10 -33
-10 -26 1 -27 1 -7 16 27 22 98 54 105 48 3 -3 -3 -10 -12 -15z m215 -30 c-4
-4 -21 -11 -37 -15 -26 -6 -27 -5 -17 14 6 11 18 28 28 37 16 16 17 16 25 -6
5 -12 5 -26 1 -30z m881 9 c3 -16 2 -28 -3 -28 -9 0 -21 33 -21 60 0 22 16 -1
24 -32z m-484 -31 c0 -5 -4 -5 -10 -2 -5 3 -10 14 -10 23 0 15 2 15 10 2 5 -8
10 -19 10 -23z m696 -34 c-11 -29 -17 -6 -9 33 7 36 8 37 11 11 2 -16 1 -36
-2 -44z m-910 31 c-15 -14 -31 -22 -35 -19 -7 7 39 45 54 44 6 0 -3 -11 -19
-25z m-232 -10 c24 -9 19 -21 -10 -28 -32 -8 -41 -1 -24 19 14 17 13 17 34 9z
m300 -58 c-3 -21 -9 -35 -11 -32 -3 3 -2 21 1 42 4 20 10 34 12 31 3 -3 2 -21
-2 -41z m943 22 c-3 -8 -6 -5 -6 6 -1 11 2 17 5 13 3 -3 4 -12 1 -19z m-1607
9 c0 -2 -12 -14 -27 -28 -24 -22 -24 -13 0 19 8 11 27 17 27 9z m-79 -28 c-13
-11 -27 -17 -30 -13 -7 7 28 34 43 34 6 -1 0 -10 -13 -21z m536 15 c-3 -3 -12
-4 -19 -1 -8 3 -5 6 6 6 11 1 17 -2 13 -5z m-389 -16 c-3 -7 -12 -14 -21 -16
-12 -2 -15 1 -11 12 7 19 38 22 32 4z m1403 -20 c16 -18 29 -37 29 -43 0 -5
-11 4 -24 20 -13 17 -28 27 -32 23 -8 -9 -34 9 -34 23 0 20 33 7 61 -23z
m-1051 12 c0 -5 -5 -10 -11 -10 -5 0 -7 5 -4 10 3 6 8 10 11 10 2 0 4 -4 4
-10z m1170 -50 c-18 -33 -23 -16 -8 26 10 30 14 33 16 16 2 -11 -2 -31 -8 -42z
m-1040 40 c-19 -13 -30 -13 -30 0 0 6 10 10 23 10 18 0 19 -2 7 -10z m1304
-52 c-29 -51 -47 -69 -58 -58 -8 8 -3 19 22 41 34 31 48 37 36 17z m-1180 -51
c4 -19 3 -26 -4 -22 -5 3 -10 18 -10 32 0 32 5 28 14 -10z m-156 11 c-3 -7
-13 -15 -24 -17 -16 -3 -17 -1 -5 13 16 19 34 21 29 4z m1104 -5 c6 -23 -1
-45 -13 -37 -12 7 -12 54 0 54 5 0 11 -8 13 -17z m-95 -15 c-3 -8 -6 -5 -6 6
-1 11 2 17 5 13 3 -3 4 -12 1 -19z m-927 -13 c0 -14 -4 -25 -9 -25 -5 0 -8 11
-8 25 0 14 3 25 8 25 5 0 9 -11 9 -25z m1160 3 c0 -19 -18 -43 -25 -36 -4 3
-2 16 5 27 12 24 20 27 20 9z m1090 -253 c-12 -15 -30 -12 -30 6 0 5 10 9 21
9 18 0 19 -2 9 -15z m-50 -49 c0 -2 -3 -12 -6 -20 -5 -13 -9 -14 -20 -5 -20
16 -17 29 6 29 11 0 20 -2 20 -4z m30 -16 c0 -5 -2 -10 -4 -10 -3 0 -8 5 -11
10 -3 6 -1 10 4 10 6 0 11 -4 11 -10z m-152 -60 c4 -12 2 -13 -9 -3 -8 7 -25
10 -37 6 -13 -3 -22 -1 -22 6 0 18 62 9 68 -9z m-291 -52 c-3 -7 -5 -2 -5 12
0 14 2 19 5 13 2 -7 2 -19 0 -25z m836 2 c6 -25 -20 -50 -29 -26 -7 19 1 46
15 46 5 0 11 -9 14 -20z m-586 -31 l3 -24 -10 23 c-6 14 -14 20 -21 16 -8 -4
-9 -3 -5 5 12 19 31 7 33 -20z m97 -10 c-5 -9 -34 -13 -34 -5 0 2 3 12 6 20 5
13 9 14 20 5 8 -6 11 -15 8 -20z m-441 1 c-3 -12 -8 -19 -11 -16 -5 6 5 36 12
36 2 0 2 -9 -1 -20z m163 -28 c-12 -11 -18 7 -10 30 l8 23 4 -23 c2 -13 1 -26
-2 -30z m611 14 c-4 -9 -14 -12 -27 -9 -19 5 -20 3 -14 -22 8 -31 -6 -45 -48
-45 -18 0 -28 5 -28 14 0 18 61 66 83 66 9 0 19 5 22 11 10 15 19 3 12 -15z
m-697 -17 c0 -5 -4 -9 -10 -9 -5 0 -10 7 -10 16 0 8 5 12 10 9 6 -3 10 -10 10
-16z m380 -28 c0 -25 -5 -30 -36 -36 -20 -3 -38 -4 -41 -1 -5 5 58 65 70 66 4
0 7 -13 7 -29z m-741 -33 c-1 -18 3 -46 10 -61 6 -16 11 -39 11 -52 0 -13 5
-36 10 -52 10 -27 9 -27 -6 -8 -8 11 -22 29 -29 39 -12 16 -17 17 -30 6 -23
-19 -19 6 5 32 24 26 27 53 5 44 -19 -7 -19 5 2 49 21 43 25 44 22 3z m341 17
c0 -8 -4 -15 -10 -15 -5 0 -10 7 -10 15 0 8 5 15 10 15 6 0 10 -7 10 -15z
m808 3 c-6 -17 -36 -34 -45 -24 -4 4 1 14 11 22 24 17 39 18 34 2z m-1248 -23
c0 -8 -4 -15 -10 -15 -5 0 -10 7 -10 15 0 8 5 15 10 15 6 0 10 -7 10 -15z
m541 -17 c-5 -14 -17 -28 -25 -31 -21 -8 -20 -1 5 35 24 34 34 32 20 -4z m139
22 c0 -12 -48 -32 -64 -27 -6 2 3 11 19 20 35 19 45 21 45 7z m-330 -25 c0 -8
-4 -15 -10 -15 -5 0 -10 7 -10 15 0 8 5 15 10 15 6 0 10 -7 10 -15z m1210 -12
c-1 -18 -18 -35 -24 -24 -5 8 -12 7 -22 -4 -19 -19 -35 -19 -60 -1 -18 14 -18
15 6 25 30 12 100 14 100 4z m-1594 -44 c19 -21 19 -22 -3 -15 -20 6 -23 4
-23 -21 -1 -27 -1 -27 -15 -9 -19 25 -19 31 1 50 19 20 17 20 40 -5z m450 -5
c-11 -7 -22 -11 -25 -8 -3 3 3 12 13 20 11 7 22 11 25 8 3 -3 -3 -12 -13 -20z
m-216 -20 c0 -8 -5 -12 -10 -9 -6 4 -8 11 -5 16 9 14 15 11 15 -7z m805 6 c30
-12 25 -30 -10 -30 -34 0 -55 10 -55 26 0 16 28 18 65 4z m-716 -46 c-16 -20
-21 -12 -13 21 6 23 8 25 16 11 6 -11 6 -22 -3 -32z m531 38 c0 -14 -11 -21
-26 -15 -8 3 -11 9 -8 14 7 11 34 12 34 1z m353 1 c12 -21 16 -63 7 -63 -6 0
-27 16 -48 35 l-37 34 37 1 c20 0 39 -3 41 -7z m147 -28 c35 -36 34 -43 -3
-24 -34 18 -57 41 -51 50 9 15 19 10 54 -26z m360 26 c0 -5 -13 -11 -30 -13
-20 -3 -30 0 -30 9 0 8 12 13 30 13 17 0 30 -4 30 -9z m-994 -39 c1 -18 0 -32
-1 -32 -9 0 -35 52 -29 61 11 19 28 3 30 -29z m784 -2 c8 -5 12 -12 9 -15 -8
-8 -39 5 -39 16 0 11 11 11 30 -1z m-920 -20 c-11 -21 -35 -27 -45 -10 -10 16
4 30 31 30 22 0 23 -3 14 -20z m-675 -10 c7 0 18 -7 25 -15 10 -12 10 -15 -3
-15 -30 0 -47 12 -46 34 0 11 3 15 6 9 2 -7 10 -13 18 -13z m206 -32 c11 -21
6 -22 -22 -8 -12 7 -19 21 -19 38 1 26 1 26 16 7 9 -11 20 -28 25 -37z m-346
-12 c0 -49 -19 -57 -34 -15 -17 48 -14 61 12 57 18 -2 22 -9 22 -42z m905 13
c11 -26 11 -32 -1 -40 -21 -13 -50 20 -43 49 9 31 29 27 44 -9z m626 -11 l16
-30 -34 7 c-45 10 -53 16 -34 27 9 5 16 16 16 24 0 21 17 8 36 -28z m-834 22
c20 -6 39 -18 42 -26 5 -12 2 -15 -10 -10 -8 3 -22 6 -29 6 -15 0 -65 39 -50
40 6 0 26 -5 47 -10z m1103 -1 c11 -17 -1 -21 -15 -4 -8 9 -8 15 -2 15 6 0 14
-5 17 -11z m115 -31 c0 -14 -19 1 -31 25 -12 22 -12 22 10 3 11 -11 21 -23 21
-28z m-250 -4 c0 -16 -9 -18 -30 -4 -13 8 -12 10 3 10 11 0 15 4 11 12 -4 7
-3 8 4 4 7 -4 12 -14 12 -22z m-1085 6 c3 -5 2 -10 -4 -10 -5 0 -13 5 -16 10
-3 6 -2 10 4 10 5 0 13 -4 16 -10z m450 0 c3 -5 1 -10 -4 -10 -6 0 -11 5 -11
10 0 6 2 10 4 10 3 0 8 -4 11 -10z m-807 -12 c-6 -18 -28 -21 -28 -4 0 9 7 16
16 16 9 0 14 -5 12 -12z m1012 -13 c0 -19 -43 -38 -49 -22 -4 10 26 37 41 37
4 0 8 -7 8 -15z m-624 -20 c16 19 16 19 12 -10 -3 -16 -7 -37 -9 -45 -3 -10 3
-15 18 -15 15 0 32 -13 48 -38 15 -21 30 -35 35 -32 5 3 11 1 15 -5 3 -5 -3
-10 -14 -10 -28 0 -26 -8 11 -47 25 -26 29 -36 20 -45 -10 -10 -6 -18 20 -40
l33 -27 -18 -33 c-10 -18 -27 -44 -38 -58 l-20 -25 6 33 c4 20 3 32 -4 32 -7
0 -8 16 -5 44 6 38 4 45 -14 50 -12 4 -31 2 -42 -4 -12 -6 -29 -9 -37 -5 -11
3 -29 -6 -50 -27 -18 -17 -33 -26 -33 -19 0 7 20 32 45 57 34 33 45 51 45 74
0 30 -1 31 -22 16 -33 -24 -40 -19 -23 14 16 32 7 70 -17 70 -18 0 -48 -32
-48 -51 0 -12 -5 -16 -15 -13 -23 9 -27 -17 -11 -70 16 -52 14 -66 -9 -66 -11
0 -13 8 -8 30 3 19 1 30 -6 30 -15 0 -27 -30 -42 -108 -7 -35 -20 -73 -31 -85
-18 -22 -18 -22 -3 8 16 32 21 135 7 135 -13 0 -49 -42 -62 -70 -10 -24 -10
-24 -6 6 6 40 2 44 -34 31 -22 -8 -29 -19 -34 -49 -3 -21 -11 -38 -16 -38 -5
0 -7 7 -4 15 4 8 3 15 -1 15 -33 0 -90 -79 -80 -111 4 -10 3 -24 -2 -31 -5 -9
-10 -3 -14 17 l-6 30 -10 -25 c-6 -14 -15 -36 -21 -50 -26 -63 -6 279 21 353
20 55 153 152 194 141 11 -3 25 1 32 10 19 23 32 19 26 -7 -4 -15 0 -29 12
-39 27 -25 48 -7 48 40 0 31 3 38 19 38 11 -1 33 -13 49 -28 37 -33 47 -28 47
20 0 34 1 35 15 16 15 -19 15 -19 31 1z m144 5 c0 -5 6 -10 13 -10 12 -1 57
-63 57 -81 0 -5 5 -9 10 -9 6 0 10 -7 10 -16 0 -8 -5 -12 -10 -9 -6 3 -14 -4
-19 -17 l-9 -23 -11 28 c-6 16 -11 37 -11 47 0 30 -11 49 -25 44 -7 -3 -16 -1
-20 5 -3 6 -1 11 6 11 10 0 10 3 1 12 -15 15 -16 28 -2 28 6 0 10 -4 10 -10z
m-617 -32 c3 -10 7 -10 20 0 9 8 21 10 28 6 8 -5 4 -13 -12 -25 -26 -20 -49
-25 -49 -10 0 5 -3 16 -6 25 -3 9 -2 16 4 16 6 0 12 -6 15 -12z m995 3 c10 -6
8 -10 -9 -14 -26 -7 -34 -3 -24 12 7 13 15 14 33 2z m-177 -68 l-21 -26 0 30
c0 37 20 60 33 38 5 -10 1 -24 -12 -42z m-951 12 c0 -18 -8 -18 -40 0 l-25 14
33 1 c22 0 32 -5 32 -15z m-222 -30 c20 -2 41 -4 46 -4 14 -1 -25 -41 -39 -41
-7 0 -20 -11 -29 -25 -24 -36 -33 -31 -45 25 -15 69 -14 73 9 60 11 -6 37 -13
58 -15z m130 -12 c-10 -2 -28 -2 -40 0 -13 2 -5 4 17 4 22 1 32 -1 23 -4z
m982 -54 c0 -28 -37 -99 -52 -99 -15 0 -8 55 12 98 21 47 40 48 40 1z m-904
-87 c-3 -53 -7 -136 -8 -185 -2 -70 -6 -91 -20 -104 -17 -15 -18 -15 -12 15 9
43 -3 85 -21 78 -12 -4 -15 3 -15 33 0 58 -11 101 -25 101 -8 0 -15 -6 -17
-12 -3 -7 -8 11 -11 41 -4 29 -9 56 -12 59 -3 3 -14 -3 -25 -13 -21 -19 -22
-18 -34 38 -4 15 -5 31 -2 35 2 4 50 8 106 9 l103 3 -7 -98z m676 -97 c4 -16
1 -25 -7 -25 -8 0 -11 -8 -8 -20 5 -18 0 -20 -45 -20 -32 0 -54 5 -62 15 -17
21 -10 26 52 34 43 5 52 10 50 24 -5 27 15 20 20 -8z m-339 -94 c-5 -3 -12
-14 -16 -23 -3 -10 -11 -18 -17 -18 -11 0 1 31 23 59 9 10 12 10 15 1 3 -7 0
-15 -5 -19z m182 19 c-3 -5 -11 -10 -16 -10 -6 0 -7 5 -4 10 3 6 11 10 16 10
6 0 7 -4 4 -10z m165 -20 c0 -14 -44 -82 -64 -99 -14 -12 -16 -10 -16 24 0 32
-3 37 -20 32 -13 -3 -20 0 -20 9 0 9 11 14 33 14 18 0 42 7 53 15 23 17 34 19
34 5z m-441 -64 c-9 -8 -10 -7 -5 7 3 10 7 26 7 35 1 9 4 6 6 -7 3 -13 -1 -28
-8 -35z m288 -14 c39 -51 41 -74 11 -122 l-22 -35 -8 44 c-9 51 -23 70 -39 54
-8 -8 -19 -7 -40 4 -39 19 -37 30 5 25 19 -2 43 1 53 7 11 6 13 11 5 11 -9 0
-11 7 -7 20 6 18 2 20 -35 20 -26 0 -39 4 -35 11 4 5 23 9 43 7 29 -2 42 -11
69 -46z m-152 -11 c3 -5 1 -12 -5 -16 -14 -9 -52 4 -45 16 8 12 42 12 50 0z
m-82 -58 c3 -17 18 -35 35 -45 31 -18 44 -15 35 8 -3 8 -2 14 1 14 15 0 86
-54 101 -76 14 -21 13 -27 -6 -64 -12 -22 -26 -37 -31 -34 -10 6 -6 53 7 87 5
13 2 17 -13 17 -12 0 -23 9 -27 20 -12 37 -25 20 -25 -32 0 -50 0 -51 -20 -33
-11 10 -22 27 -26 39 -7 24 -33 56 -46 56 -4 0 -8 -11 -8 -25 0 -32 -10 -32
-40 0 -17 18 -27 22 -36 14 -8 -7 -14 -7 -19 1 -4 7 -18 9 -31 6 -33 -9 -30 1
9 24 41 25 41 25 55 -5 6 -14 16 -25 22 -25 16 0 29 43 18 63 -7 14 -4 17 15
17 19 0 26 -7 30 -27z m-623 -53 c0 -5 -2 -10 -4 -10 -3 0 -8 5 -11 10 -3 6
-1 10 4 10 6 0 11 -4 11 -10z m588 -110 c8 -14 23 -20 49 -20 36 0 103 -40
103 -61 0 -16 -52 -89 -60 -84 -4 3 -11 21 -14 41 -4 21 -12 34 -19 31 -7 -2
-17 9 -24 25 -7 15 -19 28 -28 28 -19 0 -19 -11 0 -56 10 -24 11 -34 3 -32 -6
2 -18 26 -26 54 -19 65 -32 81 -48 59 -10 -13 -17 -14 -33 -6 -27 15 -31 14
-31 -9 0 -11 -5 -20 -11 -20 -6 0 -9 10 -7 23 3 19 11 23 56 28 29 4 56 10 59
13 10 10 18 7 31 -14z m-678 6 c0 -2 -7 -6 -15 -10 -8 -3 -15 -1 -15 4 0 6 7
10 15 10 8 0 15 -2 15 -4z m153 -50 l37 -45 -38 5 c-63 9 -68 13 -44 30 25 18
29 34 7 34 -8 0 -15 5 -15 10 0 20 16 9 53 -34z m140 32 c12 -6 28 -19 35 -30
7 -10 19 -18 27 -18 20 0 24 -9 39 -97 15 -86 12 -321 -4 -337 -14 -14 -23 41
-11 72 12 30 13 132 1 132 -4 0 -19 -10 -34 -21 -34 -27 -45 -17 -22 21 14 25
15 30 3 30 -8 0 -18 10 -21 23 l-6 22 -15 -25 c-13 -24 -14 -24 -15 -4 0 16
-8 23 -27 27 -16 3 -30 3 -32 1 -2 -2 2 -23 9 -46 7 -24 14 -56 15 -71 1 -15
14 -40 29 -56 l27 -28 -22 -6 c-22 -6 -22 -7 -5 -26 9 -10 31 -25 47 -31 29
-12 42 -35 14 -24 -9 4 -15 1 -15 -7 0 -20 31 -49 53 -49 19 0 19 -5 13 -87
-24 -323 -162 -720 -341 -988 -25 -37 -45 -73 -45 -81 0 -8 -5 -14 -10 -14 -7
0 -7 6 0 19 21 40 0 58 -26 24 -7 -10 -14 -14 -14 -9 0 6 23 31 52 58 48 44
52 51 54 98 2 53 -4 62 -23 31 -6 -10 -23 -21 -37 -23 -24 -5 -21 0 24 48 50
53 50 54 34 79 -14 21 -14 28 -3 41 10 13 10 17 -2 25 -11 7 -8 13 15 32 19
15 30 34 31 51 1 35 -9 41 -36 22 -12 -8 -27 -12 -34 -10 -7 3 -19 -13 -29
-41 -19 -49 -36 -61 -28 -19 4 20 1 25 -9 22 -12 -4 -23 -21 -49 -77 -3 -8
-12 -17 -18 -19 -8 -2 -12 14 -12 52 l0 56 45 0 c46 0 54 7 33 28 -8 8 -2 13
29 18 54 8 72 19 56 35 -9 9 -3 20 25 47 22 21 32 37 25 39 -8 3 -10 16 -6 36
l6 32 -26 -24 c-14 -13 -32 -21 -39 -19 -8 3 -23 -14 -38 -40 -29 -52 -57 -70
-47 -30 9 33 -2 42 -25 22 -14 -14 -20 -14 -33 -4 -12 10 -15 10 -15 0 0 -8
-3 -10 -6 -7 -13 13 18 36 67 48 48 13 68 39 30 39 -36 0 -33 20 6 36 60 26
67 30 70 41 3 7 -7 13 -21 15 l-26 3 35 44 c24 31 35 54 35 78 0 32 -1 33 -22
22 -13 -7 -26 -17 -30 -22 -4 -7 -11 -7 -21 1 -18 16 -27 6 -27 -32 -1 -17 -7
-44 -15 -61 l-13 -30 -1 32 c-1 17 -5 34 -10 37 -14 9 -41 -40 -41 -74 0 -37
-28 -96 -40 -84 -5 5 -11 30 -15 55 -6 43 -5 47 24 65 30 19 81 80 81 96 0 10
-31 -2 -52 -20 -10 -8 -18 -11 -18 -6 0 16 22 34 41 34 21 0 59 46 59 71 0 13
-5 17 -17 12 -15 -5 -16 -3 -5 8 15 17 16 75 0 85 -6 4 -21 -4 -33 -19 -17
-18 -26 -22 -34 -14 -17 17 -24 1 -22 -52 1 -27 -4 -62 -10 -77 -9 -27 -11
-27 -21 -10 -7 13 -7 25 1 42 11 26 9 29 -34 36 -18 4 -17 7 15 39 19 20 44
41 55 47 19 11 19 13 3 22 -10 6 -18 15 -18 21 0 5 8 9 18 7 13 -2 18 5 20 39
2 31 -5 57 -27 102 -34 67 -39 107 -15 137 14 18 15 16 11 -30 -7 -74 31 -150
48 -96 11 34 25 22 25 -20 0 -41 0 -41 58 -40 4 0 7 15 8 33 0 17 4 39 8 48
11 24 -11 69 -33 69 -29 0 -45 24 -31 49 12 24 21 26 39 9 11 -10 14 -10 18 0
7 19 23 14 23 -7 0 -11 7 -27 16 -35 8 -9 14 -24 13 -33 -3 -32 1 -43 15 -43
7 0 19 -7 26 -15 12 -14 15 -12 31 12 23 34 23 49 3 88 -14 28 -14 31 6 47 20
16 21 20 8 48 -11 25 -19 30 -48 30 -28 1 -32 3 -18 11 11 6 15 16 11 27 -6
15 -4 15 15 -2 19 -16 22 -17 28 -3 9 26 32 28 69 6 31 -18 36 -19 50 -6 8 8
20 17 27 20 9 3 7 10 -7 27 l-20 23 25 -8 c14 -4 27 -8 30 -8 3 -1 17 7 32 17
26 17 27 19 13 46 -15 29 -33 40 -66 40 -11 0 -17 5 -14 10 8 13 21 13 48 -2z
m-258 -108 c8 -16 15 -33 15 -37 -1 -14 -40 39 -40 53 0 22 8 17 25 -16z m539
6 c9 -14 35 -34 58 -44 24 -11 54 -31 67 -45 l23 -26 -18 -37 c-27 -55 -41
-53 -49 6 -6 43 -10 50 -25 45 -11 -3 -20 0 -24 10 -11 29 -26 16 -20 -17 l6
-33 -30 35 c-25 28 -31 44 -32 83 0 54 17 63 44 23z m-704 -10 c0 -11 -19 -15
-25 -6 -3 5 1 10 9 10 9 0 16 -2 16 -4z m102 -46 c3 -20 0 -30 -9 -30 -8 0
-13 13 -13 36 0 41 16 38 22 -6z m-289 -27 c-7 -2 -19 -2 -25 0 -7 3 -2 5 12
5 14 0 19 -2 13 -5z m130 0 c-7 -2 -21 -2 -30 0 -10 3 -4 5 12 5 17 0 24 -2
18 -5z m106 -55 c1 -20 -7 -22 -28 -9 -13 8 -13 14 -2 38 13 26 14 27 22 8 4
-11 8 -28 8 -37z m981 4 l23 -18 -69 -22 c-38 -12 -73 -22 -77 -22 -16 0 -5
24 24 51 36 33 67 37 99 11z m-2670 -37 c0 -5 -5 -3 -10 5 -5 8 -10 20 -10 25
0 6 5 3 10 -5 5 -8 10 -19 10 -25z m1385 15 c-3 -5 -10 -10 -16 -10 -5 0 -9 5
-9 10 0 6 7 10 16 10 8 0 12 -4 9 -10z m146 -8 c-5 -10 -17 -25 -27 -32 -14
-12 -18 -12 -30 5 -13 17 -13 21 3 32 9 7 27 13 40 13 20 0 22 -3 14 -18z
m790 -9 c8 -10 9 -14 2 -10 -6 4 -14 3 -18 -2 -5 -10 65 -61 84 -61 13 0 20
-25 14 -49 -8 -30 -20 -26 -28 8 -7 34 -40 68 -50 52 -12 -20 -23 -11 -28 22
-4 28 0 57 8 57 1 0 9 -8 16 -17z m-1335 -55 c18 -34 2 -46 -31 -24 -17 11
-25 26 -25 45 0 54 20 47 56 -21z m272 40 c-6 -18 -28 -21 -28 -4 0 9 7 16 16
16 9 0 14 -5 12 -12z m-154 -47 c-9 -10 -26 18 -18 30 5 9 9 8 14 -7 4 -10 6
-21 4 -23z m-269 17 c14 -6 25 -15 25 -20 0 -12 -41 0 -60 18 -18 17 -1 19 35
2z m-330 -12 c57 -24 40 -49 -18 -27 -25 10 -45 41 -26 41 5 0 25 -7 44 -14z
m805 -4 c0 -14 -11 -21 -26 -15 -21 8 -17 23 6 23 11 0 20 -4 20 -8z m1260
-27 c19 -11 21 -14 8 -15 -10 0 -20 -11 -24 -25 -3 -14 -10 -25 -14 -25 -4 0
-5 11 -2 25 2 14 0 25 -6 25 -5 0 -17 -11 -26 -25 -20 -31 -46 -34 -39 -5 6
22 49 60 67 60 6 -1 22 -7 36 -15z m140 10 c0 -3 -9 -24 -20 -45 -18 -36 -80
-83 -80 -61 0 5 6 11 14 14 7 3 17 18 20 34 8 33 66 84 66 58z m-1252 -17 c-6
-17 -36 -34 -45 -24 -4 4 1 14 11 22 24 17 39 18 34 2z m-363 -8 c3 -5 1 -10
-4 -10 -6 0 -11 5 -11 10 0 6 2 10 4 10 3 0 8 -4 11 -10z m-235 -31 c0 -5 -3
-8 -7 -6 -13 8 -55 -12 -48 -23 5 -8 -28 -50 -40 -50 -3 0 -5 16 -5 35 0 22 6
38 18 44 23 14 82 14 82 0z m416 -36 c-10 -10 -19 5 -10 18 6 11 8 11 12 0 2
-7 1 -15 -2 -18z m1057 3 c22 -18 27 -28 22 -48 -5 -19 -13 -25 -35 -25 -34 0
-43 17 -34 63 7 40 10 41 47 10z m-1338 4 c4 -6 -5 -10 -19 -10 -14 0 -29 0
-33 -1 -4 0 -9 4 -11 10 -5 14 55 15 63 1z m541 -4 c3 -8 -7 -36 -22 -61 -23
-40 -29 -44 -37 -30 -6 11 -4 31 8 61 16 44 40 57 51 30z m-146 -25 c0 -5 -7
-14 -15 -21 -12 -10 -15 -10 -15 2 0 8 3 18 7 21 9 10 23 9 23 -2z m-314 -30
c-17 -18 -17 -20 1 -25 10 -3 -1 -4 -25 -2 -24 3 -59 -2 -78 -10 -19 -8 -34
-10 -34 -5 0 10 62 31 91 31 9 0 19 7 23 15 3 8 13 15 22 15 16 0 16 -1 0 -19z
m1384 0 c0 -10 -9 -29 -19 -42 l-19 -24 1 35 c2 33 12 49 30 50 4 0 7 -9 7
-19z m-1294 -20 c-7 -11 -66 -20 -66 -10 0 7 24 14 58 18 7 0 11 -3 8 -8z
m407 -33 c8 -29 0 -40 -24 -33 -15 5 -19 1 -19 -20 0 -14 -4 -24 -9 -21 -12 8
-1 58 18 78 22 23 28 22 34 -4z m-579 -14 c23 -23 19 -40 -4 -19 -11 10 -20
22 -20 27 0 12 7 10 24 -8z m101 -44 c3 -5 24 -10 46 -10 44 0 50 -17 11 -31
-17 -7 -29 -2 -55 21 -17 16 -27 30 -20 30 6 0 15 -4 18 -10z m1354 -4 c-2 -2
-15 -9 -29 -16 -23 -12 -24 -12 -11 3 7 10 20 17 29 17 8 0 13 -2 11 -4z
m-1124 -72 c0 -19 -6 -30 -16 -32 -21 -4 -32 24 -18 49 14 28 34 18 34 -17z
m-85 -8 c0 -3 -4 -8 -10 -11 -5 -3 -10 -1 -10 4 0 6 5 11 10 11 6 0 10 -2 10
-4z m1113 -20 c5 -12 11 -13 36 -3 23 8 34 8 42 0 17 -17 -25 -35 -98 -41 -70
-5 -79 4 -37 37 31 25 50 27 57 7z m-884 -35 c-14 -4 -30 19 -22 33 3 5 12 1
20 -10 10 -13 10 -20 2 -23z m-325 -15 c-6 -16 -64 -53 -64 -41 0 13 24 51 39
62 20 14 34 2 25 -21z m-220 -6 c-15 -15 -92 -26 -79 -12 9 9 37 17 75 21 10
1 11 -2 4 -9z m316 -14 c0 -18 -42 -85 -53 -86 -5 0 -5 15 -2 33 11 48 55 91
55 53z m86 -23 c10 -21 22 -39 27 -41 4 -2 7 -10 7 -18 0 -41 -56 13 -62 59
-5 47 4 47 28 0z m1038 8 c9 -13 -8 -17 -59 -13 -25 2 -42 8 -39 13 7 12 91
12 98 0z m-1346 -21 c-14 -22 -24 -19 -15 5 4 8 11 15 17 15 6 0 6 -7 -2 -20z
m540 -29 c-5 -25 -25 -23 -32 4 -9 36 3 53 21 29 7 -10 12 -25 11 -33z m-123
-1 c17 -32 10 -38 -20 -16 -11 8 -16 19 -12 30 9 23 14 20 32 -14z m1006 5
l34 -14 -49 -1 c-42 0 -47 2 -36 15 15 18 11 18 51 0z m-156 -15 c7 -11 -12
-50 -24 -50 -14 0 -20 37 -8 49 14 14 24 14 32 1z m-792 -99 c33 -57 12 -71
-30 -20 -17 20 -29 27 -36 20 -5 -5 -23 -7 -38 -4 -33 6 -36 -2 -13 -28 15
-16 14 -16 -20 -1 -20 9 -36 19 -36 22 0 12 78 38 115 39 35 1 43 -3 58 -28z
m147 -228 c0 -7 -4 -13 -10 -13 -5 0 -10 12 -10 28 0 21 2 24 10 12 5 -8 10
-21 10 -27z m1320 2 c0 -18 -5 -25 -20 -25 -25 0 -26 25 -2 39 23 14 22 14 22
-14z m-320 -4 c0 -10 -39 -59 -40 -49 0 17 20 58 30 58 5 0 10 -4 10 -9z
m-1096 -22 c16 -13 26 -30 26 -46 l0 -26 -22 20 c-13 11 -38 25 -55 31 -30 10
-33 9 -33 -9 0 -24 -18 -24 -49 2 -35 29 -11 45 70 48 23 1 46 -7 63 -20z
m1224 9 c-3 -7 -13 -15 -24 -17 -16 -3 -17 -1 -5 13 16 19 34 21 29 4z m-24
-72 c-6 -16 -24 -23 -24 -8 0 10 22 33 27 28 2 -2 1 -11 -3 -20z m126 5 c0 -5
-6 -20 -13 -34 -11 -20 -17 -23 -25 -15 -17 17 -15 29 6 44 20 16 32 18 32 5z
m450 -25 c0 -19 -4 -38 -10 -41 -6 -4 -10 10 -10 34 0 23 5 41 10 41 6 0 10
-15 10 -34z m-655 7 c-4 -10 -10 -28 -12 -40 -6 -24 -11 -27 -37 -17 -23 9
-20 40 6 58 31 22 52 21 43 -1z m381 -29 c-4 -12 -10 -12 -26 -4 -26 14 -25
29 3 39 24 9 34 -6 23 -35z m-506 17 c-14 -28 -30 -35 -43 -21 -9 9 -7 15 7
26 30 21 49 19 36 -5z m716 -47 c-7 -38 -13 -40 -42 -13 l-26 24 29 6 c15 4
31 7 36 8 4 0 5 -11 3 -25z m-926 -20 c0 -8 -9 -14 -20 -14 -14 0 -18 -5 -13
-17 4 -9 2 -14 -3 -11 -5 3 -18 8 -28 12 -18 6 -17 9 9 36 22 23 32 27 42 19
7 -6 13 -18 13 -25z m645 26 c3 -5 -3 -10 -14 -10 -12 0 -21 5 -21 10 0 6 6
10 14 10 8 0 18 -4 21 -10z m-411 -21 c-3 -5 -10 -7 -15 -3 -5 3 -7 10 -3 15
3 5 10 7 15 3 5 -3 7 -10 3 -15z m-88 2 c-3 -5 -16 -11 -28 -14 -22 -6 -22 -5
-4 8 22 17 40 20 32 6z m-699 -23 c-2 -7 -18 -13 -36 -13 -29 -1 -30 1 -15 12
23 17 57 17 51 1z m371 -36 c-7 -18 -16 -32 -20 -32 -7 0 5 41 18 62 12 19 13
0 2 -30z m1259 13 c-14 -29 -20 -31 -37 -10 -16 19 -5 35 25 35 21 0 22 -2 12
-25z m-1326 -38 c-8 -8 -11 -7 -11 4 0 20 13 34 18 19 3 -7 -1 -17 -7 -23z
m623 4 c18 -20 34 -91 21 -91 -4 0 -18 9 -32 20 -14 11 -31 20 -38 20 -7 0
-25 12 -40 27 l-27 28 23 6 c44 13 76 9 93 -10z m201 -1 c0 -8 -10 -16 -22
-18 -12 -2 -27 -10 -34 -18 -10 -13 -16 -11 -41 12 -15 15 -28 32 -28 36 0 5
28 8 63 6 47 -2 62 -7 62 -18z m130 -4 c17 -26 17 -77 0 -83 -13 -4 -58 84
-50 98 11 16 34 9 50 -15z m-1318 -1 c1 -5 -2 -17 -7 -25 -7 -12 -12 -12 -22
-2 -21 21 -31 13 -24 -18 6 -31 -7 -42 -18 -14 -9 25 -7 33 15 55 20 20 50 23
56 4z m1481 -16 c24 -9 25 -12 16 -58 -8 -38 -30 -40 -63 -5 -18 19 -21 28
-12 33 9 6 8 11 -4 21 -36 30 -6 34 63 9z m-658 -9 c20 -16 23 -22 14 -37 -6
-10 -19 -19 -28 -21 -20 -4 -100 65 -83 72 27 11 74 4 97 -14z m-161 -26 c12
-15 18 -36 16 -52 -1 -15 -3 -33 -4 -40 -2 -22 -25 -8 -31 18 -4 15 -17 27
-37 34 -49 17 -62 34 -39 52 31 22 72 17 95 -12z m961 2 c0 -3 -5 -17 -11 -32
-5 -16 -7 -39 -4 -52 4 -18 10 -22 27 -16 20 6 20 4 -7 -42 -36 -64 -45 -73
-45 -47 0 12 -9 42 -20 68 -23 54 -26 83 -4 43 24 -46 37 -35 31 27 -5 50 -4
55 14 55 10 0 19 -2 19 -4z m-420 -25 c0 -28 -17 -35 -29 -12 -8 14 -8 21 2
24 22 10 27 7 27 -12z m-2891 -23 c0 -18 -4 -42 -8 -53 -7 -18 -9 -16 -15 12
-8 35 0 73 15 73 5 0 9 -15 8 -32z m2841 -10 c12 -4 10 -7 -6 -16 -25 -13 -36
-4 -49 38 l-7 25 23 -21 c13 -12 31 -24 39 -26z m-3069 -6 c-16 -5 -41 5 -41
17 0 7 10 6 26 -1 15 -7 21 -14 15 -16z m3336 16 c4 -7 8 -20 8 -28 0 -8 6
-14 13 -12 6 1 12 -2 12 -8 0 -5 -6 -10 -14 -10 -16 0 -46 37 -46 57 0 17 16
17 27 1z m353 -13 c22 -12 23 -14 8 -20 -28 -11 -21 -24 17 -31 19 -3 35 -10
35 -15 0 -5 -3 -9 -7 -9 -5 0 -26 -15 -48 -34 -33 -28 -37 -36 -27 -48 10 -12
9 -18 -3 -28 -13 -11 -15 -8 -15 19 0 17 -7 48 -15 68 -21 49 -19 53 9 18 21
-26 25 -28 31 -13 6 16 2 37 -20 91 -9 20 1 21 35 2z m-481 -9 c12 -14 5 -46
-9 -46 -4 0 -10 14 -12 30 -5 32 3 38 21 16z m791 9 c0 -13 -25 -55 -32 -55
-15 0 -48 20 -48 29 0 4 10 13 23 19 23 11 57 16 57 7z m260 -15 c0 -5 -5 -10
-11 -10 -5 0 -7 5 -4 10 3 6 8 10 11 10 2 0 4 -4 4 -10z m-4117 -62 c7 -49 -9
-55 -21 -9 -8 32 -7 41 3 41 7 0 15 -15 18 -32z m2957 22 c0 -5 -4 -10 -10
-10 -5 0 -10 5 -10 10 0 6 5 10 10 10 6 0 10 -4 10 -10z m-3012 -19 c3 -8 -1
-12 -9 -9 -7 2 -15 10 -17 17 -3 8 1 12 9 9 7 -2 15 -10 17 -17z m1789 -3 c-3
-8 -6 -5 -6 6 -1 11 2 17 5 13 3 -3 4 -12 1 -19z m2333 12 c0 -5 -4 -10 -10
-10 -5 0 -10 5 -10 10 0 6 5 10 10 10 6 0 10 -4 10 -10z m-365 -11 c10 -16 -4
-61 -18 -56 -18 6 -20 67 -2 67 7 0 17 -5 20 -11z m275 1 c0 -5 -6 -10 -14
-10 -8 0 -18 5 -21 10 -3 6 3 10 14 10 12 0 21 -4 21 -10z m-3863 -36 c-30
-16 -44 -14 -32 5 3 6 18 11 33 11 l27 -1 -28 -15z m2832 -10 c3 -16 1 -17
-13 -5 -19 16 -21 34 -3 29 6 -3 14 -13 16 -24z m970 17 c9 -6 10 -10 2 -16
-16 -9 -44 2 -36 15 8 12 16 12 34 1z m-111 -64 c13 -21 14 -29 4 -39 -16 -16
-30 -1 -38 41 -8 41 9 40 34 -2z m292 -2 c0 -2 -12 -12 -26 -22 -29 -19 -80
-19 -102 0 -13 10 -2 13 54 18 38 3 70 6 72 7 1 1 2 0 2 -3z m-480 -34 c0 -11
-4 -23 -10 -26 -6 -4 -10 5 -10 19 0 14 5 26 10 26 6 0 10 -9 10 -19z m52 -3
c-6 -6 -15 -8 -19 -4 -4 4 -1 11 7 16 8 5 17 7 19 4 3 -2 -1 -10 -7 -16z m74
-53 c-8 -23 -25 -9 -19 16 4 13 9 17 16 10 5 -5 7 -17 3 -26z m35 -49 c-16
-20 -72 -39 -65 -23 5 12 65 45 73 40 2 -1 -2 -9 -8 -17z m-81 -23 c0 -7 -7
-13 -16 -13 -11 0 -14 5 -10 16 3 9 6 21 6 27 0 16 20 -14 20 -30z m324 -28
c17 -26 20 -68 6 -100 -7 -16 -9 -13 -9 16 -1 20 -8 53 -16 73 -17 41 -5 48
19 11z m316 -25 c0 -5 -4 -10 -10 -10 -5 0 -10 5 -10 10 0 6 5 10 10 10 6 0
10 -4 10 -10z m-130 -52 c0 -12 -13 -10 -38 8 -33 23 -27 38 8 17 17 -9 30
-21 30 -25z m88 3 c11 -7 10 -10 -3 -15 -19 -7 -35 0 -35 15 0 11 20 12 38 0z
m-288 -86 c-16 -20 -26 -10 -35 35 l-8 35 28 -27 c23 -23 26 -30 15 -43z m102
-9 c-10 -18 -22 25 -15 51 l7 28 6 -35 c3 -19 4 -39 2 -44z m288 21 c0 -19
-50 -41 -63 -28 -5 5 -7 17 -4 25 8 20 67 22 67 3z m-125 -14 c19 -9 35 -20
35 -24 0 -12 -57 10 -71 27 -15 18 -7 18 36 -3z m165 -8 c-7 -8 -16 -12 -21
-9 -13 8 -1 24 18 24 13 0 13 -3 3 -15z m-296 -23 c2 -4 -9 -15 -25 -25 -17
-9 -28 -13 -26 -9 2 4 7 15 10 25 6 17 32 23 41 9z m-4134 -66 c0 -51 -15 -69
-24 -30 -5 20 -10 23 -20 14 -17 -13 -68 -2 -63 14 2 6 16 11 30 11 14 0 34 8
44 18 27 26 33 21 33 -27z m375 -135 c-5 -17 -10 -19 -25 -11 -26 14 -37 -6
-16 -29 24 -26 21 -53 -6 -51 -40 4 -42 1 -19 -24 17 -18 20 -30 15 -50 -4
-18 -11 -25 -21 -22 -27 11 -33 -5 -13 -32 19 -26 19 -31 6 -117 -14 -93 -14
-93 -36 5 -15 70 -12 191 6 245 19 54 90 133 106 117 5 -5 7 -19 3 -31z m-455
-82 c0 -16 4 -19 18 -14 32 14 92 17 92 4 0 -6 -7 -9 -15 -5 -10 4 -15 -1 -15
-14 0 -11 -7 -20 -15 -20 -8 0 -15 -5 -15 -11 0 -6 9 -9 20 -6 13 3 20 0 21
-9 3 -27 4 -32 11 -39 4 -4 4 -13 1 -21 -3 -9 2 -14 16 -14 12 0 21 -4 21 -10
0 -5 -5 -10 -10 -10 -6 0 -8 -11 -4 -27 9 -36 12 -39 26 -25 8 8 19 -9 44 -69
18 -45 42 -96 53 -115 27 -45 14 -43 -34 6 -21 22 -43 40 -48 40 -6 0 -20 11
-32 24 -12 13 -28 26 -36 29 -12 5 -12 7 0 15 11 8 8 13 -13 27 -33 22 -34 37
-1 29 39 -10 30 13 -14 36 -40 20 -63 43 -39 38 8 -2 13 6 13 20 0 12 7 27 15
32 13 8 10 14 -15 35 -16 13 -37 24 -45 25 -34 0 -56 52 -27 63 22 10 27 7 27
-14z m2109 -365 c42 -9 39 -21 -9 -35 -36 -11 -42 -10 -55 7 -8 10 -15 22 -15
27 0 9 36 9 79 1z m-257 -83 c23 -41 1 -47 -40 -10 -39 35 -40 39 -4 39 19 0
32 -8 44 -29z m384 -5 c29 -22 12 -28 -53 -20 l-58 7 30 13 c39 17 57 17 81 0z
m-1952 -75 c28 -26 106 -125 106 -136 0 -13 -89 52 -128 94 -44 47 -82 100
-82 114 0 9 58 -32 104 -72z m1526 37 c0 -8 -77 -48 -92 -48 -14 0 -9 44 7 67
15 22 17 22 50 6 19 -9 35 -20 35 -25z m-126 -15 c-4 -21 -12 -41 -18 -45 -16
-10 -20 50 -5 68 21 25 30 15 23 -23z m-67 -25 c-4 -14 -24 -32 -49 -46 -24
-13 -52 -31 -64 -40 -30 -25 -75 -100 -89 -147 l-12 -40 -36 71 -36 71 42 20
c23 11 87 48 141 82 55 33 102 59 104 56 2 -2 2 -14 -1 -27z m301 14 c7 -5 10
-16 6 -25 -5 -15 -8 -15 -29 1 -33 24 -12 46 23 24z m-44 -43 c14 -11 26 -26
26 -33 0 -22 -45 -55 -108 -80 -59 -23 -111 -67 -112 -93 0 -21 16 -15 47 15
15 16 44 31 63 35 19 3 46 9 59 13 l24 7 -5 -70 c-3 -45 -14 -90 -31 -127 -28
-60 -52 -86 -103 -111 -36 -19 -90 -72 -81 -81 3 -3 18 3 34 14 15 11 49 30
75 42 36 17 56 36 86 83 48 74 62 120 62 208 0 40 5 73 14 84 14 19 15 19 35
1 11 -10 25 -35 32 -55 6 -20 20 -55 30 -78 17 -38 18 -45 4 -84 -16 -45 -6
-78 13 -43 25 49 24 102 -5 180 -15 42 -38 87 -51 101 -24 27 -22 63 4 63 25
0 104 -87 104 -115 0 -13 8 -47 19 -74 l18 -49 -28 -74 c-25 -65 -33 -75 -63
-86 -19 -7 -64 -41 -99 -75 -36 -34 -69 -62 -73 -62 -5 -1 -53 -5 -106 -9
l-98 -8 -80 41 c-66 34 -91 41 -137 41 -48 0 -66 6 -131 45 -41 25 -81 45 -89
45 -8 0 -13 5 -11 10 2 6 36 12 75 14 72 3 73 3 67 -20 -7 -29 20 -34 35 -7 9
17 11 16 31 -2 14 -13 32 -18 58 -16 20 2 49 3 65 3 30 1 29 0 21 22 -4 12
-16 14 -47 10 -51 -6 -107 24 -107 57 0 17 4 20 22 16 12 -4 28 -1 35 4 10 9
8 15 -9 29 -22 17 -22 17 -3 66 25 66 50 101 96 130 42 26 54 30 44 14 -4 -6
-1 -35 6 -66 12 -52 11 -56 -9 -70 -27 -18 -132 -142 -132 -155 0 -28 35 0
118 94 18 20 36 37 41 37 12 0 31 -56 31 -91 0 -16 4 -29 8 -29 13 0 14 79 1
114 -11 29 -9 40 8 77 11 24 24 62 27 84 6 36 12 42 54 62 60 27 93 28 126 2z
m-209 -46 c-4 -10 -9 -33 -12 -50 -9 -50 -23 -39 -23 17 0 44 2 50 21 50 16 0
19 -4 14 -17z m-329 -155 c13 -26 31 -51 40 -56 12 -6 15 -17 11 -33 -5 -20
-18 -27 -74 -41 -80 -19 -98 -13 -120 40 -8 20 -26 49 -40 64 -27 28 -24 48 7
48 10 0 20 3 22 8 2 4 23 17 48 28 42 20 46 21 64 5 10 -9 29 -37 42 -63z"/>
</g>
</svg>
