<?xml version="1.0" standalone="no"?>
<!DOCTYPE svg PUBLIC "-//W3C//DTD SVG 20010904//EN"
 "http://www.w3.org/TR/2001/REC-SVG-20010904/DTD/svg10.dtd">
<svg version="1.0" xmlns="http://www.w3.org/2000/svg"
 width="1012.000000pt" height="1280.000000pt" viewBox="0 0 1012.000000 1280.000000"
 preserveAspectRatio="xMidYMid meet">
<metadata>
Created by potrace 1.15, written by Peter Selinger 2001-2017
</metadata>
<g transform="translate(0.000000,1280.000000) scale(0.100000,-0.100000)"
fill="#eaebe4" stroke="none">
<path d="M2621 12786 c-16 -20 -12 -25 42 -51 39 -19 44 -26 85 -130 23 -60
47 -130 53 -155 6 -25 10 -152 9 -290 l0 -245 35 -70 c19 -39 35 -75 35 -80 0
-6 -11 -31 -24 -56 -37 -70 -52 -187 -37 -304 12 -102 23 -132 77 -206 41 -56
41 -70 9 -144 -35 -77 -39 -122 -26 -248 22 -203 86 -327 199 -389 46 -24 60
-54 76 -158 24 -163 97 -290 197 -345 30 -16 87 -38 128 -50 73 -20 74 -21
110 -80 25 -41 58 -76 105 -111 102 -77 161 -102 276 -118 54 -8 104 -17 108
-20 5 -3 15 -43 22 -88 6 -46 16 -98 22 -116 24 -81 170 -221 283 -273 34 -15
70 -40 83 -58 29 -40 60 -55 156 -76 99 -22 179 -16 241 18 24 14 58 28 75 32
17 4 58 32 91 62 66 62 76 61 89 -4 5 -21 20 -92 34 -158 13 -66 28 -157 32
-202 8 -94 3 -100 -53 -57 -48 37 -132 69 -248 94 -148 32 -217 38 -350 29
-159 -11 -196 -16 -285 -41 -174 -47 -317 -118 -407 -201 l-44 -40 -80 28
c-71 25 -95 28 -217 29 -160 1 -183 -6 -294 -98 -93 -77 -124 -143 -150 -318
-16 -111 -18 -144 -8 -203 22 -143 29 -252 23 -353 -7 -114 -4 -122 50 -122
33 0 58 12 107 51 47 37 96 55 211 78 81 16 120 31 242 95 164 87 217 128 275
218 33 51 44 80 57 152 25 147 17 227 -30 276 -34 36 -29 55 33 112 67 62 122
93 258 140 112 38 125 41 263 45 163 6 323 -12 446 -51 67 -21 70 -23 67 -50
-3 -22 5 -38 37 -70 52 -53 121 -193 121 -247 0 -28 15 -68 53 -140 l52 -101
-1 -171 c-1 -110 -7 -205 -18 -262 -9 -49 -16 -117 -16 -150 0 -33 -4 -65 -8
-71 -4 -6 -34 -11 -67 -11 -33 0 -123 -8 -200 -17 -114 -14 -152 -23 -210 -50
-73 -34 -195 -119 -195 -135 0 -6 -21 -34 -47 -64 -36 -41 -60 -85 -97 -177
-61 -153 -70 -229 -37 -333 26 -85 44 -115 86 -147 18 -14 42 -38 54 -55 11
-16 43 -52 71 -80 28 -27 80 -87 116 -132 36 -45 81 -92 102 -104 20 -12 56
-37 79 -56 l41 -33 -14 -52 c-8 -29 -21 -96 -29 -148 -17 -107 -92 -399 -106
-416 -5 -6 -37 -17 -70 -23 -61 -12 -197 -66 -243 -96 -30 -20 -56 -14 -56 12
0 10 -18 71 -39 136 -29 87 -57 146 -108 230 -39 62 -79 128 -91 147 -45 76
-258 267 -377 339 -136 82 -368 153 -545 165 -106 8 -240 32 -255 47 -5 6 -10
69 -11 142 -1 107 -6 150 -26 227 -58 217 -221 410 -438 520 -109 56 -167 112
-183 178 -16 66 -31 82 -54 59 -14 -14 -15 -24 -6 -71 15 -85 3 -90 -64 -25
-81 78 -128 113 -283 211 -195 124 -411 228 -640 310 -166 59 -354 169 -408
238 -11 14 -47 71 -82 127 l-62 101 21 48 c22 49 15 79 -15 67 -42 -16 -134
-310 -134 -430 0 -68 -4 -72 -51 -48 -16 9 -59 25 -96 36 -56 18 -68 19 -80 7
-20 -21 -2 -128 35 -211 29 -64 30 -67 12 -77 -10 -5 -51 -10 -91 -10 -54 0
-94 -8 -162 -31 -65 -22 -99 -29 -124 -24 -66 12 -90 -15 -61 -68 22 -42 131
-178 154 -194 28 -18 30 -35 8 -54 -11 -9 -14 -23 -11 -47 5 -30 0 -40 -49
-93 -66 -72 -64 -79 36 -146 39 -25 70 -52 70 -58 0 -7 -19 -16 -44 -19 -62
-10 -141 -95 -185 -200 -49 -117 -39 -157 30 -117 92 53 194 62 360 32 125
-23 203 -53 357 -139 110 -61 174 -103 417 -273 55 -39 129 -87 165 -107 62
-35 69 -37 153 -36 l87 1 0 -38 c0 -39 0 -39 39 -39 21 0 52 5 69 11 27 9 35
7 79 -27 46 -35 73 -49 208 -107 82 -34 226 -50 410 -46 l150 4 138 64 c130
60 142 69 205 137 l67 73 56 -19 c31 -11 123 -26 205 -35 193 -20 241 -30 342
-71 143 -59 394 -225 491 -324 69 -71 199 -266 233 -350 39 -96 58 -188 42
-201 -7 -6 -68 -15 -136 -19 -68 -5 -137 -12 -155 -16 l-32 -6 2 88 c2 81 -1
93 -25 136 -41 68 -200 208 -283 247 -74 35 -277 92 -420 118 -132 24 -258 9
-387 -45 -105 -44 -209 -118 -252 -181 -54 -77 -158 -165 -275 -231 -230 -131
-351 -277 -372 -453 -5 -45 -16 -123 -23 -173 -18 -116 -9 -163 49 -270 62
-115 73 -185 51 -325 -9 -57 -17 -173 -18 -256 l-2 -152 40 -78 c21 -43 57
-105 78 -137 36 -53 40 -67 47 -145 7 -84 21 -188 40 -284 15 -81 97 -178 295
-350 56 -48 113 -105 128 -126 15 -21 38 -44 52 -52 32 -17 79 -76 99 -123 21
-50 19 -125 -7 -213 -21 -74 -21 -76 -3 -89 10 -8 27 -14 36 -14 27 0 188 186
217 250 33 72 102 178 138 212 16 14 79 54 139 89 61 34 130 78 155 99 69 57
92 69 166 90 38 10 119 40 179 65 61 26 121 49 134 52 21 5 22 3 16 -18 -11
-33 -105 -221 -180 -359 -34 -63 -111 -205 -170 -315 -59 -110 -148 -258 -198
-330 -50 -71 -116 -166 -147 -210 -31 -44 -85 -126 -120 -182 -192 -304 -340
-518 -447 -645 -38 -46 -118 -146 -178 -222 -60 -76 -126 -151 -146 -165 -50
-34 -53 -44 -24 -87 14 -20 25 -43 25 -50 0 -7 14 -24 32 -37 l31 -25 -20 -47
c-29 -68 -9 -116 37 -87 10 6 34 14 53 17 21 4 51 21 70 40 75 73 304 357 387
480 19 28 55 75 81 105 47 54 77 97 284 400 58 85 135 195 171 244 169 231
475 779 618 1108 30 68 68 155 86 193 55 118 196 477 209 530 22 89 38 112 89
129 58 20 165 89 198 129 14 17 56 93 93 168 65 132 73 144 196 276 135 146
157 181 181 291 23 108 29 401 10 492 -9 41 -16 89 -16 106 0 36 34 138 84
251 42 94 45 137 13 184 -18 28 -89 75 -138 91 -7 2 2 63 25 168 19 91 37 188
41 215 16 133 20 137 86 84 43 -34 162 -88 195 -89 28 0 175 -73 255 -126 37
-24 91 -54 121 -65 29 -11 78 -34 109 -50 43 -22 70 -29 112 -29 31 0 59 5 62
10 4 6 -4 25 -18 43 -14 18 -32 54 -41 80 -22 65 -15 96 61 255 56 118 63 168
34 255 l-22 65 31 61 c48 97 60 158 60 321 0 161 -18 251 -65 321 -32 48 -31
57 2 65 14 4 45 19 67 34 23 16 70 37 105 48 l65 19 162 -54 162 -54 42 -83
c23 -45 51 -122 64 -171 18 -75 26 -90 42 -90 16 0 19 6 16 40 -4 68 -39 168
-77 220 -32 46 -44 75 -29 75 11 0 146 -94 178 -124 17 -16 65 -43 106 -60 41
-18 100 -48 131 -68 30 -19 66 -39 80 -43 13 -4 65 -48 116 -97 88 -85 111
-98 121 -69 6 19 -97 115 -165 153 -76 43 -55 46 94 14 147 -31 372 -50 391
-31 11 10 11 15 -2 27 -11 11 -48 18 -133 23 -295 17 -537 90 -751 224 -141
89 -330 169 -424 180 -32 4 -61 11 -65 15 -11 10 26 36 51 36 24 0 121 43 130
58 8 14 179 74 316 112 l115 31 169 -45 c141 -38 176 -51 215 -81 45 -36 87
-58 286 -150 141 -65 181 -94 253 -180 39 -45 71 -75 83 -75 35 0 20 33 -44
98 -69 72 -72 70 67 33 95 -25 158 -27 176 -6 19 23 3 33 -65 40 -149 15 -260
55 -504 179 -240 121 -352 168 -431 181 -116 18 -150 37 -87 50 17 4 118 34
222 67 105 33 218 62 251 65 84 8 272 -36 362 -84 37 -19 116 -55 177 -80 124
-51 175 -85 293 -195 83 -79 112 -94 112 -59 0 18 -55 74 -135 137 -22 18 -37
35 -33 39 3 4 70 -10 148 -30 143 -36 170 -38 170 -11 0 24 -28 34 -208 75
-186 43 -263 69 -400 130 -120 55 -182 76 -270 91 -104 19 -97 33 24 45 38 4
103 16 144 26 98 25 200 39 330 46 100 5 110 4 200 -27 239 -82 500 -232 500
-287 0 -28 -40 -81 -109 -145 -79 -73 -145 -112 -234 -137 -132 -38 -198 -85
-302 -215 -99 -123 -133 -154 -254 -230 -133 -83 -235 -114 -320 -97 -84 17
-105 14 -157 -24 -198 -142 -259 -177 -344 -194 -82 -16 -270 -31 -405 -31
-110 0 -129 3 -230 35 -120 39 -231 98 -341 181 -39 30 -74 54 -78 54 -3 0 -6
-13 -6 -28 0 -33 35 -68 129 -132 119 -79 164 -101 275 -137 l111 -35 240 5
c200 4 253 9 319 26 95 25 228 96 298 158 71 63 95 71 171 61 115 -16 217 13
368 107 112 70 167 120 264 241 94 117 152 159 277 200 54 18 119 44 144 59
57 33 166 136 214 200 49 67 100 99 187 120 45 10 97 32 135 56 203 128 359
157 536 102 52 -16 53 -16 77 7 59 55 8 114 -120 140 -186 38 -313 114 -490
294 -222 225 -387 284 -754 269 l-146 -5 -60 47 c-74 58 -114 79 -192 99 -72
19 -216 21 -323 5 -71 -11 -79 -10 -150 16 -58 21 -100 28 -186 32 -120 6
-160 -3 -252 -55 -24 -13 -45 -22 -48 -20 -2 3 12 39 31 80 31 65 38 95 55
234 11 87 20 185 20 216 0 32 9 104 20 160 38 199 30 205 -109 84 -35 -30 -67
-53 -72 -50 -4 2 -5 27 -2 54 7 64 -14 77 -58 34 l-29 -28 20 -21 c17 -18 19
-30 14 -68 -4 -25 -4 -53 0 -63 6 -15 8 -15 34 2 15 9 52 39 83 66 50 43 79
59 79 42 0 -3 -6 -32 -14 -63 -8 -31 -17 -99 -21 -151 -11 -161 -35 -322 -57
-385 -54 -156 -154 -311 -283 -442 -76 -78 -85 -83 -123 -83 -23 0 -42 4 -42
9 0 5 21 25 48 43 150 108 360 448 276 448 -7 0 -29 -34 -48 -76 -44 -94 -109
-186 -199 -281 -63 -66 -133 -121 -141 -112 -2 2 32 47 76 99 101 121 218 304
218 342 0 44 -24 34 -55 -24 -62 -115 -163 -257 -244 -340 -46 -49 -90 -88
-97 -88 -33 0 -20 27 46 96 84 89 118 139 197 299 72 144 133 302 133 346 0
18 9 62 19 98 11 36 29 123 40 192 12 72 32 151 46 183 28 63 31 82 13 88 -16
6 -127 -27 -142 -42 -5 -5 -16 -10 -24 -10 -12 0 -14 10 -9 49 7 58 -16 91
-62 91 -90 0 -425 -236 -566 -398 -151 -175 -257 -339 -303 -471 -15 -41 -32
-39 -32 3 0 70 -22 56 -102 -62 -117 -173 -185 -373 -175 -514 4 -64 12 -92
45 -160 39 -80 79 -125 150 -169 12 -7 22 -19 22 -25 0 -22 -94 -139 -184
-230 -74 -74 -183 -154 -209 -154 -3 0 -26 17 -50 38 -24 20 -53 42 -63 48
-18 11 -18 13 0 105 23 118 31 302 30 684 -1 246 -4 311 -17 361 -25 90 -23
293 2 365 37 107 115 273 163 346 47 72 50 74 81 68 17 -4 61 -18 96 -32 54
-21 75 -25 135 -21 98 7 170 36 303 120 196 124 246 182 259 293 6 54 14 70
76 153 l68 92 54 0 c68 0 195 24 234 44 16 8 32 23 36 32 7 20 -15 17 -175
-17 -136 -28 -143 -26 -134 48 10 81 13 86 44 77 14 -4 73 -8 131 -7 85 0 121
5 187 27 91 30 130 55 120 79 -7 18 -7 18 -136 -28 -51 -17 -105 -27 -176 -32
-117 -7 -145 2 -145 46 0 28 1 28 79 35 101 8 181 32 181 53 0 13 -9 15 -61 9
-33 -3 -88 -13 -121 -22 -41 -10 -64 -12 -71 -5 -14 14 -19 179 -6 219 12 38
17 39 159 45 112 5 207 26 385 84 120 39 147 55 127 75 -11 11 -28 7 -90 -15
-117 -43 -134 -48 -130 -35 2 6 48 36 102 67 104 59 211 150 204 172 -9 27
-38 20 -80 -19 -50 -46 -198 -146 -289 -196 -115 -62 -185 -84 -291 -89 l-97
-5 -10 28 c-7 22 -19 31 -53 41 -64 17 -192 13 -288 -10 -96 -23 -110 -25
-110 -12 0 5 28 47 62 92 34 46 67 102 74 125 7 23 24 59 37 81 14 21 50 82
82 136 64 111 200 314 285 427 32 41 67 95 80 120 13 25 49 77 81 115 85 103
364 373 438 425 73 52 111 96 114 135 3 42 -15 40 -69 -8 -27 -24 -76 -62
-109 -84 -34 -23 -135 -119 -230 -219 -94 -99 -175 -180 -181 -182 -18 -5 -24
36 -13 95 8 42 7 72 -6 131 -19 92 -65 196 -94 212 -35 18 -39 -15 -9 -69 38
-67 46 -108 57 -281 l9 -154 -117 -171 c-65 -93 -137 -200 -160 -237 -24 -38
-49 -68 -56 -68 -32 0 -31 169 0 342 9 46 22 133 31 193 8 61 22 142 31 182
22 100 5 134 -32 64 -13 -27 -39 -183 -66 -403 -17 -143 -21 -138 -64 74 -39
190 -83 298 -121 298 -25 0 -26 -22 -1 -78 14 -31 33 -86 41 -122 8 -36 33
-141 55 -235 22 -93 43 -192 46 -219 4 -28 16 -72 26 -99 l20 -50 -97 -160
c-53 -88 -127 -224 -165 -301 -66 -134 -103 -186 -120 -169 -8 8 15 80 74 232
11 30 22 87 25 126 4 67 3 73 -19 89 -13 9 -42 16 -65 16 -45 0 -54 10 -54 60
0 32 -44 220 -66 282 -8 23 -40 76 -71 119 -43 60 -62 79 -80 79 -35 0 -29
-25 27 -100 27 -37 56 -83 64 -101 24 -57 76 -277 76 -319 0 -47 5 -44 -140
-85 -118 -33 -257 -94 -321 -140 -66 -47 -73 -46 -65 13 5 40 3 54 -14 74 -11
15 -27 53 -35 86 -14 54 -14 67 -1 119 8 32 18 87 21 123 7 56 15 76 61 145
52 80 118 155 135 155 5 0 27 16 49 36 33 30 45 51 65 118 39 128 95 200 225
289 76 52 147 116 187 169 42 56 118 100 247 143 83 28 133 32 251 20 114 -11
273 14 376 60 118 52 169 63 344 75 88 6 192 18 230 26 159 34 164 32 89 -48
-25 -26 -52 -64 -60 -83 -19 -46 -18 -143 2 -223 25 -100 16 -248 -20 -329
-32 -70 -31 -108 6 -211 38 -106 24 -262 -34 -397 -31 -69 -31 -71 -25 -196 6
-122 5 -129 -22 -200 -35 -91 -61 -136 -121 -214 -60 -76 -65 -87 -80 -160
-26 -125 -109 -253 -208 -317 -42 -28 -76 -60 -102 -98 -48 -71 -145 -161
-204 -189 -24 -12 -95 -33 -156 -45 -143 -30 -167 -58 -65 -77 35 -7 52 -5 68
6 12 7 44 19 72 25 121 27 243 116 353 258 18 23 59 60 91 82 112 75 179 183
210 335 15 76 21 87 69 140 67 73 151 242 158 318 3 29 1 88 -4 132 -10 79 -9
82 29 189 31 84 42 133 50 218 10 107 10 112 -15 174 -32 80 -32 106 -1 219
30 108 34 241 9 325 -8 30 -18 85 -21 121 -6 79 2 97 82 189 62 72 67 97 20
119 -25 12 -43 12 -120 1 -49 -7 -115 -16 -145 -21 -30 -4 -98 -8 -151 -8
-128 -1 -193 -15 -324 -66 -119 -47 -132 -50 -245 -65 -51 -6 -108 -6 -177 1
-119 13 -179 7 -225 -25 -19 -13 -56 -30 -83 -39 -77 -27 -125 -60 -209 -147
-44 -45 -121 -113 -172 -152 -146 -108 -195 -172 -229 -296 -16 -56 -25 -69
-78 -115 -85 -74 -117 -110 -160 -180 -39 -63 -49 -92 -86 -252 -27 -117 -26
-148 5 -231 22 -59 25 -82 22 -153 -2 -69 0 -85 13 -94 14 -8 26 -2 63 30 83
73 259 152 426 192 41 10 100 26 131 36 101 32 107 15 57 -159 -34 -122 -76
-222 -102 -249 -12 -12 -34 -17 -69 -17 -68 -1 -170 -23 -202 -44 -15 -10 -53
-44 -86 -77 -33 -33 -64 -57 -69 -54 -6 4 -10 22 -10 42 0 76 -96 228 -179
283 -17 11 -30 42 -52 124 -16 59 -36 118 -44 129 -26 36 -17 84 39 215 95
222 115 385 64 517 -14 39 -34 100 -43 137 -15 61 -23 74 -93 145 -43 43 -102
99 -132 124 -47 39 -59 57 -79 113 -13 36 -37 85 -53 109 -69 96 -188 200
-295 257 -72 37 -153 113 -153 142 0 29 -101 122 -167 154 -67 31 -188 42
-312 27 -68 -9 -75 -8 -100 12 -31 26 -211 130 -261 151 -57 24 -177 28 -480
13 -157 -7 -332 -12 -390 -10 -58 2 -132 4 -165 5 -33 1 -74 6 -91 10 -22 6
-33 4 -43 -8z m1178 -79 c118 -60 187 -101 213 -125 27 -25 31 -26 200 -27
144 -1 180 -4 213 -19 62 -28 99 -60 135 -118 52 -83 108 -136 199 -186 49
-28 124 -83 183 -136 95 -86 99 -91 119 -160 31 -102 59 -146 126 -193 33 -23
89 -73 125 -112 59 -62 68 -76 77 -128 6 -32 20 -87 31 -123 40 -130 22 -304
-49 -458 -22 -48 -43 -99 -46 -115 -10 -38 -23 -43 -54 -19 -15 10 -46 29 -69
41 -23 12 -42 24 -42 27 0 2 11 26 24 52 67 132 128 417 94 438 -20 12 -34
-22 -51 -124 -9 -57 -35 -151 -60 -218 l-44 -119 -41 0 c-22 0 -47 -6 -53 -12
-7 -7 -28 -13 -46 -13 -29 0 -37 6 -64 51 -23 36 -47 59 -86 81 l-54 31 29 31
c42 44 55 74 129 290 60 176 66 199 70 295 5 121 0 151 -26 151 -24 0 -33 -42
-25 -118 8 -76 -40 -272 -67 -272 -12 0 -11 161 2 239 11 70 2 94 -25 72 -29
-25 -40 -117 -27 -246 8 -87 8 -137 1 -180 -16 -90 -49 -182 -76 -214 l-23
-28 -138 34 c-75 19 -150 42 -165 51 -23 13 -133 149 -162 200 -4 7 8 38 29
72 55 91 132 260 143 315 6 28 25 95 42 150 63 203 88 379 55 392 -9 3 -19 3
-22 0 -3 -4 -12 -50 -20 -104 -13 -93 -59 -292 -68 -302 -3 -2 -6 -2 -8 0 -5
6 20 218 39 332 12 74 13 102 5 110 -27 27 -45 -47 -66 -275 -8 -90 -20 -194
-26 -232 -6 -37 -9 -85 -6 -105 5 -30 -1 -50 -37 -116 -111 -207 -167 -295
-187 -295 -5 0 -20 22 -34 49 -13 27 -48 80 -76 118 -47 61 -201 311 -215 347
-3 8 13 52 35 98 64 131 83 217 88 400 5 142 4 158 -11 164 -10 4 -22 2 -27
-3 -6 -6 -12 -75 -15 -154 -4 -104 -12 -169 -29 -234 -32 -125 -64 -205 -81
-205 -7 0 -29 30 -48 68 -19 37 -54 94 -79 127 -50 68 -217 250 -262 287 -114
93 -443 285 -471 274 -26 -10 -14 -34 34 -64 26 -16 90 -53 142 -82 196 -108
380 -269 435 -378 14 -29 42 -75 61 -101 46 -65 45 -76 -8 -65 -24 4 -92 8
-152 9 l-108 0 -39 55 c-22 30 -69 99 -105 152 -35 54 -72 104 -80 113 -22 22
-44 19 -44 -7 0 -23 147 -253 181 -284 33 -30 23 -42 -38 -49 -112 -12 -206
-55 -180 -81 4 -4 40 0 80 9 232 53 548 48 593 -9 32 -41 179 -294 215 -369
21 -44 49 -97 61 -117 13 -20 19 -40 15 -44 -4 -4 -33 -3 -65 4 -31 6 -98 16
-148 22 -96 10 -168 32 -249 73 -76 38 -105 81 -153 227 -23 69 -33 86 -50 88
-29 4 -28 -5 8 -118 43 -138 78 -193 146 -231 30 -17 53 -33 50 -36 -2 -2 -82
-11 -178 -19 -181 -15 -218 -23 -218 -49 0 -20 51 -19 275 5 273 30 364 25
299 -16 -43 -26 -104 -86 -104 -101 0 -33 33 -23 84 25 34 32 69 55 97 63 60
18 237 16 253 -2 18 -19 89 -190 111 -264 26 -93 18 -171 -23 -208 -9 -9 -73
-27 -141 -41 -68 -14 -146 -33 -174 -41 -28 -8 -56 -15 -63 -15 -21 0 -164
131 -233 214 -64 76 -84 89 -94 62 -9 -22 35 -81 135 -183 57 -57 89 -97 85
-106 -6 -17 -200 -31 -297 -20 -61 6 -62 6 -58 -18 6 -42 100 -49 301 -23 101
13 128 13 161 3 37 -13 40 -12 60 14 18 22 40 30 137 51 64 14 123 28 132 32
23 9 22 -14 -4 -73 -18 -39 -22 -69 -23 -158 -1 -96 2 -116 22 -154 27 -55 27
-63 1 -87 -12 -10 -34 -44 -50 -75 -15 -31 -35 -59 -44 -63 -9 -3 -97 -6 -196
-6 -154 0 -180 -2 -186 -16 -13 -34 13 -39 198 -36 l179 4 0 -100 c0 -67 5
-112 15 -136 23 -54 15 -60 -82 -52 -77 6 -84 5 -81 -11 6 -33 47 -44 140 -39
l87 5 21 -33 c23 -38 26 -66 8 -66 -48 1 -201 31 -229 46 -82 42 -179 124
-209 178 -40 71 -54 81 -130 101 -95 25 -130 42 -173 83 -68 66 -127 196 -127
278 0 18 -9 58 -21 89 -18 49 -30 63 -90 106 -59 43 -73 60 -104 122 -48 98
-65 174 -65 285 0 84 3 102 36 179 l35 86 -30 46 c-94 145 -94 144 -99 270 -4
108 -3 121 23 191 42 113 43 149 7 213 -40 72 -46 127 -32 339 l12 183 -47
135 c-25 74 -51 150 -57 167 -6 18 -9 36 -5 39 3 3 41 1 83 -4 52 -7 128 -8
228 -1 236 14 289 16 481 15 176 -1 181 -2 234 -29z m235 -1336 c45 -68 58
-107 34 -99 -12 4 -96 143 -97 161 -2 22 22 -1 63 -62z m201 -248 c-8 -35 -33
-27 -44 15 -17 58 -13 81 17 110 l27 27 3 -65 c2 -35 0 -75 -3 -87z m-74 10
c21 -49 39 -103 41 -118 5 -45 -17 -40 -31 7 -7 24 -26 74 -42 112 -31 73 -36
100 -17 94 6 -2 29 -45 49 -95z m182 -3 c35 -53 78 -76 200 -105 222 -51 304
-91 334 -163 8 -20 20 -40 27 -45 6 -4 56 -6 111 -5 95 2 103 1 150 -27 66
-38 142 -111 166 -157 28 -55 49 -151 37 -172 -15 -26 -3 -43 49 -70 64 -32
93 -65 144 -163 39 -76 43 -89 43 -160 1 -72 4 -82 39 -139 37 -59 38 -66 39
-148 1 -80 -3 -96 -48 -214 -46 -122 -51 -130 -120 -198 -71 -71 -166 -129
-195 -120 -8 2 -26 7 -41 10 -17 4 -34 20 -51 48 -44 76 -43 81 12 116 62 38
122 119 195 261 82 161 103 280 48 269 -13 -2 -19 -18 -23 -62 -15 -140 -231
-467 -292 -443 -13 5 -147 219 -162 259 -5 12 10 33 52 75 109 107 206 346
224 549 6 61 9 135 7 165 -3 46 -6 54 -23 54 -18 0 -21 -9 -27 -100 -15 -202
-44 -319 -119 -482 -42 -92 -118 -183 -153 -183 -18 0 -30 18 -65 93 -24 50
-73 153 -108 227 l-64 134 45 41 c61 55 91 106 117 200 29 105 32 246 7 272
-30 29 -41 4 -39 -94 1 -53 -5 -112 -14 -147 -28 -106 -110 -235 -134 -210
-11 11 -106 182 -136 244 -32 66 -74 189 -105 315 -24 93 -31 110 -49 113 -17
3 -21 -2 -21 -26 0 -69 116 -439 179 -572 17 -36 31 -71 31 -78 0 -23 59 -160
139 -327 82 -168 106 -224 100 -228 -2 -1 -29 -15 -60 -30 -59 -29 -130 -35
-247 -20 -72 8 -202 90 -254 158 -39 52 -71 65 -75 30 -5 -37 64 -113 152
-170 95 -62 94 -61 232 -75 92 -9 109 -8 170 11 37 12 74 26 81 32 8 6 16 6
21 1 16 -16 121 -256 121 -275 0 -44 -135 -76 -285 -69 -97 5 -118 9 -180 38
-92 44 -129 73 -172 138 -22 33 -43 54 -54 54 -28 0 -24 -30 11 -83 43 -64 98
-111 182 -154 69 -35 80 -37 197 -44 114 -6 132 -4 210 18 47 13 93 25 101 26
16 2 89 -124 90 -154 1 -47 -218 -187 -314 -202 -45 -7 -174 17 -219 39 -42
22 -19 42 51 46 58 3 77 19 44 37 -13 7 -39 7 -83 -1 -61 -10 -68 -9 -129 19
-76 35 -187 125 -230 189 -37 53 -60 149 -60 252 0 82 -14 122 -64 191 -20 26
-40 67 -45 92 -13 57 -14 166 -1 174 6 3 10 22 10 41 0 43 9 61 66 131 24 30
44 58 44 64 0 6 -12 31 -27 57 -23 39 -28 60 -31 138 -5 103 17 190 64 260 41
59 114 354 114 456 0 64 10 60 63 -22z m2379 -808 c20 -20 21 -25 10 -69 -8
-28 -12 -111 -12 -203 1 -147 -14 -277 -38 -340 -5 -14 -35 -57 -66 -97 -62
-79 -76 -108 -76 -158 0 -80 -58 -147 -215 -250 -145 -95 -162 -103 -243 -115
-82 -11 -145 -3 -277 39 -49 16 -103 32 -120 36 -43 10 -95 52 -111 91 -8 19
-19 34 -24 34 -20 0 -9 23 34 71 51 57 75 105 122 244 53 158 44 277 -28 377
l-20 29 78 74 c106 100 134 113 276 124 101 9 127 15 212 51 53 23 122 45 154
50 31 6 77 16 102 24 29 10 76 14 133 12 74 -2 91 -5 109 -24z m-1982 -203 c0
-6 -4 -7 -10 -4 -5 3 -10 11 -10 16 0 6 5 7 10 4 6 -3 10 -11 10 -16z m60
-127 c0 -15 -2 -15 -10 -2 -13 20 -13 33 0 25 6 -3 10 -14 10 -23z m143 -284
c108 -178 186 -320 227 -413 69 -158 180 -544 180 -625 0 -51 18 -77 45 -66 9
3 18 14 21 23 3 10 12 29 19 43 7 14 20 48 28 75 24 82 94 234 138 302 43 65
76 86 104 63 12 -10 8 -21 -27 -72 -46 -69 -101 -184 -165 -346 l-44 -113 10
-127 c6 -70 15 -145 21 -167 28 -105 21 -782 -11 -1004 l-12 -83 -31 5 c-49 8
-106 36 -106 51 0 7 11 91 25 187 29 201 34 429 12 521 -8 32 -33 86 -56 121
-29 45 -41 74 -41 101 0 51 -56 176 -107 239 -24 28 -43 55 -43 60 0 12 53
-18 75 -43 45 -50 101 -58 76 -12 -17 31 -199 134 -296 167 -61 20 -290 55
-365 55 -154 0 -409 -66 -529 -137 -36 -22 -88 -65 -119 -100 -60 -68 -84 -77
-120 -43 -29 28 -28 37 11 56 17 9 57 35 87 58 69 53 129 88 200 116 225 90
481 113 716 66 135 -27 197 -50 299 -113 99 -61 106 -59 94 36 -4 31 -8 84 -8
119 -2 129 -71 393 -143 542 -27 58 -57 128 -65 155 -8 28 -48 118 -89 201
-41 83 -74 156 -74 163 0 27 22 6 63 -61z m577 -459 c0 -11 18 -39 40 -63 22
-24 40 -46 40 -50 0 -3 -16 -26 -35 -52 -41 -54 -97 -167 -129 -261 -26 -79
-49 -90 -54 -28 -3 41 -69 263 -102 345 -10 24 -16 48 -13 53 3 5 21 6 40 2
36 -7 119 25 170 65 28 22 43 19 43 -11z m1498 -96 c-3 -21 -2 -50 3 -64 6
-24 -1 -35 -68 -100 -115 -113 -276 -291 -343 -379 -126 -166 -330 -540 -330
-606 0 -41 -48 -98 -77 -92 -23 5 -19 47 5 68 10 8 30 54 45 101 18 58 49 121
93 190 98 154 109 179 79 179 -25 0 -176 -249 -205 -339 -10 -34 -23 -69 -28
-78 -9 -14 -11 -14 -21 5 -32 59 118 350 277 540 66 78 71 89 47 99 -20 7 -45
-16 -115 -107 -109 -144 -193 -293 -225 -402 -9 -32 -21 -58 -26 -58 -40 0 -3
136 78 290 74 141 185 301 286 414 111 123 456 375 516 376 9 0 12 -10 9 -37z
m146 -140 c-13 -38 -24 -77 -24 -88 0 -32 -70 -353 -97 -445 -30 -101 -137
-320 -198 -405 -67 -93 -175 -215 -191 -215 -35 0 -9 45 81 142 108 115 255
344 255 397 0 48 -23 37 -54 -26 -57 -116 -227 -353 -253 -353 -22 0 -12 57
22 125 14 29 25 55 25 58 0 17 -49 4 -127 -33 -47 -22 -87 -40 -89 -40 -11 0
0 29 33 81 27 45 33 63 25 71 -19 19 -47 -15 -102 -123 -50 -97 -114 -169
-133 -150 -12 12 123 277 209 411 97 152 173 245 340 421 207 216 231 236 281
238 l21 1 -24 -67z m-3724 -557 c0 -8 -19 -25 -43 -39 -98 -58 -238 -260 -223
-322 8 -33 24 -32 38 3 42 105 66 139 157 231 96 97 97 98 162 110 36 6 87 11
112 11 58 0 136 -36 143 -66 7 -28 41 -59 79 -71 28 -9 30 -13 30 -59 -1 -38
-7 -58 -27 -84 -14 -19 -38 -60 -53 -90 -41 -81 -75 -121 -180 -205 -61 -49
-95 -83 -95 -96 0 -28 22 -23 55 11 16 17 35 30 43 30 8 0 52 34 97 76 92 83
167 190 197 283 22 65 23 67 43 51 17 -14 21 -122 6 -162 -5 -13 -56 -71 -112
-129 -99 -101 -145 -135 -304 -224 -27 -16 -72 -50 -98 -77 -36 -36 -56 -48
-78 -48 -16 0 -48 -9 -70 -20 -41 -21 -64 -19 -55 6 3 8 39 56 80 107 73 91
226 313 226 328 0 8 15 13 67 24 34 7 49 31 38 65 -7 23 66 96 133 132 50 27
58 58 14 58 -38 0 -92 -40 -175 -131 -37 -41 -87 -94 -112 -119 -24 -25 -59
-72 -76 -105 -17 -33 -46 -75 -65 -93 -19 -19 -41 -46 -48 -61 -19 -37 -106
-108 -106 -87 0 57 99 233 181 323 41 45 43 73 4 73 -28 0 -40 -14 -115 -134
-102 -166 -102 -165 -110 -316 -8 -149 -13 -170 -41 -170 -19 0 -19 6 -13 103
3 57 1 146 -5 202 -23 198 -24 247 -7 344 9 52 25 114 36 138 26 58 117 145
193 183 68 34 77 36 77 16z m2636 -203 c-17 -128 -17 -129 15 -188 29 -52 31
-61 25 -118 -10 -89 -5 -97 60 -97 44 0 59 5 86 28 53 46 259 196 311 226 66
39 78 32 61 -35 -8 -30 -14 -65 -14 -80 0 -15 -16 -72 -35 -128 -19 -55 -35
-107 -35 -114 0 -31 24 -35 95 -16 207 56 209 56 293 51 45 -2 85 -8 87 -13 6
-9 -156 -201 -205 -242 -52 -44 -116 -72 -241 -106 -85 -23 -137 -31 -197 -31
-78 0 -82 1 -98 28 -9 15 -25 39 -35 54 -11 15 -19 33 -19 41 0 23 95 174 157
249 76 92 94 121 84 131 -17 17 -48 -4 -105 -73 -59 -73 -186 -257 -186 -271
0 -4 -10 -11 -22 -14 -13 -4 -38 -14 -57 -23 -32 -15 -34 -15 -51 9 -92 120
-110 205 -70 324 20 60 21 69 7 82 -13 14 -17 12 -33 -13 -12 -18 -20 -49 -21
-87 -2 -61 -19 -99 -34 -75 -4 7 -8 47 -8 90 0 87 27 179 98 333 47 99 57 115
77 115 11 0 13 -10 10 -37z m1658 -28 c42 -8 104 -24 138 -36 56 -21 66 -22
129 -11 87 15 252 15 321 1 61 -13 103 -35 173 -93 l49 -41 236 -7 c267 -7
325 -17 437 -78 101 -54 168 -108 247 -195 130 -145 317 -249 509 -285 37 -7
70 -16 73 -21 13 -22 -12 -25 -93 -12 -109 18 -227 12 -310 -16 -33 -12 -107
-48 -163 -80 -64 -38 -127 -66 -170 -76 -38 -9 -83 -28 -101 -41 l-33 -24 -41
43 c-72 78 -265 185 -418 232 -47 14 -89 30 -92 35 -11 17 148 22 401 11 381
-16 513 -15 521 5 3 9 0 19 -6 23 -7 5 -132 11 -279 14 -268 5 -306 9 -300 31
2 7 45 48 96 92 105 88 133 125 116 151 -18 29 -34 26 -49 -10 -13 -32 -160
-173 -222 -214 -16 -11 -74 -17 -205 -24 -198 -9 -241 -14 -333 -35 -70 -16
-115 -18 -115 -5 0 5 21 21 48 37 26 15 74 47 107 72 33 25 112 69 175 99 111
53 134 68 124 85 -10 15 -40 8 -113 -27 -41 -20 -78 -34 -83 -33 -4 2 17 31
47 66 57 66 66 88 38 99 -18 7 -30 -5 -104 -108 -75 -103 -135 -164 -209 -213
-53 -35 -69 -52 -72 -73 -4 -31 -10 -34 -178 -64 -63 -11 -171 -36 -239 -55
-126 -34 -162 -40 -160 -26 1 10 182 162 224 187 18 11 49 39 70 62 54 62 342
253 380 253 6 0 21 7 33 16 19 13 21 19 11 31 -8 9 -21 12 -38 8 -37 -9 -174
-87 -259 -146 -40 -29 -75 -49 -78 -46 -6 6 53 118 99 185 26 40 28 46 14 59
-9 9 -22 13 -30 10 -8 -3 -47 -72 -87 -154 l-72 -148 -177 -173 -176 -172 -90
-29 c-49 -17 -110 -35 -135 -41 -47 -12 -370 -107 -395 -117 -34 -13 -10 16
60 71 41 32 75 61 75 65 0 3 20 27 44 54 30 32 52 47 69 47 20 0 36 14 72 65
26 36 64 80 85 97 71 61 244 158 345 193 55 19 101 35 103 35 1 0 2 10 2 21 0
19 -4 21 -37 16 -70 -10 -201 -68 -299 -133 -54 -35 -104 -64 -112 -64 -9 0
-1 17 22 48 97 128 111 152 95 167 -8 8 -19 11 -25 7 -14 -8 -90 -128 -157
-244 -51 -89 -121 -177 -132 -166 -8 8 32 87 85 170 41 62 48 103 20 103 -27
0 -156 -243 -174 -326 -4 -18 -49 -67 -132 -142 -110 -101 -137 -120 -218
-155 -144 -64 -276 -115 -283 -109 -3 3 28 42 68 87 41 45 89 106 108 136 31
49 33 56 19 70 -14 14 -24 4 -101 -98 -163 -216 -198 -247 -329 -283 -65 -18
-80 -45 -25 -45 l32 -1 -24 -19 c-44 -37 -64 -27 -105 54 l-24 47 18 67 c17
67 63 145 144 247 l40 50 125 0 c118 0 133 2 246 38 194 62 248 103 396 300
77 102 88 121 78 138 -9 17 -2 29 48 86 100 113 132 154 169 214 33 52 39 58
64 53 17 -4 44 3 76 18 27 14 76 30 109 37 33 7 65 15 70 16 17 6 22 5 99 -10z
m-6891 -146 c49 -98 57 -108 137 -172 90 -72 207 -134 350 -185 222 -79 461
-196 636 -314 118 -78 274 -221 274 -249 0 -10 -3 -19 -6 -19 -3 0 -39 27 -80
60 -119 95 -297 210 -327 210 -57 0 -39 -17 163 -150 150 -99 269 -199 361
-305 56 -64 104 -143 94 -154 -3 -2 -52 42 -111 98 -135 131 -265 227 -440
327 -208 119 -450 238 -469 230 -35 -13 5 -40 246 -166 219 -116 346 -196 482
-305 62 -49 126 -100 142 -112 25 -19 28 -24 15 -33 -30 -20 -83 -11 -115 19
-42 40 -244 184 -286 203 -150 70 -344 150 -366 151 -19 1 -28 -3 -28 -12 0
-9 71 -48 186 -101 132 -62 223 -112 311 -172 68 -47 138 -92 155 -102 23 -11
41 -34 63 -80 32 -68 81 -119 105 -110 26 10 16 35 -32 80 -39 37 -44 46 -33
59 16 20 73 19 112 -1 25 -13 36 -14 50 -5 25 15 23 16 46 -37 11 -26 31 -57
42 -67 32 -29 83 -95 78 -101 -3 -2 -35 9 -71 26 -76 34 -140 39 -207 15 -43
-15 -60 -13 -60 8 0 21 -131 141 -209 193 -188 125 -241 156 -455 266 -214
111 -266 132 -266 108 0 -20 46 -49 251 -155 206 -107 299 -163 502 -307 129
-91 128 -102 -3 -72 -52 12 -102 35 -212 101 -354 214 -605 347 -1001 533
-210 98 -282 122 -282 91 0 -15 77 -55 455 -239 228 -110 644 -334 770 -414
30 -19 91 -54 135 -79 72 -40 88 -44 164 -49 53 -3 86 -9 88 -17 5 -13 -8 -17
-102 -30 -55 -7 -67 -5 -140 25 -157 65 -458 220 -730 376 -82 47 -125 58
-125 31 0 -8 10 -21 23 -28 303 -186 700 -395 790 -418 93 -23 74 -46 -50 -60
-88 -10 -92 -9 -164 20 -114 45 -218 95 -284 135 -33 20 -66 36 -72 36 -23 0
-14 -38 13 -59 48 -38 278 -149 384 -186 89 -30 119 -47 188 -101 74 -59 100
-94 72 -94 -21 0 -149 49 -285 109 -282 125 -594 301 -645 363 -9 12 -22 18
-28 14 -18 -11 -14 -36 6 -43 9 -4 45 -32 78 -62 94 -85 354 -231 599 -336
128 -55 139 -63 125 -80 -18 -22 -58 -26 -102 -9 -24 8 -68 24 -98 34 -30 10
-91 34 -135 55 -44 20 -98 44 -120 52 -22 7 -97 52 -168 99 -119 80 -166 99
-151 60 6 -16 151 -126 214 -163 80 -48 319 -152 373 -163 62 -12 75 -32 33
-52 -18 -8 -45 -8 -101 1 -42 6 -95 11 -118 11 -60 0 -177 71 -417 253 -34 26
-110 73 -169 104 -58 31 -131 71 -161 89 -78 48 -215 91 -342 109 -143 20
-187 19 -255 -5 -32 -11 -59 -20 -60 -20 -2 0 -3 11 -3 25 0 16 20 46 60 88
70 75 106 91 250 113 132 19 216 51 262 97 53 52 52 83 -4 105 -70 27 -151 73
-257 145 -84 56 -109 80 -159 150 -33 45 -69 91 -81 101 -33 30 -26 43 28 50
27 4 73 15 103 25 29 10 98 22 153 26 55 4 123 11 150 17 28 5 90 9 140 9 74
0 94 -4 117 -21 37 -28 68 -26 68 3 0 24 -18 55 -60 102 -50 56 -111 173 -117
224 -5 42 24 198 53 280 6 19 8 17 67 -100z m3127 -119 c0 -26 -45 -95 -97
-146 -35 -36 -80 -67 -122 -87 -36 -17 -95 -47 -131 -68 -79 -46 -120 -58
-120 -35 0 19 158 113 224 133 56 17 148 97 194 170 25 40 52 57 52 33z
m-3355 -138 c66 -18 72 -22 117 -83 26 -35 48 -66 48 -70 0 -3 -40 -9 -89 -12
-57 -4 -99 -11 -114 -22 -28 -18 -32 -15 -42 35 -3 19 -15 62 -26 94 -11 32
-17 66 -14 74 6 15 7 15 120 -16z m6043 -5 c2 -10 -3 -17 -12 -17 -18 0 -29
16 -21 31 9 14 29 6 33 -14z m-456 -364 c10 -9 18 -24 18 -34 0 -28 -140 -208
-216 -277 -101 -93 -208 -162 -249 -162 -28 0 -65 20 -65 35 0 2 28 19 63 37
68 35 223 185 290 279 21 30 51 73 67 97 33 46 61 54 92 25z m-3874 -317 c33
-49 42 -96 19 -96 -19 0 -37 21 -37 45 0 11 -9 35 -20 53 -43 71 -11 69 38 -2z
m2937 23 c30 -17 55 -33 55 -34 0 -2 -53 -1 -117 2 -161 7 -261 -16 -373 -87
-115 -74 -265 -239 -272 -300 -5 -43 28 -36 58 12 94 150 246 262 429 317 65
19 78 20 187 9 97 -9 129 -17 180 -42 34 -17 64 -36 65 -41 2 -6 -40 -10 -114
-11 -98 0 -126 -4 -163 -21 -55 -25 -195 -147 -238 -207 -38 -52 -153 -332
-145 -352 8 -21 41 -17 53 6 6 10 24 59 41 107 51 144 84 198 172 288 45 45
96 90 113 98 18 9 72 22 122 28 80 11 96 10 135 -5 24 -9 51 -14 60 -10 19 7
34 -20 77 -137 38 -106 38 -111 0 -97 -55 19 -156 -15 -247 -81 -145 -107
-183 -161 -258 -366 -44 -121 -50 -159 -29 -176 14 -11 18 -10 30 6 8 10 14
27 14 38 0 29 48 162 92 254 44 93 118 169 216 221 76 40 222 69 222 45 0 -5
7 -46 15 -93 8 -47 22 -159 30 -250 25 -282 48 -410 90 -498 36 -76 48 -92 73
-92 20 0 14 28 -23 104 -28 56 -39 99 -55 201 -11 72 -24 153 -28 180 -13 83
-9 88 57 83 83 -6 139 -42 193 -123 26 -40 49 -65 60 -65 58 0 -38 152 -132
207 -46 28 -64 33 -116 33 -35 0 -65 4 -69 9 -3 5 -10 54 -15 109 -12 127 -54
315 -92 416 -26 67 -43 91 -107 159 -42 44 -104 100 -138 124 -60 42 -77 63
-52 63 30 0 205 -104 294 -175 55 -44 112 -87 125 -96 25 -17 25 -17 -32 -24
-92 -12 -74 -36 34 -46 42 -4 93 -18 142 -39 58 -26 79 -31 88 -22 17 17 -15
48 -71 68 -91 32 -101 37 -101 44 0 4 33 13 73 20 93 16 106 10 213 -102 89
-93 113 -141 135 -264 13 -74 7 -231 -12 -299 -6 -22 -26 -74 -45 -116 l-34
-77 21 -68 c27 -86 22 -117 -41 -265 -63 -146 -69 -184 -40 -267 12 -35 20
-66 17 -69 -3 -3 -18 4 -34 15 -15 11 -79 45 -142 76 -63 31 -145 77 -182 101
-94 61 -134 80 -199 95 -94 22 -161 58 -239 128 -93 83 -87 80 -157 93 -31 6
-81 21 -111 34 -54 24 -162 118 -192 167 -10 15 -82 95 -161 178 -135 140
-146 155 -163 213 -10 34 -19 96 -19 137 -1 68 3 85 44 181 55 130 123 218
213 277 123 81 186 98 373 101 86 1 96 -1 147 -30z m-2815 -34 c28 -25 79 -59
113 -76 139 -70 307 -222 307 -278 0 -14 9 -39 21 -56 73 -108 116 -265 105
-385 -10 -95 -63 -197 -151 -286 -91 -93 -194 -146 -337 -175 -93 -19 -113
-20 -245 -10 -121 9 -162 17 -254 48 -120 40 -189 81 -189 113 0 29 -24 35
-58 14 -31 -18 -66 -13 -60 9 2 6 50 36 107 65 88 46 113 54 175 59 l73 6 52
-69 c62 -83 137 -136 231 -165 80 -24 115 -23 115 5 0 15 -14 23 -62 37 -69
19 -153 62 -186 94 -12 12 -47 55 -77 95 -83 111 -119 148 -182 191 -32 22
-58 44 -58 48 0 11 25 21 49 21 10 0 44 13 77 29 32 16 89 34 125 40 36 6 99
22 140 36 111 39 159 35 281 -19 107 -49 135 -55 144 -32 9 23 -20 67 -85 131
-34 33 -61 64 -61 70 0 5 -15 41 -34 80 -82 170 -105 223 -112 270 -4 27 -13
64 -20 82 -29 67 -13 70 56 8z m-2021 -11 c34 -26 87 -57 119 -70 31 -12 58
-28 60 -34 8 -24 -159 -80 -239 -80 -39 0 -202 107 -191 125 21 37 126 105
163 105 15 0 51 -19 88 -46z m5598 -86 l-22 -63 -50 3 c-28 2 -54 7 -58 11 -9
9 120 111 140 111 9 0 6 -17 -10 -62z m-2956 -867 c30 -11 122 -27 205 -35
179 -19 286 -44 414 -99 114 -48 148 -69 260 -156 126 -97 205 -183 286 -308
92 -141 119 -194 160 -317 38 -110 42 -146 19 -146 -19 0 -31 27 -45 101 -29
150 -204 415 -354 538 -109 89 -260 187 -381 247 -115 57 -186 75 -355 89
-119 10 -222 26 -257 40 -25 11 -33 20 -33 39 0 31 9 32 81 7z m2002 -313 c2
-7 17 -13 33 -13 28 0 29 -2 28 -45 0 -25 -4 -64 -8 -87 -10 -52 6 -58 30 -12
25 50 38 22 21 -47 -8 -33 -18 -87 -21 -121 -8 -84 -45 -231 -64 -249 -10 -11
-23 -13 -46 -8 -17 5 -57 7 -88 6 -31 -1 -59 1 -62 6 -2 4 11 32 30 63 26 42
38 77 50 145 8 49 24 134 34 189 10 55 22 119 25 143 6 40 28 58 38 30z
m-1739 -290 c44 -12 90 -29 101 -39 11 -10 64 -41 118 -69 145 -75 172 -94
223 -158 60 -76 92 -138 100 -199 6 -46 4 -51 -21 -71 -15 -12 -32 -22 -37
-22 -15 0 -99 -60 -152 -108 -49 -45 -49 -45 -65 -25 -9 12 -28 36 -42 55 -19
24 -48 42 -96 61 -125 49 -156 75 -202 169 -23 46 -46 110 -52 143 -12 63 -30
92 -48 81 -27 -17 0 -133 55 -234 19 -34 34 -67 34 -72 0 -5 -24 -1 -52 8 -43
14 -89 17 -238 16 -174 -1 -192 -3 -308 -33 -124 -32 -178 -58 -275 -130 -65
-48 -91 -77 -82 -90 11 -19 29 -12 115 50 117 84 142 95 289 129 196 45 216
39 104 -33 -165 -106 -298 -233 -291 -278 5 -38 25 -32 59 18 19 26 45 59 59
72 21 20 187 150 294 229 29 22 37 23 131 18 116 -6 168 -19 324 -84 108 -45
151 -75 188 -130 14 -21 13 -25 -13 -64 -16 -23 -56 -72 -89 -108 -33 -36 -77
-86 -98 -112 -41 -51 -51 -52 -99 -12 -95 78 -459 61 -706 -33 -80 -30 -112
-50 -218 -135 -117 -94 -138 -118 -114 -133 14 -9 37 6 146 94 98 80 207 141
290 163 24 7 47 9 51 5 4 -5 -15 -26 -42 -49 -82 -68 -265 -256 -265 -272 0
-38 44 -6 200 148 91 90 184 173 206 184 54 27 194 38 299 22 80 -12 175 -52
175 -74 0 -6 -17 -38 -38 -71 -49 -79 -109 -210 -117 -260 -12 -71 -35 -145
-46 -145 -5 0 -23 10 -39 22 -28 21 -34 21 -148 12 -108 -9 -126 -14 -203 -51
-126 -61 -359 -255 -359 -300 0 -31 26 -19 89 40 91 85 221 180 301 219 59 28
76 32 181 36 110 4 116 3 142 -19 25 -22 26 -27 17 -59 -6 -19 -17 -95 -25
-169 -8 -73 -16 -136 -19 -138 -3 -3 -38 -6 -78 -7 -62 -1 -85 -7 -149 -38
-93 -44 -141 -86 -231 -201 -71 -92 -112 -187 -90 -209 19 -19 38 0 61 60 22
63 87 159 149 225 63 66 72 43 13 -36 -72 -96 -95 -165 -66 -197 27 -30 45
-14 45 41 0 44 7 59 74 156 84 124 112 145 194 147 l57 1 3 -206 2 -206 -47
-5 c-27 -3 -66 -13 -88 -23 -45 -22 -201 -177 -251 -250 -35 -52 -40 -70 -25
-94 13 -20 34 -2 60 53 29 59 206 230 265 257 74 32 76 28 70 -103 -7 -137
-75 -652 -88 -665 -9 -9 -26 8 -43 44 -17 37 -198 219 -334 337 -107 91 -186
181 -203 230 -18 52 -46 235 -46 301 0 70 -15 117 -55 170 -19 24 -51 77 -72
117 l-37 73 1 140 c0 94 8 186 23 280 12 77 22 148 22 158 -1 10 -22 57 -48
105 -105 192 -98 173 -86 265 6 45 14 122 18 171 6 78 12 100 47 168 61 119
162 210 339 307 108 59 164 106 249 208 41 48 83 96 94 106 43 38 186 102 260
117 81 16 214 11 299 -12z m366 -103 c84 -42 233 -193 249 -251 18 -68 25
-171 12 -179 -21 -13 -41 16 -41 60 0 51 -20 112 -54 162 -46 67 -147 162
-212 198 -115 64 -79 72 46 10z m1426 -271 c82 -24 144 -66 144 -96 0 -8 -18
-58 -40 -111 -22 -53 -51 -135 -64 -184 l-23 -88 -32 70 c-27 61 -50 88 -165
200 -101 98 -135 139 -141 164 -10 45 6 58 85 69 85 11 137 5 236 -24z m-366
-44 c0 -44 18 -69 129 -174 138 -130 172 -175 206 -268 17 -47 28 -64 43 -66
12 -2 25 -13 29 -25 12 -34 4 -331 -12 -441 -19 -126 -35 -153 -180 -305 -108
-114 -118 -128 -189 -268 -104 -205 -144 -243 -331 -308 -103 -36 -116 -43
-215 -118 -77 -59 -103 -89 -158 -182 -78 -134 -157 -184 -389 -245 -89 -24
-129 -44 -221 -114 -40 -30 -116 -81 -170 -112 -113 -67 -183 -134 -232 -222
-106 -190 -147 -248 -165 -231 -3 3 13 71 35 150 21 80 46 187 55 239 8 52 22
131 30 175 8 44 17 105 21 135 8 68 12 74 31 58 31 -25 53 -91 53 -159 0 -46
5 -70 15 -79 25 -21 35 -1 35 68 0 98 -15 137 -73 199 -45 48 -51 60 -51 96 1
107 26 645 30 665 7 35 26 14 59 -65 36 -85 112 -204 197 -309 36 -44 81 -110
98 -145 18 -35 41 -75 50 -89 20 -29 40 -121 40 -187 0 -48 15 -56 45 -23 16
18 17 26 7 71 -7 28 -12 63 -12 77 0 15 -9 43 -20 62 -11 19 -36 67 -56 105
-20 39 -60 97 -88 130 -78 90 -137 178 -205 303 -60 112 -61 114 -61 195 0
132 37 271 110 410 40 75 60 90 60 44 0 -43 31 -171 60 -246 16 -42 55 -121
86 -175 64 -112 72 -153 73 -363 1 -108 2 -113 22 -113 20 0 21 4 19 128 -3
165 -3 157 15 142 8 -7 37 -82 65 -167 54 -167 60 -219 36 -311 -13 -46 -12
-54 1 -68 21 -20 31 -9 48 57 20 75 19 156 -5 231 -11 34 -20 70 -20 79 0 33
-62 164 -101 216 -22 30 -47 71 -56 91 -8 20 -34 70 -57 112 -86 154 -152 351
-150 450 1 44 9 70 40 125 49 90 213 320 228 320 7 0 10 -16 8 -44 -7 -107 40
-280 98 -361 12 -17 36 -67 54 -113 18 -45 57 -121 88 -167 30 -47 62 -99 71
-115 8 -17 36 -57 62 -90 34 -44 45 -66 42 -84 -3 -13 4 -38 16 -58 19 -32 19
-45 13 -193 -6 -132 -5 -158 7 -163 31 -12 37 16 37 162 0 124 2 143 14 131
21 -22 66 -169 66 -215 0 -59 10 -86 29 -83 38 7 29 112 -21 243 -31 81 -55
122 -164 288 -129 196 -199 315 -222 376 -12 36 -38 90 -56 120 -46 76 -64
129 -79 241 l-14 94 39 66 c32 57 51 76 130 132 51 36 109 73 128 83 19 10 47
27 62 38 36 27 44 17 28 -33 -17 -52 -7 -215 18 -295 11 -33 54 -127 95 -209
112 -218 117 -234 127 -421 5 -88 9 -221 10 -296 0 -144 10 -179 45 -166 15 6
16 15 11 61 -9 66 -9 296 -1 317 3 8 -3 55 -15 103 -23 101 -26 138 -7 130 16
-7 69 -80 97 -134 13 -25 44 -79 70 -120 64 -100 72 -132 74 -273 1 -124 11
-152 38 -105 16 30 16 216 -1 278 -18 65 -150 281 -234 382 -90 109 -237 373
-260 468 -27 110 -38 218 -27 260 15 57 35 68 130 75 47 4 108 13 137 21 28 8
55 14 60 14 5 0 14 -21 21 -46 15 -56 38 -92 103 -159 67 -71 176 -237 194
-297 8 -29 15 -72 15 -97 0 -55 32 -131 55 -131 22 0 30 27 15 58 -6 15 -18
62 -26 106 -7 43 -16 87 -19 97 -4 11 -2 19 4 19 12 0 91 -130 91 -151 -1 -31
65 -221 78 -226 7 -3 18 -1 24 5 17 17 -63 267 -105 326 -27 40 -144 172 -273
308 -56 58 -106 120 -112 138 -10 28 -9 34 21 65 21 23 67 50 137 79 58 25
108 45 113 46 4 0 7 -18 7 -40z m-885 -179 c5 -10 -101 -93 -178 -140 l-39
-24 4 23 c2 16 31 43 93 86 90 64 109 72 120 55z m-435 -416 c-7 -9 -15 -13
-18 -10 -3 2 1 11 8 20 7 9 15 13 18 10 3 -2 -1 -11 -8 -20z m-107 -162 c-38
-65 -85 -146 -104 -180 -63 -116 -59 -63 5 67 38 78 154 245 164 236 2 -3 -27
-59 -65 -123z m1052 -1274 c5 -15 -1 -29 -20 -49 -29 -30 -98 -217 -116 -314
-11 -63 -161 -396 -278 -621 -213 -408 -342 -625 -496 -835 -34 -47 -135 -193
-225 -325 -89 -132 -181 -261 -204 -286 -22 -25 -72 -90 -111 -144 -38 -54
-119 -157 -178 -229 -59 -72 -124 -150 -143 -173 -59 -72 -127 -71 -78 0 14
21 26 50 27 65 2 24 -2 27 -34 30 -27 2 -39 9 -48 28 -19 43 -39 13 243 352
175 210 261 331 457 639 92 143 206 319 255 390 180 263 226 336 249 390 12
31 43 84 67 117 25 34 64 103 87 153 23 51 71 148 107 215 60 115 87 173 163
358 40 96 87 170 107 170 13 0 15 -7 10 -35 -10 -54 18 -45 40 13 18 46 77
112 101 112 6 0 15 -9 18 -21z"/>
<path d="M4150 10364 c0 -20 103 -128 149 -157 20 -12 74 -39 121 -59 65 -30
97 -38 141 -38 41 0 58 4 62 15 8 19 1 22 -69 34 -98 15 -220 78 -301 155 -69
65 -103 81 -103 50z"/>
<path d="M6284 9999 c-93 -56 -189 -115 -214 -132 -125 -85 -320 -262 -320
-291 0 -34 38 -12 135 76 136 123 170 148 395 285 146 90 196 125 198 141 2
14 -2 22 -10 22 -8 0 -90 -46 -184 -101z"/>
<path d="M3605 8372 c-27 -10 -70 -32 -95 -49 -58 -40 -260 -247 -260 -266 0
-8 -11 -35 -25 -58 -30 -53 -31 -59 -5 -59 13 0 36 24 70 75 74 110 106 143
153 157 26 8 66 36 113 80 54 50 85 70 118 79 76 19 88 60 18 58 -20 0 -59 -8
-87 -17z"/>
<path d="M5732 6681 c-8 -5 -12 -17 -10 -27 3 -17 11 -19 73 -16 39 2 82 -1
97 -7 39 -15 107 -79 129 -123 30 -59 73 -45 49 17 -18 48 -70 105 -124 135
-44 26 -61 30 -126 30 -41 0 -81 -4 -88 -9z"/>
<path d="M5517 6332 c-90 -52 -245 -230 -231 -266 12 -31 43 -17 77 37 55 84
156 172 221 191 63 19 77 33 51 53 -28 20 -65 16 -118 -15z"/>
<path d="M2383 6513 c-18 -7 -16 -30 4 -37 21 -8 38 8 30 28 -7 16 -13 18 -34
9z"/>
<path d="M2453 6244 c-8 -22 27 -56 46 -45 12 8 12 13 -3 35 -19 30 -34 33
-43 10z"/>
<path d="M2218 6226 c-31 -11 -37 -35 -10 -43 9 -2 26 -19 37 -36 11 -18 28
-33 38 -35 14 -3 17 4 17 35 -1 54 -43 94 -82 79z"/>
<path d="M2400 6165 c0 -24 39 -57 63 -53 14 2 23 11 25 24 2 17 -5 24 -29 33
-43 15 -59 14 -59 -4z"/>
<path d="M2686 6137 c-16 -12 -16 -14 -2 -26 13 -11 20 -11 41 3 14 9 23 21
20 26 -9 14 -38 12 -59 -3z"/>
<path d="M5070 5789 c0 -5 5 -7 10 -4 6 3 10 8 10 11 0 2 -4 4 -10 4 -5 0 -10
-5 -10 -11z"/>
<path d="M2403 3628 c-52 -59 -70 -119 -39 -131 17 -7 31 8 41 43 4 14 16 39
26 56 11 17 19 36 19 43 0 18 -25 12 -47 -11z"/>
<path d="M2572 3128 c-16 -16 -15 -35 1 -40 32 -12 50 19 24 41 -10 8 -17 7
-25 -1z"/>
<path d="M7405 11415 c-44 -8 -148 -14 -231 -14 -138 -1 -152 -3 -169 -21 -10
-11 -16 -23 -12 -26 11 -11 381 -4 452 9 55 9 71 16 73 31 4 16 -14 38 -28 35
-3 -1 -41 -7 -85 -14z"/>
<path d="M7425 11038 c-157 -94 -292 -157 -375 -174 -71 -15 -219 -14 -347 2
-41 5 -43 4 -43 -20 0 -37 26 -41 250 -41 178 1 211 4 375 34 203 38 225 44
225 66 0 26 -23 27 -108 6 -141 -36 -139 -24 11 57 132 71 164 97 146 118 -6
8 -17 14 -23 13 -6 0 -56 -28 -111 -61z"/>
</g>
</svg>
